$MeshFormat
4.1 0 8
$EndMeshFormat
$PhysicalNames
7
2 2 "xmin"
2 3 "xmax"
2 4 "ymin"
2 5 "ymax"
2 6 "zmin"
2 7 "zmax"
3 1 "solid"
$EndPhysicalNames
$Entities
8 12 6 1
1 0 0 1 0 
2 0 0 0 0 
3 0 1 1 0 
4 0 1 0 0 
5 4 0 1 0 
6 4 0 0 0 
7 4 1 1 0 
8 4 1 0 0 
1 -1e-07 -1e-07 -9.999999994736442e-08 1e-07 1e-07 1.0000001 0 2 2 -1 
2 -1e-07 -9.999999994736442e-08 0.9999999000000001 1e-07 1.0000001 1.0000001 0 2 1 -3 
3 -1e-07 0.9999999000000001 -9.999999994736442e-08 1e-07 1.0000001 1.0000001 0 2 4 -3 
4 -1e-07 -9.999999994736442e-08 -1e-07 1e-07 1.0000001 1e-07 0 2 2 -4 
5 3.9999999 -1e-07 -9.999999994736442e-08 4.0000001 1e-07 1.0000001 0 2 6 -5 
6 3.9999999 -9.999999994736442e-08 0.9999999000000001 4.0000001 1.0000001 1.0000001 0 2 5 -7 
7 3.9999999 0.9999999000000001 -9.999999994736442e-08 4.0000001 1.0000001 1.0000001 0 2 8 -7 
8 3.9999999 -9.999999994736442e-08 -1e-07 4.0000001 1.0000001 1e-07 0 2 6 -8 
9 -9.999999983634211e-08 -1e-07 -1e-07 4.0000001 1e-07 1e-07 0 2 2 -6 
10 -9.999999983634211e-08 -1e-07 0.9999999000000001 4.0000001 1e-07 1.0000001 0 2 1 -5 
11 -9.999999983634211e-08 0.9999999000000001 -1e-07 4.0000001 1.0000001 1e-07 0 2 4 -8 
12 -9.999999983634211e-08 0.9999999000000001 0.9999999000000001 4.0000001 1.0000001 1.0000001 0 2 3 -7 
1 -1e-07 -9.999999994736442e-08 -9.999999994736442e-08 1e-07 1.0000001 1.0000001 1 2 4 -1 4 3 -2 
2 3.9999999 -9.999999994736442e-08 -9.999999994736442e-08 4.0000001 1.0000001 1.0000001 1 3 4 -5 8 7 -6 
3 -9.999999983634211e-08 -1e-07 -9.999999994736442e-08 4.0000001 1e-07 1.0000001 1 4 4 -9 1 10 -5 
4 -9.999999983634211e-08 0.9999999000000001 -9.999999994736442e-08 4.0000001 1.0000001 1.0000001 1 5 4 -11 3 12 -7 
5 -9.999999983634211e-08 -9.999999994736442e-08 -1e-07 4.0000001 1.0000001 1e-07 1 6 4 -4 9 8 -11 
6 -9.999999983634211e-08 -9.999999994736442e-08 0.9999999000000001 4.0000001 1.0000001 1.0000001 1 7 4 -2 10 6 -12 
1 -9.999999983634211e-08 -9.999999994736442e-08 -9.999999994736442e-08 4.0000001 1.0000001 1.0000001 1 1 6 -1 2 -3 4 -5 6 
$EndEntities
$Nodes
27 81 1 81
0 1 0 1
1
0 0 1
0 2 0 1
2
0 0 0
0 3 0 1
3
0 1 1
0 4 0 1
4
0 1 0
0 5 0 1
5
4 0 1
0 6 0 1
6
4 0 0
0 7 0 1
7
4 1 1
0 8 0 1
8
4 1 0
1 1 0 1
9
0 0 0.5
1 2 0 1
10
0 0.5 1
1 3 0 1
11
0 1 0.5
1 4 0 1
12
0 0.5 0
1 5 0 1
13
4 0 0.5
1 6 0 1
14
4 0.5 1
1 7 0 1
15
4 1 0.5
1 8 0 1
16
4 0.5 0
1 9 0 7
17
18
19
20
21
22
23
0.5 0 0
1 0 0
1.5 0 0
2 0 0
2.5 0 0
3 0 0
3.5 0 0
1 10 0 7
24
25
26
27
28
29
30
0.5 0 1
1 0 1
1.5 0 1
2 0 1
2.5 0 1
3 0 1
3.5 0 1
1 11 0 7
31
32
33
34
35
36
37
0.5 1 0
1 1 0
1.5 1 0
2 1 0
2.5 1 0
3 1 0
3.5 1 0
1 12 0 7
38
39
40
41
42
43
44
0.5 1 1
1 1 1
1.5 1 1
2 1 1
2.5 1 1
3 1 1
3.5 1 1
2 1 0 1
45
0 0.5 0.5
2 2 0 1
46
4 0.5 0.5
2 3 0 7
47
48
49
50
51
52
53
0.5 0 0.5
1 0 0.5
1.5 0 0.5
2 0 0.5
2.5 0 0.5
3 0 0.5
3.5 0 0.5
2 4 0 7
54
55
56
57
58
59
60
0.5 1 0.5
1 1 0.5
1.5 1 0.5
2 1 0.5
2.5 1 0.5
3 1 0.5
3.5 1 0.5
2 5 0 7
61
62
63
64
65
66
67
0.5 0.5 0
1 0.5 0
1.5 0.5 0
2 0.5 0
2.5 0.5 0
3 0.5 0
3.5 0.5 0
2 6 0 7
68
69
70
71
72
73
74
0.5 0.5 1
1 0.5 1
1.5 0.5 1
2 0.5 1
2.5 0.5 1
3 0.5 1
3.5 0.5 1
3 1 0 7
75
76
77
78
79
80
81
0.5 0.5 0.5
1 0.5 0.5
1.5 0.5 0.5
2 0.5 0.5
2.5 0.5 0.5
3 0.5 0.5
3.5 0.5 0.5
$EndNodes
$Elements
7 104 1 104
2 1 3 4
1 2 9 45 12 
2 12 45 11 4 
3 9 1 10 45 
4 45 10 3 11 
2 2 3 4
5 6 16 46 13 
6 16 8 15 46 
7 13 46 14 5 
8 46 15 7 14 
2 3 3 16
9 2 17 47 9 
10 9 47 24 1 
11 17 18 48 47 
12 47 48 25 24 
13 18 19 49 48 
14 48 49 26 25 
15 19 20 50 49 
16 49 50 27 26 
17 20 21 51 50 
18 50 51 28 27 
19 21 22 52 51 
20 51 52 29 28 
21 22 23 53 52 
22 52 53 30 29 
23 23 6 13 53 
24 53 13 5 30 
2 4 3 16
25 4 11 54 31 
26 11 3 38 54 
27 31 54 55 32 
28 54 38 39 55 
29 32 55 56 33 
30 55 39 40 56 
31 33 56 57 34 
32 56 40 41 57 
33 34 57 58 35 
34 57 41 42 58 
35 35 58 59 36 
36 58 42 43 59 
37 36 59 60 37 
38 59 43 44 60 
39 37 60 15 8 
40 60 44 7 15 
2 5 3 16
41 2 12 61 17 
42 17 61 62 18 
43 18 62 63 19 
44 19 63 64 20 
45 20 64 65 21 
46 21 65 66 22 
47 22 66 67 23 
48 23 67 16 6 
49 12 4 31 61 
50 61 31 32 62 
51 62 32 33 63 
52 63 33 34 64 
53 64 34 35 65 
54 65 35 36 66 
55 66 36 37 67 
56 67 37 8 16 
2 6 3 16
57 1 24 68 10 
58 24 25 69 68 
59 25 26 70 69 
60 26 27 71 70 
61 27 28 72 71 
62 28 29 73 72 
63 29 30 74 73 
64 30 5 14 74 
65 10 68 38 3 
66 68 69 39 38 
67 69 70 40 39 
68 70 71 41 40 
69 71 72 42 41 
70 72 73 43 42 
71 73 74 44 43 
72 74 14 7 44 
3 1 5 32
73 45 9 2 12 75 47 17 61 
74 75 47 17 61 76 48 18 62 
75 76 48 18 62 77 49 19 63 
76 77 49 19 63 78 50 20 64 
77 78 50 20 64 79 51 21 65 
78 79 51 21 65 80 52 22 66 
79 80 52 22 66 81 53 23 67 
80 81 53 23 67 46 13 6 16 
81 11 45 12 4 54 75 61 31 
82 54 75 61 31 55 76 62 32 
83 55 76 62 32 56 77 63 33 
84 56 77 63 33 57 78 64 34 
85 57 78 64 34 58 79 65 35 
86 58 79 65 35 59 80 66 36 
87 59 80 66 36 60 81 67 37 
88 60 81 67 37 15 46 16 8 
89 10 1 9 45 68 24 47 75 
90 68 24 47 75 69 25 48 76 
91 69 25 48 76 70 26 49 77 
92 70 26 49 77 71 27 50 78 
93 71 27 50 78 72 28 51 79 
94 72 28 51 79 73 29 52 80 
95 73 29 52 80 74 30 53 81 
96 74 30 53 81 14 5 13 46 
97 3 10 45 11 38 68 75 54 
98 38 68 75 54 39 69 76 55 
99 39 69 76 55 40 70 77 56 
100 40 70 77 56 41 71 78 57 
101 41 71 78 57 42 72 79 58 
102 42 72 79 58 43 73 80 59 
103 43 73 80 59 44 74 81 60 
104 44 74 81 60 7 14 46 15 
$EndElements
