$MeshFormat
4.1 0 8
$EndMeshFormat
$PhysicalNames
7
2 2 "xmin"
2 3 "xmax"
2 4 "ymin"
2 5 "ymax"
2 6 "zmin"
2 7 "zmax"
3 1 "solid"
$EndPhysicalNames
$Entities
8 12 6 1
1 0 0 1 0 
2 0 0 0 0 
3 0 1 1 0 
4 0 1 0 0 
5 4 0 1 0 
6 4 0 0 0 
7 4 1 1 0 
8 4 1 0 0 
1 -1e-07 -1e-07 -9.999999994736442e-08 1e-07 1e-07 1.0000001 0 2 2 -1 
2 -1e-07 -9.999999994736442e-08 0.9999999000000001 1e-07 1.0000001 1.0000001 0 2 1 -3 
3 -1e-07 0.9999999000000001 -9.999999994736442e-08 1e-07 1.0000001 1.0000001 0 2 4 -3 
4 -1e-07 -9.999999994736442e-08 -1e-07 1e-07 1.0000001 1e-07 0 2 2 -4 
5 3.9999999 -1e-07 -9.999999994736442e-08 4.0000001 1e-07 1.0000001 0 2 6 -5 
6 3.9999999 -9.999999994736442e-08 0.9999999000000001 4.0000001 1.0000001 1.0000001 0 2 5 -7 
7 3.9999999 0.9999999000000001 -9.999999994736442e-08 4.0000001 1.0000001 1.0000001 0 2 8 -7 
8 3.9999999 -9.999999994736442e-08 -1e-07 4.0000001 1.0000001 1e-07 0 2 6 -8 
9 -9.999999983634211e-08 -1e-07 -1e-07 4.0000001 1e-07 1e-07 0 2 2 -6 
10 -9.999999983634211e-08 -1e-07 0.9999999000000001 4.0000001 1e-07 1.0000001 0 2 1 -5 
11 -9.999999983634211e-08 0.9999999000000001 -1e-07 4.0000001 1.0000001 1e-07 0 2 4 -8 
12 -9.999999983634211e-08 0.9999999000000001 0.9999999000000001 4.0000001 1.0000001 1.0000001 0 2 3 -7 
1 -1e-07 -9.999999994736442e-08 -9.999999994736442e-08 1e-07 1.0000001 1.0000001 1 2 4 -1 4 3 -2 
2 3.9999999 -9.999999994736442e-08 -9.999999994736442e-08 4.0000001 1.0000001 1.0000001 1 3 4 -5 8 7 -6 
3 -9.999999983634211e-08 -1e-07 -9.999999994736442e-08 4.0000001 1e-07 1.0000001 1 4 4 -9 1 10 -5 
4 -9.999999983634211e-08 0.9999999000000001 -9.999999994736442e-08 4.0000001 1.0000001 1.0000001 1 5 4 -11 3 12 -7 
5 -9.999999983634211e-08 -9.999999994736442e-08 -1e-07 4.0000001 1.0000001 1e-07 1 6 4 -4 9 8 -11 
6 -9.999999983634211e-08 -9.999999994736442e-08 0.9999999000000001 4.0000001 1.0000001 1.0000001 1 7 4 -2 10 6 -12 
1 -9.999999983634211e-08 -9.999999994736442e-08 -9.999999994736442e-08 4.0000001 1.0000001 1.0000001 1 1 6 -1 2 -3 4 -5 6 
$EndEntities
$Nodes
27 261 1 261
0 1 0 1
1
0 0 1
0 2 0 1
2
0 0 0
0 3 0 1
3
0 1 1
0 4 0 1
4
0 1 0
0 5 0 1
5
4 0 1
0 6 0 1
6
4 0 0
0 7 0 1
7
4 1 1
0 8 0 1
8
4 1 0
1 1 0 3
9
10
11
0 0 0.5
0 0 0.25
0 0 0.75
1 2 0 3
12
13
14
0 0.5 1
0 0.25 1
0 0.75 1
1 3 0 3
15
16
17
0 1 0.5
0 1 0.25
0 1 0.75
1 4 0 3
18
19
20
0 0.5 0
0 0.25 0
0 0.75 0
1 5 0 3
21
22
23
4 0 0.5
4 0 0.25
4 0 0.75
1 6 0 3
24
25
26
4 0.5 1
4 0.25 1
4 0.75 1
1 7 0 3
27
28
29
4 1 0.5
4 1 0.25
4 1 0.75
1 8 0 3
30
31
32
4 0.5 0
4 0.25 0
4 0.75 0
1 9 0 15
33
34
35
36
37
38
39
40
41
42
43
44
45
46
47
0.5 0 0
1 0 0
1.5 0 0
2 0 0
2.5 0 0
3 0 0
3.5 0 0
0.25 0 0
0.75 0 0
1.25 0 0
1.75 0 0
2.25 0 0
2.75 0 0
3.25 0 0
3.75 0 0
1 10 0 15
48
49
50
51
52
53
54
55
56
57
58
59
60
61
62
0.5 0 1
1 0 1
1.5 0 1
2 0 1
2.5 0 1
3 0 1
3.5 0 1
0.25 0 1
0.75 0 1
1.25 0 1
1.75 0 1
2.25 0 1
2.75 0 1
3.25 0 1
3.75 0 1
1 11 0 15
63
64
65
66
67
68
69
70
71
72
73
74
75
76
77
0.5 1 0
1 1 0
1.5 1 0
2 1 0
2.5 1 0
3 1 0
3.5 1 0
0.25 1 0
0.75 1 0
1.25 1 0
1.75 1 0
2.25 1 0
2.75 1 0
3.25 1 0
3.75 1 0
1 12 0 15
78
79
80
81
82
83
84
85
86
87
88
89
90
91
92
0.5 1 1
1 1 1
1.5 1 1
2 1 1
2.5 1 1
3 1 1
3.5 1 1
0.25 1 1
0.75 1 1
1.25 1 1
1.75 1 1
2.25 1 1
2.75 1 1
3.25 1 1
3.75 1 1
2 1 0 5
93
94
95
96
97
0 0.5 0.5
0 0.25 0.5
0 0.5 0.25
0 0.75 0.5
0 0.5 0.75
2 2 0 5
98
99
100
101
102
4 0.5 0.5
4 0.5 0.25
4 0.25 0.5
4 0.75 0.5
4 0.5 0.75
2 3 0 29
103
104
105
106
107
108
109
110
111
112
113
114
115
116
117
118
119
120
121
122
123
124
125
126
127
128
129
130
131
0.5 0 0.5
1 0 0.5
1.5 0 0.5
2 0 0.5
2.5 0 0.5
3 0 0.5
3.5 0 0.5
0.5 0 0.25
0.25 0 0.5
0.5 0 0.75
1 0 0.25
0.75 0 0.5
1 0 0.75
1.5 0 0.25
1.25 0 0.5
1.5 0 0.75
2 0 0.25
1.75 0 0.5
2 0 0.75
2.5 0 0.25
2.25 0 0.5
2.5 0 0.75
3 0 0.25
2.75 0 0.5
3 0 0.75
3.5 0 0.25
3.25 0 0.5
3.5 0 0.75
3.75 0 0.5
2 4 0 29
132
133
134
135
136
137
138
139
140
141
142
143
144
145
146
147
148
149
150
151
152
153
154
155
156
157
158
159
160
0.5 1 0.5
1 1 0.5
1.5 1 0.5
2 1 0.5
2.5 1 0.5
3 1 0.5
3.5 1 0.5
0.25 1 0.5
0.5 1 0.25
0.5 1 0.75
0.75 1 0.5
1 1 0.25
1 1 0.75
1.25 1 0.5
1.5 1 0.25
1.5 1 0.75
1.75 1 0.5
2 1 0.25
2 1 0.75
2.25 1 0.5
2.5 1 0.25
2.5 1 0.75
2.75 1 0.5
3 1 0.25
3 1 0.75
3.25 1 0.5
3.5 1 0.25
3.5 1 0.75
3.75 1 0.5
2 5 0 29
161
162
163
164
165
166
167
168
169
170
171
172
173
174
175
176
177
178
179
180
181
182
183
184
185
186
187
188
189
0.5 0.5 0
1 0.5 0
1.5 0.5 0
2 0.5 0
2.5 0.5 0
3 0.5 0
3.5 0.5 0
0.25 0.5 0
0.5 0.25 0
0.75 0.5 0
1 0.25 0
1.25 0.5 0
1.5 0.25 0
1.75 0.5 0
2 0.25 0
2.25 0.5 0
2.5 0.25 0
2.75 0.5 0
3 0.25 0
3.25 0.5 0
3.5 0.25 0
3.75 0.5 0
0.5 0.75 0
1 0.75 0
1.5 0.75 0
2 0.75 0
2.5 0.75 0
3 0.75 0
3.5 0.75 0
2 6 0 29
190
191
192
193
194
195
196
197
198
199
200
201
202
203
204
205
206
207
208
209
210
211
212
213
214
215
216
217
218
0.5 0.5 1
1 0.5 1
1.5 0.5 1
2 0.5 1
2.5 0.5 1
3 0.5 1
3.5 0.5 1
0.5 0.25 1
0.25 0.5 1
1 0.25 1
0.75 0.5 1
1.5 0.25 1
1.25 0.5 1
2 0.25 1
1.75 0.5 1
2.5 0.25 1
2.25 0.5 1
3 0.25 1
2.75 0.5 1
3.5 0.25 1
3.25 0.5 1
3.75 0.5 1
0.5 0.75 1
1 0.75 1
1.5 0.75 1
2 0.75 1
2.5 0.75 1
3 0.75 1
3.5 0.75 1
3 1 0 43
219
220
221
222
223
224
225
226
227
228
229
230
231
232
233
234
235
236
237
238
239
240
241
242
243
244
245
246
247
248
249
250
251
252
253
254
255
256
257
258
259
260
261
0.5 0.5 0.5
1 0.5 0.5
1.5 0.5 0.5
2 0.5 0.5
2.5 0.5 0.5
3 0.5 0.5
3.5 0.5 0.5
0.25 0.5 0.5
0.5 0.25 0.5
0.5 0.5 0.25
0.75 0.5 0.5
1 0.25 0.5
1 0.5 0.25
1.25 0.5 0.5
1.5 0.25 0.5
1.5 0.5 0.25
1.75 0.5 0.5
2 0.25 0.5
2 0.5 0.25
2.25 0.5 0.5
2.5 0.25 0.5
2.5 0.5 0.25
2.75 0.5 0.5
3 0.25 0.5
3 0.5 0.25
3.25 0.5 0.5
3.5 0.25 0.5
3.5 0.5 0.25
3.75 0.5 0.5
0.5 0.75 0.5
1 0.75 0.5
1.5 0.75 0.5
2 0.75 0.5
2.5 0.75 0.5
3 0.75 0.5
3.5 0.75 0.5
0.5 0.5 0.75
1 0.5 0.75
1.5 0.5 0.75
2 0.5 0.75
2.5 0.5 0.75
3 0.5 0.75
3.5 0.5 0.75
$EndNodes
$Elements
7 104 1 104
2 1 16 4
1 2 9 93 18 10 94 95 19 
2 18 93 15 4 95 96 16 20 
3 9 1 12 93 11 13 97 94 
4 93 12 3 15 97 14 17 96 
2 2 16 4
5 6 30 98 21 31 99 100 22 
6 30 8 27 98 32 28 101 99 
7 21 98 24 5 100 102 25 23 
8 98 27 7 24 101 29 26 102 
2 3 16 16
9 2 33 103 9 40 110 111 10 
10 9 103 48 1 111 112 55 11 
11 33 34 104 103 41 113 114 110 
12 103 104 49 48 114 115 56 112 
13 34 35 105 104 42 116 117 113 
14 104 105 50 49 117 118 57 115 
15 35 36 106 105 43 119 120 116 
16 105 106 51 50 120 121 58 118 
17 36 37 107 106 44 122 123 119 
18 106 107 52 51 123 124 59 121 
19 37 38 108 107 45 125 126 122 
20 107 108 53 52 126 127 60 124 
21 38 39 109 108 46 128 129 125 
22 108 109 54 53 129 130 61 127 
23 39 6 21 109 47 22 131 128 
24 109 21 5 54 131 23 62 130 
2 4 16 16
25 4 15 132 63 16 139 140 70 
26 15 3 78 132 17 85 141 139 
27 63 132 133 64 140 142 143 71 
28 132 78 79 133 141 86 144 142 
29 64 133 134 65 143 145 146 72 
30 133 79 80 134 144 87 147 145 
31 65 134 135 66 146 148 149 73 
32 134 80 81 135 147 88 150 148 
33 66 135 136 67 149 151 152 74 
34 135 81 82 136 150 89 153 151 
35 67 136 137 68 152 154 155 75 
36 136 82 83 137 153 90 156 154 
37 68 137 138 69 155 157 158 76 
38 137 83 84 138 156 91 159 157 
39 69 138 27 8 158 160 28 77 
40 138 84 7 27 159 92 29 160 
2 5 16 16
41 2 18 161 33 19 168 169 40 
42 33 161 162 34 169 170 171 41 
43 34 162 163 35 171 172 173 42 
44 35 163 164 36 173 174 175 43 
45 36 164 165 37 175 176 177 44 
46 37 165 166 38 177 178 179 45 
47 38 166 167 39 179 180 181 46 
48 39 167 30 6 181 182 31 47 
49 18 4 63 161 20 70 183 168 
50 161 63 64 162 183 71 184 170 
51 162 64 65 163 184 72 185 172 
52 163 65 66 164 185 73 186 174 
53 164 66 67 165 186 74 187 176 
54 165 67 68 166 187 75 188 178 
55 166 68 69 167 188 76 189 180 
56 167 69 8 30 189 77 32 182 
2 6 16 16
57 1 48 190 12 55 197 198 13 
58 48 49 191 190 56 199 200 197 
59 49 50 192 191 57 201 202 199 
60 50 51 193 192 58 203 204 201 
61 51 52 194 193 59 205 206 203 
62 52 53 195 194 60 207 208 205 
63 53 54 196 195 61 209 210 207 
64 54 5 24 196 62 25 211 209 
65 12 190 78 3 198 212 85 14 
66 190 191 79 78 200 213 86 212 
67 191 192 80 79 202 214 87 213 
68 192 193 81 80 204 215 88 214 
69 193 194 82 81 206 216 89 215 
70 194 195 83 82 208 217 90 216 
71 195 196 84 83 210 218 91 217 
72 196 24 7 84 211 26 92 218 
3 1 17 32
73 93 9 2 18 219 103 33 161 94 95 226 10 111 19 40 168 227 228 110 169 
74 219 103 33 161 220 104 34 162 227 228 229 110 114 169 41 170 230 231 113 171 
75 220 104 34 162 221 105 35 163 230 231 232 113 117 171 42 172 233 234 116 173 
76 221 105 35 163 222 106 36 164 233 234 235 116 120 173 43 174 236 237 119 175 
77 222 106 36 164 223 107 37 165 236 237 238 119 123 175 44 176 239 240 122 177 
78 223 107 37 165 224 108 38 166 239 240 241 122 126 177 45 178 242 243 125 179 
79 224 108 38 166 225 109 39 167 242 243 244 125 129 179 46 180 245 246 128 181 
80 225 109 39 167 98 21 6 30 245 246 247 128 131 181 47 182 100 99 22 31 
81 15 93 18 4 132 219 161 63 96 16 139 95 226 20 168 70 248 140 228 183 
82 132 219 161 63 133 220 162 64 248 140 142 228 229 183 170 71 249 143 231 184 
83 133 220 162 64 134 221 163 65 249 143 145 231 232 184 172 72 250 146 234 185 
84 134 221 163 65 135 222 164 66 250 146 148 234 235 185 174 73 251 149 237 186 
85 135 222 164 66 136 223 165 67 251 149 151 237 238 186 176 74 252 152 240 187 
86 136 223 165 67 137 224 166 68 252 152 154 240 241 187 178 75 253 155 243 188 
87 137 224 166 68 138 225 167 69 253 155 157 243 244 188 180 76 254 158 246 189 
88 138 225 167 69 27 98 30 8 254 158 160 246 247 189 182 77 101 28 99 32 
89 12 1 9 93 190 48 103 219 13 97 198 11 55 94 111 226 197 255 112 227 
90 190 48 103 219 191 49 104 220 197 255 200 112 56 227 114 229 199 256 115 230 
91 191 49 104 220 192 50 105 221 199 256 202 115 57 230 117 232 201 257 118 233 
92 192 50 105 221 193 51 106 222 201 257 204 118 58 233 120 235 203 258 121 236 
93 193 51 106 222 194 52 107 223 203 258 206 121 59 236 123 238 205 259 124 239 
94 194 52 107 223 195 53 108 224 205 259 208 124 60 239 126 241 207 260 127 242 
95 195 53 108 224 196 54 109 225 207 260 210 127 61 242 129 244 209 261 130 245 
96 196 54 109 225 24 5 21 98 209 261 211 130 62 245 131 247 25 102 23 100 
97 3 12 93 15 78 190 219 132 14 17 85 97 198 96 226 139 212 141 255 248 
98 78 190 219 132 79 191 220 133 212 141 86 255 200 248 229 142 213 144 256 249 
99 79 191 220 133 80 192 221 134 213 144 87 256 202 249 232 145 214 147 257 250 
100 80 192 221 134 81 193 222 135 214 147 88 257 204 250 235 148 215 150 258 251 
101 81 193 222 135 82 194 223 136 215 150 89 258 206 251 238 151 216 153 259 252 
102 82 194 223 136 83 195 224 137 216 153 90 259 208 252 241 154 217 156 260 253 
103 83 195 224 137 84 196 225 138 217 156 91 260 210 253 244 157 218 159 261 254 
104 84 196 225 138 7 24 98 27 218 159 92 261 211 254 247 160 26 29 102 101 
$EndElements
