$MeshFormat
4.1 0 8
$EndMeshFormat
$PhysicalNames
9
0 9 "anchor"
2 3 "xmin"
2 4 "xmax"
2 5 "ymin"
2 6 "ymax"
2 7 "zmin"
2 8 "zmax"
3 1 "matrix"
3 2 "core"
$EndPhysicalNames
$Entities
64 144 108 27
1 0 0 0 1 9 
2 0 0 0.25 0 
3 0 0.25 0.25 0 
4 0 0.25 0 0 
5 0.25 0 0 0 
6 0.25 0 0.25 0 
7 0.25 0.25 0.25 0 
8 0.25 0.25 0 0 
9 0 0 0.75 0 
10 0 0.25 0.75 0 
11 0.25 0 0.75 0 
12 0.25 0.25 0.75 0 
13 0 0 1 0 
14 0 0.25 1 0 
15 0.25 0 1 0 
16 0.25 0.25 1 0 
17 0 0.75 0.25 0 
18 0 0.75 0 0 
19 0.25 0.75 0.25 0 
20 0.25 0.75 0 0 
21 0 0.75 0.75 0 
22 0.25 0.75 0.75 0 
23 0 0.75 1 0 
24 0.25 0.75 1 0 
25 0 1 0.25 0 
26 0 1 0 0 
27 0.25 1 0.25 0 
28 0.25 1 0 0 
29 0 1 0.75 0 
30 0.25 1 0.75 0 
31 0 1 1 0 
32 0.25 1 1 0 
33 0.75 0 0 0 
34 0.75 0 0.25 0 
35 0.75 0.25 0.25 0 
36 0.75 0.25 0 0 
37 0.75 0 0.75 0 
38 0.75 0.25 0.75 0 
39 0.75 0 1 0 
40 0.75 0.25 1 0 
41 0.75 0.75 0.25 0 
42 0.75 0.75 0 0 
43 0.75 0.75 0.75 0 
44 0.75 0.75 1 0 
45 0.75 1 0.25 0 
46 0.75 1 0 0 
47 0.75 1 0.75 0 
48 0.75 1 1 0 
49 1 0 0 0 
50 1 0 0.25 0 
51 1 0.25 0.25 0 
52 1 0.25 0 0 
53 1 0 0.75 0 
54 1 0.25 0.75 0 
55 1 0 1 0 
56 1 0.25 1 0 
57 1 0.75 0.25 0 
58 1 0.75 0 0 
59 1 0.75 0.75 0 
60 1 0.75 1 0 
61 1 1 0.25 0 
62 1 1 0 0 
63 1 1 0.75 0 
64 1 1 1 0 
1 -1e-07 -1e-07 -1.000000000028756e-07 1e-07 1e-07 0.2500001 0 2 1 -2 
2 -1e-07 -1.000000000028756e-07 0.2499999 1e-07 0.2500001 0.2500001 0 2 2 -3 
3 -1e-07 0.2499999 -1.000000000028756e-07 1e-07 0.2500001 0.2500001 0 2 4 -3 
4 -1e-07 -1.000000000028756e-07 -1e-07 1e-07 0.2500001 1e-07 0 2 1 -4 
5 0.2499999 -1e-07 -1.000000000028756e-07 0.2500001 1e-07 0.2500001 0 2 5 -6 
6 0.2499999 -1.000000000028756e-07 0.2499999 0.2500001 0.2500001 0.2500001 0 2 6 -7 
7 0.2499999 0.2499999 -1.000000000028756e-07 0.2500001 0.2500001 0.2500001 0 2 8 -7 
8 0.2499999 -1.000000000028756e-07 -1e-07 0.2500001 0.2500001 1e-07 0 2 5 -8 
9 -1.000000000028756e-07 -1e-07 -1e-07 0.2500001 1e-07 1e-07 0 2 1 -5 
10 -1.000000000028756e-07 -1e-07 0.2499999 0.2500001 1e-07 0.2500001 0 2 2 -6 
11 -1.000000000028756e-07 0.2499999 -1e-07 0.2500001 0.2500001 1e-07 0 2 4 -8 
12 -1.000000000028756e-07 0.2499999 0.2499999 0.2500001 0.2500001 0.2500001 0 2 3 -7 
13 -1e-07 -1e-07 0.2499999 1e-07 1e-07 0.7500000999999999 0 2 2 -9 
14 -1e-07 -1.000000000028756e-07 0.7499999000000001 1e-07 0.2500001 0.7500000999999999 0 2 9 -10 
15 -1e-07 0.2499999 0.2499999 1e-07 0.2500001 0.7500000999999999 0 2 3 -10 
16 0.2499999 -1e-07 0.2499999 0.2500001 1e-07 0.7500000999999999 0 2 6 -11 
17 0.2499999 -1.000000000028756e-07 0.7499999000000001 0.2500001 0.2500001 0.7500000999999999 0 2 11 -12 
18 0.2499999 0.2499999 0.2499999 0.2500001 0.2500001 0.7500000999999999 0 2 7 -12 
19 -1.000000000028756e-07 -1e-07 0.7499999000000001 0.2500001 1e-07 0.7500000999999999 0 2 9 -11 
20 -1.000000000028756e-07 0.2499999 0.7499999000000001 0.2500001 0.2500001 0.7500000999999999 0 2 10 -12 
21 -1e-07 -1e-07 0.7499999000000001 1e-07 1e-07 1.0000001 0 2 9 -13 
22 -1e-07 -1.000000000028756e-07 0.9999999000000001 1e-07 0.2500001 1.0000001 0 2 13 -14 
23 -1e-07 0.2499999 0.7499999000000001 1e-07 0.2500001 1.0000001 0 2 10 -14 
24 0.2499999 -1e-07 0.7499999000000001 0.2500001 1e-07 1.0000001 0 2 11 -15 
25 0.2499999 -1.000000000028756e-07 0.9999999000000001 0.2500001 0.2500001 1.0000001 0 2 15 -16 
26 0.2499999 0.2499999 0.7499999000000001 0.2500001 0.2500001 1.0000001 0 2 12 -16 
27 -1.000000000028756e-07 -1e-07 0.9999999000000001 0.2500001 1e-07 1.0000001 0 2 13 -15 
28 -1.000000000028756e-07 0.2499999 0.9999999000000001 0.2500001 0.2500001 1.0000001 0 2 14 -16 
29 -1e-07 0.2499999 0.2499999 1e-07 0.7500000999999999 0.2500001 0 2 3 -17 
30 -1e-07 0.7499999000000001 -1.000000000028756e-07 1e-07 0.7500000999999999 0.2500001 0 2 18 -17 
31 -1e-07 0.2499999 -1e-07 1e-07 0.7500000999999999 1e-07 0 2 4 -18 
32 0.2499999 0.2499999 0.2499999 0.2500001 0.7500000999999999 0.2500001 0 2 7 -19 
33 0.2499999 0.7499999000000001 -1.000000000028756e-07 0.2500001 0.7500000999999999 0.2500001 0 2 20 -19 
34 0.2499999 0.2499999 -1e-07 0.2500001 0.7500000999999999 1e-07 0 2 8 -20 
35 -1.000000000028756e-07 0.7499999000000001 -1e-07 0.2500001 0.7500000999999999 1e-07 0 2 18 -20 
36 -1.000000000028756e-07 0.7499999000000001 0.2499999 0.2500001 0.7500000999999999 0.2500001 0 2 17 -19 
37 -1e-07 0.2499999 0.7499999000000001 1e-07 0.7500000999999999 0.7500000999999999 0 2 10 -21 
38 -1e-07 0.7499999000000001 0.2499999 1e-07 0.7500000999999999 0.7500000999999999 0 2 17 -21 
39 0.2499999 0.2499999 0.7499999000000001 0.2500001 0.7500000999999999 0.7500000999999999 0 2 12 -22 
40 0.2499999 0.7499999000000001 0.2499999 0.2500001 0.7500000999999999 0.7500000999999999 0 2 19 -22 
41 -1.000000000028756e-07 0.7499999000000001 0.7499999000000001 0.2500001 0.7500000999999999 0.7500000999999999 0 2 21 -22 
42 -1e-07 0.2499999 0.9999999000000001 1e-07 0.7500000999999999 1.0000001 0 2 14 -23 
43 -1e-07 0.7499999000000001 0.7499999000000001 1e-07 0.7500000999999999 1.0000001 0 2 21 -23 
44 0.2499999 0.2499999 0.9999999000000001 0.2500001 0.7500000999999999 1.0000001 0 2 16 -24 
45 0.2499999 0.7499999000000001 0.7499999000000001 0.2500001 0.7500000999999999 1.0000001 0 2 22 -24 
46 -1.000000000028756e-07 0.7499999000000001 0.9999999000000001 0.2500001 0.7500000999999999 1.0000001 0 2 23 -24 
47 -1e-07 0.7499999000000001 0.2499999 1e-07 1.0000001 0.2500001 0 2 17 -25 
48 -1e-07 0.9999999000000001 -1.000000000028756e-07 1e-07 1.0000001 0.2500001 0 2 26 -25 
49 -1e-07 0.7499999000000001 -1e-07 1e-07 1.0000001 1e-07 0 2 18 -26 
50 0.2499999 0.7499999000000001 0.2499999 0.2500001 1.0000001 0.2500001 0 2 19 -27 
51 0.2499999 0.9999999000000001 -1.000000000028756e-07 0.2500001 1.0000001 0.2500001 0 2 28 -27 
52 0.2499999 0.7499999000000001 -1e-07 0.2500001 1.0000001 1e-07 0 2 20 -28 
53 -1.000000000028756e-07 0.9999999000000001 -1e-07 0.2500001 1.0000001 1e-07 0 2 26 -28 
54 -1.000000000028756e-07 0.9999999000000001 0.2499999 0.2500001 1.0000001 0.2500001 0 2 25 -27 
55 -1e-07 0.7499999000000001 0.7499999000000001 1e-07 1.0000001 0.7500000999999999 0 2 21 -29 
56 -1e-07 0.9999999000000001 0.2499999 1e-07 1.0000001 0.7500000999999999 0 2 25 -29 
57 0.2499999 0.7499999000000001 0.7499999000000001 0.2500001 1.0000001 0.7500000999999999 0 2 22 -30 
58 0.2499999 0.9999999000000001 0.2499999 0.2500001 1.0000001 0.7500000999999999 0 2 27 -30 
59 -1.000000000028756e-07 0.9999999000000001 0.7499999000000001 0.2500001 1.0000001 0.7500000999999999 0 2 29 -30 
60 -1e-07 0.7499999000000001 0.9999999000000001 1e-07 1.0000001 1.0000001 0 2 23 -31 
61 -1e-07 0.9999999000000001 0.7499999000000001 1e-07 1.0000001 1.0000001 0 2 29 -31 
62 0.2499999 0.7499999000000001 0.9999999000000001 0.2500001 1.0000001 1.0000001 0 2 24 -32 
63 0.2499999 0.9999999000000001 0.7499999000000001 0.2500001 1.0000001 1.0000001 0 2 30 -32 
64 -1.000000000028756e-07 0.9999999000000001 0.9999999000000001 0.2500001 1.0000001 1.0000001 0 2 31 -32 
65 0.7499999000000001 -1e-07 -1.000000000028756e-07 0.7500000999999999 1e-07 0.2500001 0 2 33 -34 
66 0.7499999000000001 -1.000000000028756e-07 0.2499999 0.7500000999999999 0.2500001 0.2500001 0 2 34 -35 
67 0.7499999000000001 0.2499999 -1.000000000028756e-07 0.7500000999999999 0.2500001 0.2500001 0 2 36 -35 
68 0.7499999000000001 -1.000000000028756e-07 -1e-07 0.7500000999999999 0.2500001 1e-07 0 2 33 -36 
69 0.2499999 -1e-07 -1e-07 0.7500000999999999 1e-07 1e-07 0 2 5 -33 
70 0.2499999 -1e-07 0.2499999 0.7500000999999999 1e-07 0.2500001 0 2 6 -34 
71 0.2499999 0.2499999 -1e-07 0.7500000999999999 0.2500001 1e-07 0 2 8 -36 
72 0.2499999 0.2499999 0.2499999 0.7500000999999999 0.2500001 0.2500001 0 2 7 -35 
73 0.7499999000000001 -1e-07 0.2499999 0.7500000999999999 1e-07 0.7500000999999999 0 2 34 -37 
74 0.7499999000000001 -1.000000000028756e-07 0.7499999000000001 0.7500000999999999 0.2500001 0.7500000999999999 0 2 37 -38 
75 0.7499999000000001 0.2499999 0.2499999 0.7500000999999999 0.2500001 0.7500000999999999 0 2 35 -38 
76 0.2499999 -1e-07 0.7499999000000001 0.7500000999999999 1e-07 0.7500000999999999 0 2 11 -37 
77 0.2499999 0.2499999 0.7499999000000001 0.7500000999999999 0.2500001 0.7500000999999999 0 2 12 -38 
78 0.7499999000000001 -1e-07 0.7499999000000001 0.7500000999999999 1e-07 1.0000001 0 2 37 -39 
79 0.7499999000000001 -1.000000000028756e-07 0.9999999000000001 0.7500000999999999 0.2500001 1.0000001 0 2 39 -40 
80 0.7499999000000001 0.2499999 0.7499999000000001 0.7500000999999999 0.2500001 1.0000001 0 2 38 -40 
81 0.2499999 -1e-07 0.9999999000000001 0.7500000999999999 1e-07 1.0000001 0 2 15 -39 
82 0.2499999 0.2499999 0.9999999000000001 0.7500000999999999 0.2500001 1.0000001 0 2 16 -40 
83 0.7499999000000001 0.2499999 0.2499999 0.7500000999999999 0.7500000999999999 0.2500001 0 2 35 -41 
84 0.7499999000000001 0.7499999000000001 -1.000000000028756e-07 0.7500000999999999 0.7500000999999999 0.2500001 0 2 42 -41 
85 0.7499999000000001 0.2499999 -1e-07 0.7500000999999999 0.7500000999999999 1e-07 0 2 36 -42 
86 0.2499999 0.7499999000000001 -1e-07 0.7500000999999999 0.7500000999999999 1e-07 0 2 20 -42 
87 0.2499999 0.7499999000000001 0.2499999 0.7500000999999999 0.7500000999999999 0.2500001 0 2 19 -41 
88 0.7499999000000001 0.2499999 0.7499999000000001 0.7500000999999999 0.7500000999999999 0.7500000999999999 0 2 38 -43 
89 0.7499999000000001 0.7499999000000001 0.2499999 0.7500000999999999 0.7500000999999999 0.7500000999999999 0 2 41 -43 
90 0.2499999 0.7499999000000001 0.7499999000000001 0.7500000999999999 0.7500000999999999 0.7500000999999999 0 2 22 -43 
91 0.7499999000000001 0.2499999 0.9999999000000001 0.7500000999999999 0.7500000999999999 1.0000001 0 2 40 -44 
92 0.7499999000000001 0.7499999000000001 0.7499999000000001 0.7500000999999999 0.7500000999999999 1.0000001 0 2 43 -44 
93 0.2499999 0.7499999000000001 0.9999999000000001 0.7500000999999999 0.7500000999999999 1.0000001 0 2 24 -44 
94 0.7499999000000001 0.7499999000000001 0.2499999 0.7500000999999999 1.0000001 0.2500001 0 2 41 -45 
95 0.7499999000000001 0.9999999000000001 -1.000000000028756e-07 0.7500000999999999 1.0000001 0.2500001 0 2 46 -45 
96 0.7499999000000001 0.7499999000000001 -1e-07 0.7500000999999999 1.0000001 1e-07 0 2 42 -46 
97 0.2499999 0.9999999000000001 -1e-07 0.7500000999999999 1.0000001 1e-07 0 2 28 -46 
98 0.2499999 0.9999999000000001 0.2499999 0.7500000999999999 1.0000001 0.2500001 0 2 27 -45 
99 0.7499999000000001 0.7499999000000001 0.7499999000000001 0.7500000999999999 1.0000001 0.7500000999999999 0 2 43 -47 
100 0.7499999000000001 0.9999999000000001 0.2499999 0.7500000999999999 1.0000001 0.7500000999999999 0 2 45 -47 
101 0.2499999 0.9999999000000001 0.7499999000000001 0.7500000999999999 1.0000001 0.7500000999999999 0 2 30 -47 
102 0.7499999000000001 0.7499999000000001 0.9999999000000001 0.7500000999999999 1.0000001 1.0000001 0 2 44 -48 
103 0.7499999000000001 0.9999999000000001 0.7499999000000001 0.7500000999999999 1.0000001 1.0000001 0 2 47 -48 
104 0.2499999 0.9999999000000001 0.9999999000000001 0.7500000999999999 1.0000001 1.0000001 0 2 32 -48 
105 0.9999999000000001 -1e-07 -1.000000000028756e-07 1.0000001 1e-07 0.2500001 0 2 49 -50 
106 0.9999999000000001 -1.000000000028756e-07 0.2499999 1.0000001 0.2500001 0.2500001 0 2 50 -51 
107 0.9999999000000001 0.2499999 -1.000000000028756e-07 1.0000001 0.2500001 0.2500001 0 2 52 -51 
108 0.9999999000000001 -1.000000000028756e-07 -1e-07 1.0000001 0.2500001 1e-07 0 2 49 -52 
109 0.7499999000000001 -1e-07 -1e-07 1.0000001 1e-07 1e-07 0 2 33 -49 
110 0.7499999000000001 -1e-07 0.2499999 1.0000001 1e-07 0.2500001 0 2 34 -50 
111 0.7499999000000001 0.2499999 -1e-07 1.0000001 0.2500001 1e-07 0 2 36 -52 
112 0.7499999000000001 0.2499999 0.2499999 1.0000001 0.2500001 0.2500001 0 2 35 -51 
113 0.9999999000000001 -1e-07 0.2499999 1.0000001 1e-07 0.7500000999999999 0 2 50 -53 
114 0.9999999000000001 -1.000000000028756e-07 0.7499999000000001 1.0000001 0.2500001 0.7500000999999999 0 2 53 -54 
115 0.9999999000000001 0.2499999 0.2499999 1.0000001 0.2500001 0.7500000999999999 0 2 51 -54 
116 0.7499999000000001 -1e-07 0.7499999000000001 1.0000001 1e-07 0.7500000999999999 0 2 37 -53 
117 0.7499999000000001 0.2499999 0.7499999000000001 1.0000001 0.2500001 0.7500000999999999 0 2 38 -54 
118 0.9999999000000001 -1e-07 0.7499999000000001 1.0000001 1e-07 1.0000001 0 2 53 -55 
119 0.9999999000000001 -1.000000000028756e-07 0.9999999000000001 1.0000001 0.2500001 1.0000001 0 2 55 -56 
120 0.9999999000000001 0.2499999 0.7499999000000001 1.0000001 0.2500001 1.0000001 0 2 54 -56 
121 0.7499999000000001 -1e-07 0.9999999000000001 1.0000001 1e-07 1.0000001 0 2 39 -55 
122 0.7499999000000001 0.2499999 0.9999999000000001 1.0000001 0.2500001 1.0000001 0 2 40 -56 
123 0.9999999000000001 0.2499999 0.2499999 1.0000001 0.7500000999999999 0.2500001 0 2 51 -57 
124 0.9999999000000001 0.7499999000000001 -1.000000000028756e-07 1.0000001 0.7500000999999999 0.2500001 0 2 58 -57 
125 0.9999999000000001 0.2499999 -1e-07 1.0000001 0.7500000999999999 1e-07 0 2 52 -58 
126 0.7499999000000001 0.7499999000000001 -1e-07 1.0000001 0.7500000999999999 1e-07 0 2 42 -58 
127 0.7499999000000001 0.7499999000000001 0.2499999 1.0000001 0.7500000999999999 0.2500001 0 2 41 -57 
128 0.9999999000000001 0.2499999 0.7499999000000001 1.0000001 0.7500000999999999 0.7500000999999999 0 2 54 -59 
129 0.9999999000000001 0.7499999000000001 0.2499999 1.0000001 0.7500000999999999 0.7500000999999999 0 2 57 -59 
130 0.7499999000000001 0.7499999000000001 0.7499999000000001 1.0000001 0.7500000999999999 0.7500000999999999 0 2 43 -59 
131 0.9999999000000001 0.2499999 0.9999999000000001 1.0000001 0.7500000999999999 1.0000001 0 2 56 -60 
132 0.9999999000000001 0.7499999000000001 0.7499999000000001 1.0000001 0.7500000999999999 1.0000001 0 2 59 -60 
133 0.7499999000000001 0.7499999000000001 0.9999999000000001 1.0000001 0.7500000999999999 1.0000001 0 2 44 -60 
134 0.9999999000000001 0.7499999000000001 0.2499999 1.0000001 1.0000001 0.2500001 0 2 57 -61 
135 0.9999999000000001 0.9999999000000001 -1.000000000028756e-07 1.0000001 1.0000001 0.2500001 0 2 62 -61 
136 0.9999999000000001 0.7499999000000001 -1e-07 1.0000001 1.0000001 1e-07 0 2 58 -62 
137 0.7499999000000001 0.9999999000000001 -1e-07 1.0000001 1.0000001 1e-07 0 2 46 -62 
138 0.7499999000000001 0.9999999000000001 0.2499999 1.0000001 1.0000001 0.2500001 0 2 45 -61 
139 0.9999999000000001 0.7499999000000001 0.7499999000000001 1.0000001 1.0000001 0.7500000999999999 0 2 59 -63 
140 0.9999999000000001 0.9999999000000001 0.2499999 1.0000001 1.0000001 0.7500000999999999 0 2 61 -63 
141 0.7499999000000001 0.9999999000000001 0.7499999000000001 1.0000001 1.0000001 0.7500000999999999 0 2 47 -63 
142 0.9999999000000001 0.7499999000000001 0.9999999000000001 1.0000001 1.0000001 1.0000001 0 2 60 -64 
143 0.9999999000000001 0.9999999000000001 0.7499999000000001 1.0000001 1.0000001 1.0000001 0 2 63 -64 
144 0.7499999000000001 0.9999999000000001 0.9999999000000001 1.0000001 1.0000001 1.0000001 0 2 48 -64 
1 -1e-07 -1.000000000028756e-07 -1.000000000028756e-07 1e-07 0.2500001 0.2500001 1 3 4 -1 4 3 -2 
2 0.2499999 -1.000000000028756e-07 -1.000000000028756e-07 0.2500001 0.2500001 0.2500001 0 4 -5 8 7 -6 
3 -1.000000000028756e-07 -1e-07 -1.000000000028756e-07 0.2500001 1e-07 0.2500001 1 5 4 -9 1 10 -5 
4 -1.000000000028756e-07 0.2499999 -1.000000000028756e-07 0.2500001 0.2500001 0.2500001 0 4 -11 3 12 -7 
5 -1.000000000028756e-07 -1.000000000028756e-07 -1e-07 0.2500001 0.2500001 1e-07 1 7 4 -4 9 8 -11 
6 -1.000000000028756e-07 -1.000000000028756e-07 0.2499999 0.2500001 0.2500001 0.2500001 0 4 -2 10 6 -12 
7 -1e-07 -1.000000000028756e-07 0.2499999 1e-07 0.2500001 0.7500000999999999 1 3 4 -13 2 15 -14 
8 0.2499999 -1.000000000028756e-07 0.2499999 0.2500001 0.2500001 0.7500000999999999 0 4 -16 6 18 -17 
9 -1.000000000028756e-07 -1e-07 0.2499999 0.2500001 1e-07 0.7500000999999999 1 5 4 -10 13 19 -16 
10 -1.000000000028756e-07 0.2499999 0.2499999 0.2500001 0.2500001 0.7500000999999999 0 4 -12 15 20 -18 
11 -1.000000000028756e-07 -1.000000000028756e-07 0.7499999000000001 0.2500001 0.2500001 0.7500000999999999 0 4 -14 19 17 -20 
12 -1e-07 -1.000000000028756e-07 0.7499999000000001 1e-07 0.2500001 1.0000001 1 3 4 -21 14 23 -22 
13 0.2499999 -1.000000000028756e-07 0.7499999000000001 0.2500001 0.2500001 1.0000001 0 4 -24 17 26 -25 
14 -1.000000000028756e-07 -1e-07 0.7499999000000001 0.2500001 1e-07 1.0000001 1 5 4 -19 21 27 -24 
15 -1.000000000028756e-07 0.2499999 0.7499999000000001 0.2500001 0.2500001 1.0000001 0 4 -20 23 28 -26 
16 -1.000000000028756e-07 -1.000000000028756e-07 0.9999999000000001 0.2500001 0.2500001 1.0000001 1 8 4 -22 27 25 -28 
17 -1e-07 0.2499999 -1.000000000028756e-07 1e-07 0.7500000999999999 0.2500001 1 3 4 -3 31 30 -29 
18 0.2499999 0.2499999 -1.000000000028756e-07 0.2500001 0.7500000999999999 0.2500001 0 4 -7 34 33 -32 
19 -1.000000000028756e-07 0.7499999000000001 -1.000000000028756e-07 0.2500001 0.7500000999999999 0.2500001 0 4 -35 30 36 -33 
20 -1.000000000028756e-07 0.2499999 -1e-07 0.2500001 0.7500000999999999 1e-07 1 7 4 -31 11 34 -35 
21 -1.000000000028756e-07 0.2499999 0.2499999 0.2500001 0.7500000999999999 0.2500001 0 4 -29 12 32 -36 
22 -1e-07 0.2499999 0.2499999 1e-07 0.7500000999999999 0.7500000999999999 1 3 4 -15 29 38 -37 
23 0.2499999 0.2499999 0.2499999 0.2500001 0.7500000999999999 0.7500000999999999 0 4 -18 32 40 -39 
24 -1.000000000028756e-07 0.7499999000000001 0.2499999 0.2500001 0.7500000999999999 0.7500000999999999 0 4 -36 38 41 -40 
25 -1.000000000028756e-07 0.2499999 0.7499999000000001 0.2500001 0.7500000999999999 0.7500000999999999 0 4 -37 20 39 -41 
26 -1e-07 0.2499999 0.7499999000000001 1e-07 0.7500000999999999 1.0000001 1 3 4 -23 37 43 -42 
27 0.2499999 0.2499999 0.7499999000000001 0.2500001 0.7500000999999999 1.0000001 0 4 -26 39 45 -44 
28 -1.000000000028756e-07 0.7499999000000001 0.7499999000000001 0.2500001 0.7500000999999999 1.0000001 0 4 -41 43 46 -45 
29 -1.000000000028756e-07 0.2499999 0.9999999000000001 0.2500001 0.7500000999999999 1.0000001 1 8 4 -42 28 44 -46 
30 -1e-07 0.7499999000000001 -1.000000000028756e-07 1e-07 1.0000001 0.2500001 1 3 4 -30 49 48 -47 
31 0.2499999 0.7499999000000001 -1.000000000028756e-07 0.2500001 1.0000001 0.2500001 0 4 -33 52 51 -50 
32 -1.000000000028756e-07 0.9999999000000001 -1.000000000028756e-07 0.2500001 1.0000001 0.2500001 1 6 4 -53 48 54 -51 
33 -1.000000000028756e-07 0.7499999000000001 -1e-07 0.2500001 1.0000001 1e-07 1 7 4 -49 35 52 -53 
34 -1.000000000028756e-07 0.7499999000000001 0.2499999 0.2500001 1.0000001 0.2500001 0 4 -47 36 50 -54 
35 -1e-07 0.7499999000000001 0.2499999 1e-07 1.0000001 0.7500000999999999 1 3 4 -38 47 56 -55 
36 0.2499999 0.7499999000000001 0.2499999 0.2500001 1.0000001 0.7500000999999999 0 4 -40 50 58 -57 
37 -1.000000000028756e-07 0.9999999000000001 0.2499999 0.2500001 1.0000001 0.7500000999999999 1 6 4 -54 56 59 -58 
38 -1.000000000028756e-07 0.7499999000000001 0.7499999000000001 0.2500001 1.0000001 0.7500000999999999 0 4 -55 41 57 -59 
39 -1e-07 0.7499999000000001 0.7499999000000001 1e-07 1.0000001 1.0000001 1 3 4 -43 55 61 -60 
40 0.2499999 0.7499999000000001 0.7499999000000001 0.2500001 1.0000001 1.0000001 0 4 -45 57 63 -62 
41 -1.000000000028756e-07 0.9999999000000001 0.7499999000000001 0.2500001 1.0000001 1.0000001 1 6 4 -59 61 64 -63 
42 -1.000000000028756e-07 0.7499999000000001 0.9999999000000001 0.2500001 1.0000001 1.0000001 1 8 4 -60 46 62 -64 
43 0.7499999000000001 -1.000000000028756e-07 -1.000000000028756e-07 0.7500000999999999 0.2500001 0.2500001 0 4 -65 68 67 -66 
44 0.2499999 -1e-07 -1.000000000028756e-07 0.7500000999999999 1e-07 0.2500001 1 5 4 -69 5 70 -65 
45 0.2499999 0.2499999 -1.000000000028756e-07 0.7500000999999999 0.2500001 0.2500001 0 4 -71 7 72 -67 
46 0.2499999 -1.000000000028756e-07 -1e-07 0.7500000999999999 0.2500001 1e-07 1 7 4 -8 69 68 -71 
47 0.2499999 -1.000000000028756e-07 0.2499999 0.7500000999999999 0.2500001 0.2500001 0 4 -6 70 66 -72 
48 0.7499999000000001 -1.000000000028756e-07 0.2499999 0.7500000999999999 0.2500001 0.7500000999999999 0 4 -73 66 75 -74 
49 0.2499999 -1e-07 0.2499999 0.7500000999999999 1e-07 0.7500000999999999 1 5 4 -70 16 76 -73 
50 0.2499999 0.2499999 0.2499999 0.7500000999999999 0.2500001 0.7500000999999999 0 4 -72 18 77 -75 
51 0.2499999 -1.000000000028756e-07 0.7499999000000001 0.7500000999999999 0.2500001 0.7500000999999999 0 4 -17 76 74 -77 
52 0.7499999000000001 -1.000000000028756e-07 0.7499999000000001 0.7500000999999999 0.2500001 1.0000001 0 4 -78 74 80 -79 
53 0.2499999 -1e-07 0.7499999000000001 0.7500000999999999 1e-07 1.0000001 1 5 4 -76 24 81 -78 
54 0.2499999 0.2499999 0.7499999000000001 0.7500000999999999 0.2500001 1.0000001 0 4 -77 26 82 -80 
55 0.2499999 -1.000000000028756e-07 0.9999999000000001 0.7500000999999999 0.2500001 1.0000001 1 8 4 -25 81 79 -82 
56 0.7499999000000001 0.2499999 -1.000000000028756e-07 0.7500000999999999 0.7500000999999999 0.2500001 0 4 -67 85 84 -83 
57 0.2499999 0.7499999000000001 -1.000000000028756e-07 0.7500000999999999 0.7500000999999999 0.2500001 0 4 -86 33 87 -84 
58 0.2499999 0.2499999 -1e-07 0.7500000999999999 0.7500000999999999 1e-07 1 7 4 -34 71 85 -86 
59 0.2499999 0.2499999 0.2499999 0.7500000999999999 0.7500000999999999 0.2500001 0 4 -32 72 83 -87 
60 0.7499999000000001 0.2499999 0.2499999 0.7500000999999999 0.7500000999999999 0.7500000999999999 0 4 -75 83 89 -88 
61 0.2499999 0.7499999000000001 0.2499999 0.7500000999999999 0.7500000999999999 0.7500000999999999 0 4 -87 40 90 -89 
62 0.2499999 0.2499999 0.7499999000000001 0.7500000999999999 0.7500000999999999 0.7500000999999999 0 4 -39 77 88 -90 
63 0.7499999000000001 0.2499999 0.7499999000000001 0.7500000999999999 0.7500000999999999 1.0000001 0 4 -80 88 92 -91 
64 0.2499999 0.7499999000000001 0.7499999000000001 0.7500000999999999 0.7500000999999999 1.0000001 0 4 -90 45 93 -92 
65 0.2499999 0.2499999 0.9999999000000001 0.7500000999999999 0.7500000999999999 1.0000001 1 8 4 -44 82 91 -93 
66 0.7499999000000001 0.7499999000000001 -1.000000000028756e-07 0.7500000999999999 1.0000001 0.2500001 0 4 -84 96 95 -94 
67 0.2499999 0.9999999000000001 -1.000000000028756e-07 0.7500000999999999 1.0000001 0.2500001 1 6 4 -97 51 98 -95 
68 0.2499999 0.7499999000000001 -1e-07 0.7500000999999999 1.0000001 1e-07 1 7 4 -52 86 96 -97 
69 0.2499999 0.7499999000000001 0.2499999 0.7500000999999999 1.0000001 0.2500001 0 4 -50 87 94 -98 
70 0.7499999000000001 0.7499999000000001 0.2499999 0.7500000999999999 1.0000001 0.7500000999999999 0 4 -89 94 100 -99 
71 0.2499999 0.9999999000000001 0.2499999 0.7500000999999999 1.0000001 0.7500000999999999 1 6 4 -98 58 101 -100 
72 0.2499999 0.7499999000000001 0.7499999000000001 0.7500000999999999 1.0000001 0.7500000999999999 0 4 -57 90 99 -101 
73 0.7499999000000001 0.7499999000000001 0.7499999000000001 0.7500000999999999 1.0000001 1.0000001 0 4 -92 99 103 -102 
74 0.2499999 0.9999999000000001 0.7499999000000001 0.7500000999999999 1.0000001 1.0000001 1 6 4 -101 63 104 -103 
75 0.2499999 0.7499999000000001 0.9999999000000001 0.7500000999999999 1.0000001 1.0000001 1 8 4 -62 93 102 -104 
76 0.9999999000000001 -1.000000000028756e-07 -1.000000000028756e-07 1.0000001 0.2500001 0.2500001 1 4 4 -105 108 107 -106 
77 0.7499999000000001 -1e-07 -1.000000000028756e-07 1.0000001 1e-07 0.2500001 1 5 4 -109 65 110 -105 
78 0.7499999000000001 0.2499999 -1.000000000028756e-07 1.0000001 0.2500001 0.2500001 0 4 -111 67 112 -107 
79 0.7499999000000001 -1.000000000028756e-07 -1e-07 1.0000001 0.2500001 1e-07 1 7 4 -68 109 108 -111 
80 0.7499999000000001 -1.000000000028756e-07 0.2499999 1.0000001 0.2500001 0.2500001 0 4 -66 110 106 -112 
81 0.9999999000000001 -1.000000000028756e-07 0.2499999 1.0000001 0.2500001 0.7500000999999999 1 4 4 -113 106 115 -114 
82 0.7499999000000001 -1e-07 0.2499999 1.0000001 1e-07 0.7500000999999999 1 5 4 -110 73 116 -113 
83 0.7499999000000001 0.2499999 0.2499999 1.0000001 0.2500001 0.7500000999999999 0 4 -112 75 117 -115 
84 0.7499999000000001 -1.000000000028756e-07 0.7499999000000001 1.0000001 0.2500001 0.7500000999999999 0 4 -74 116 114 -117 
85 0.9999999000000001 -1.000000000028756e-07 0.7499999000000001 1.0000001 0.2500001 1.0000001 1 4 4 -118 114 120 -119 
86 0.7499999000000001 -1e-07 0.7499999000000001 1.0000001 1e-07 1.0000001 1 5 4 -116 78 121 -118 
87 0.7499999000000001 0.2499999 0.7499999000000001 1.0000001 0.2500001 1.0000001 0 4 -117 80 122 -120 
88 0.7499999000000001 -1.000000000028756e-07 0.9999999000000001 1.0000001 0.2500001 1.0000001 1 8 4 -79 121 119 -122 
89 0.9999999000000001 0.2499999 -1.000000000028756e-07 1.0000001 0.7500000999999999 0.2500001 1 4 4 -107 125 124 -123 
90 0.7499999000000001 0.7499999000000001 -1.000000000028756e-07 1.0000001 0.7500000999999999 0.2500001 0 4 -126 84 127 -124 
91 0.7499999000000001 0.2499999 -1e-07 1.0000001 0.7500000999999999 1e-07 1 7 4 -85 111 125 -126 
92 0.7499999000000001 0.2499999 0.2499999 1.0000001 0.7500000999999999 0.2500001 0 4 -83 112 123 -127 
93 0.9999999000000001 0.2499999 0.2499999 1.0000001 0.7500000999999999 0.7500000999999999 1 4 4 -115 123 129 -128 
94 0.7499999000000001 0.7499999000000001 0.2499999 1.0000001 0.7500000999999999 0.7500000999999999 0 4 -127 89 130 -129 
95 0.7499999000000001 0.2499999 0.7499999000000001 1.0000001 0.7500000999999999 0.7500000999999999 0 4 -88 117 128 -130 
96 0.9999999000000001 0.2499999 0.7499999000000001 1.0000001 0.7500000999999999 1.0000001 1 4 4 -120 128 132 -131 
97 0.7499999000000001 0.7499999000000001 0.7499999000000001 1.0000001 0.7500000999999999 1.0000001 0 4 -130 92 133 -132 
98 0.7499999000000001 0.2499999 0.9999999000000001 1.0000001 0.7500000999999999 1.0000001 1 8 4 -91 122 131 -133 
99 0.9999999000000001 0.7499999000000001 -1.000000000028756e-07 1.0000001 1.0000001 0.2500001 1 4 4 -124 136 135 -134 
100 0.7499999000000001 0.9999999000000001 -1.000000000028756e-07 1.0000001 1.0000001 0.2500001 1 6 4 -137 95 138 -135 
101 0.7499999000000001 0.7499999000000001 -1e-07 1.0000001 1.0000001 1e-07 1 7 4 -96 126 136 -137 
102 0.7499999000000001 0.7499999000000001 0.2499999 1.0000001 1.0000001 0.2500001 0 4 -94 127 134 -138 
103 0.9999999000000001 0.7499999000000001 0.2499999 1.0000001 1.0000001 0.7500000999999999 1 4 4 -129 134 140 -139 
104 0.7499999000000001 0.9999999000000001 0.2499999 1.0000001 1.0000001 0.7500000999999999 1 6 4 -138 100 141 -140 
105 0.7499999000000001 0.7499999000000001 0.7499999000000001 1.0000001 1.0000001 0.7500000999999999 0 4 -99 130 139 -141 
106 0.9999999000000001 0.7499999000000001 0.7499999000000001 1.0000001 1.0000001 1.0000001 1 4 4 -132 139 143 -142 
107 0.7499999000000001 0.9999999000000001 0.7499999000000001 1.0000001 1.0000001 1.0000001 1 6 4 -141 103 144 -143 
108 0.7499999000000001 0.7499999000000001 0.9999999000000001 1.0000001 1.0000001 1.0000001 1 8 4 -102 133 142 -144 
1 -1.000000000028756e-07 -1.000000000028756e-07 -1.000000000028756e-07 0.2500001 0.2500001 0.2500001 1 1 6 -1 2 -3 4 -5 6 
2 -1.000000000028756e-07 -1.000000000028756e-07 0.2499999 0.2500001 0.2500001 0.7500000999999999 1 1 6 -7 8 -9 10 -6 11 
3 -1.000000000028756e-07 -1.000000000028756e-07 0.7499999000000001 0.2500001 0.2500001 1.0000001 1 1 6 -12 13 -14 15 -11 16 
4 -1.000000000028756e-07 0.2499999 -1.000000000028756e-07 0.2500001 0.7500000999999999 0.2500001 1 1 6 -17 18 -4 19 -20 21 
5 -1.000000000028756e-07 0.2499999 0.2499999 0.2500001 0.7500000999999999 0.7500000999999999 1 1 6 -22 23 -10 24 -21 25 
6 -1.000000000028756e-07 0.2499999 0.7499999000000001 0.2500001 0.7500000999999999 1.0000001 1 1 6 -26 27 -15 28 -25 29 
7 -1.000000000028756e-07 0.7499999000000001 -1.000000000028756e-07 0.2500001 1.0000001 0.2500001 1 1 6 -30 31 -19 32 -33 34 
8 -1.000000000028756e-07 0.7499999000000001 0.2499999 0.2500001 1.0000001 0.7500000999999999 1 1 6 -35 36 -24 37 -34 38 
9 -1.000000000028756e-07 0.7499999000000001 0.7499999000000001 0.2500001 1.0000001 1.0000001 1 1 6 -39 40 -28 41 -38 42 
10 0.2499999 -1.000000000028756e-07 -1.000000000028756e-07 0.7500000999999999 0.2500001 0.2500001 1 1 6 -2 43 -44 45 -46 47 
11 0.2499999 -1.000000000028756e-07 0.2499999 0.7500000999999999 0.2500001 0.7500000999999999 1 1 6 -8 48 -49 50 -47 51 
12 0.2499999 -1.000000000028756e-07 0.7499999000000001 0.7500000999999999 0.2500001 1.0000001 1 1 6 -13 52 -53 54 -51 55 
13 0.2499999 0.2499999 -1.000000000028756e-07 0.7500000999999999 0.7500000999999999 0.2500001 1 1 6 -18 56 -45 57 -58 59 
14 0.2499999 0.2499999 0.2499999 0.7500000999999999 0.7500000999999999 0.7500000999999999 1 2 6 -23 60 -50 61 -59 62 
15 0.2499999 0.2499999 0.7499999000000001 0.7500000999999999 0.7500000999999999 1.0000001 1 1 6 -27 63 -54 64 -62 65 
16 0.2499999 0.7499999000000001 -1.000000000028756e-07 0.7500000999999999 1.0000001 0.2500001 1 1 6 -31 66 -57 67 -68 69 
17 0.2499999 0.7499999000000001 0.2499999 0.7500000999999999 1.0000001 0.7500000999999999 1 1 6 -36 70 -61 71 -69 72 
18 0.2499999 0.7499999000000001 0.7499999000000001 0.7500000999999999 1.0000001 1.0000001 1 1 6 -40 73 -64 74 -72 75 
19 0.7499999000000001 -1.000000000028756e-07 -1.000000000028756e-07 1.0000001 0.2500001 0.2500001 1 1 6 -43 76 -77 78 -79 80 
20 0.7499999000000001 -1.000000000028756e-07 0.2499999 1.0000001 0.2500001 0.7500000999999999 1 1 6 -48 81 -82 83 -80 84 
21 0.7499999000000001 -1.000000000028756e-07 0.7499999000000001 1.0000001 0.2500001 1.0000001 1 1 6 -52 85 -86 87 -84 88 
22 0.7499999000000001 0.2499999 -1.000000000028756e-07 1.0000001 0.7500000999999999 0.2500001 1 1 6 -56 89 -78 90 -91 92 
23 0.7499999000000001 0.2499999 0.2499999 1.0000001 0.7500000999999999 0.7500000999999999 1 1 6 -60 93 -83 94 -92 95 
24 0.7499999000000001 0.2499999 0.7499999000000001 1.0000001 0.7500000999999999 1.0000001 1 1 6 -63 96 -87 97 -95 98 
25 0.7499999000000001 0.7499999000000001 -1.000000000028756e-07 1.0000001 1.0000001 0.2500001 1 1 6 -66 99 -90 100 -101 102 
26 0.7499999000000001 0.7499999000000001 0.2499999 1.0000001 1.0000001 0.7500000999999999 1 1 6 -70 103 -94 104 -102 105 
27 0.7499999000000001 0.7499999000000001 0.7499999000000001 1.0000001 1.0000001 1.0000001 1 1 6 -73 106 -97 107 -105 108 
$EndEntities
$Nodes
199 125 1 125
0 1 0 1
1
0 0 0
0 2 0 1
2
0 0 0.25
0 3 0 1
3
0 0.25 0.25
0 4 0 1
4
0 0.25 0
0 5 0 1
5
0.25 0 0
0 6 0 1
6
0.25 0 0.25
0 7 0 1
7
0.25 0.25 0.25
0 8 0 1
8
0.25 0.25 0
0 9 0 1
9
0 0 0.75
0 10 0 1
10
0 0.25 0.75
0 11 0 1
11
0.25 0 0.75
0 12 0 1
12
0.25 0.25 0.75
0 13 0 1
13
0 0 1
0 14 0 1
14
0 0.25 1
0 15 0 1
15
0.25 0 1
0 16 0 1
16
0.25 0.25 1
0 17 0 1
17
0 0.75 0.25
0 18 0 1
18
0 0.75 0
0 19 0 1
19
0.25 0.75 0.25
0 20 0 1
20
0.25 0.75 0
0 21 0 1
21
0 0.75 0.75
0 22 0 1
22
0.25 0.75 0.75
0 23 0 1
23
0 0.75 1
0 24 0 1
24
0.25 0.75 1
0 25 0 1
25
0 1 0.25
0 26 0 1
26
0 1 0
0 27 0 1
27
0.25 1 0.25
0 28 0 1
28
0.25 1 0
0 29 0 1
29
0 1 0.75
0 30 0 1
30
0.25 1 0.75
0 31 0 1
31
0 1 1
0 32 0 1
32
0.25 1 1
0 33 0 1
33
0.75 0 0
0 34 0 1
34
0.75 0 0.25
0 35 0 1
35
0.75 0.25 0.25
0 36 0 1
36
0.75 0.25 0
0 37 0 1
37
0.75 0 0.75
0 38 0 1
38
0.75 0.25 0.75
0 39 0 1
39
0.75 0 1
0 40 0 1
40
0.75 0.25 1
0 41 0 1
41
0.75 0.75 0.25
0 42 0 1
42
0.75 0.75 0
0 43 0 1
43
0.75 0.75 0.75
0 44 0 1
44
0.75 0.75 1
0 45 0 1
45
0.75 1 0.25
0 46 0 1
46
0.75 1 0
0 47 0 1
47
0.75 1 0.75
0 48 0 1
48
0.75 1 1
0 49 0 1
49
1 0 0
0 50 0 1
50
1 0 0.25
0 51 0 1
51
1 0.25 0.25
0 52 0 1
52
1 0.25 0
0 53 0 1
53
1 0 0.75
0 54 0 1
54
1 0.25 0.75
0 55 0 1
55
1 0 1
0 56 0 1
56
1 0.25 1
0 57 0 1
57
1 0.75 0.25
0 58 0 1
58
1 0.75 0
0 59 0 1
59
1 0.75 0.75
0 60 0 1
60
1 0.75 1
0 61 0 1
61
1 1 0.25
0 62 0 1
62
1 1 0
0 63 0 1
63
1 1 0.75
0 64 0 1
64
1 1 1
1 13 0 1
65
0 0 0.5
1 15 0 1
66
0 0.25 0.5
1 16 0 1
67
0.25 0 0.5
1 18 0 1
68
0.25 0.25 0.5
1 29 0 1
69
0 0.5 0.25
1 31 0 1
70
0 0.5 0
1 32 0 1
71
0.25 0.5 0.25
1 34 0 1
72
0.25 0.5 0
1 37 0 1
73
0 0.5 0.75
1 38 0 1
74
0 0.75 0.5
1 39 0 1
75
0.25 0.5 0.75
1 40 0 1
76
0.25 0.75 0.5
1 42 0 1
77
0 0.5 1
1 44 0 1
78
0.25 0.5 1
1 56 0 1
79
0 1 0.5
1 58 0 1
80
0.25 1 0.5
1 69 0 1
81
0.5 0 0
1 70 0 1
82
0.5 0 0.25
1 71 0 1
83
0.5 0.25 0
1 72 0 1
84
0.5 0.25 0.25
1 73 0 1
85
0.75 0 0.5
1 75 0 1
86
0.75 0.25 0.5
1 76 0 1
87
0.5 0 0.75
1 77 0 1
88
0.5 0.25 0.75
1 81 0 1
89
0.5 0 1
1 82 0 1
90
0.5 0.25 1
1 83 0 1
91
0.75 0.5 0.25
1 85 0 1
92
0.75 0.5 0
1 86 0 1
93
0.5 0.75 0
1 87 0 1
94
0.5 0.75 0.25
1 88 0 1
95
0.75 0.5 0.75
1 89 0 1
96
0.75 0.75 0.5
1 90 0 1
97
0.5 0.75 0.75
1 91 0 1
98
0.75 0.5 1
1 93 0 1
99
0.5 0.75 1
1 97 0 1
100
0.5 1 0
1 98 0 1
101
0.5 1 0.25
1 100 0 1
102
0.75 1 0.5
1 101 0 1
103
0.5 1 0.75
1 104 0 1
104
0.5 1 1
1 113 0 1
105
1 0 0.5
1 115 0 1
106
1 0.25 0.5
1 123 0 1
107
1 0.5 0.25
1 125 0 1
108
1 0.5 0
1 128 0 1
109
1 0.5 0.75
1 129 0 1
110
1 0.75 0.5
1 131 0 1
111
1 0.5 1
1 140 0 1
112
1 1 0.5
2 1 0 0
2 3 0 0
2 5 0 0
2 7 0 0
2 9 0 0
2 12 0 0
2 14 0 0
2 16 0 0
2 17 0 0
2 20 0 0
2 22 0 1
113
0 0.5 0.5
2 23 0 1
114
0.25 0.5 0.5
2 26 0 0
2 29 0 0
2 30 0 0
2 32 0 0
2 33 0 0
2 35 0 0
2 37 0 0
2 39 0 0
2 41 0 0
2 42 0 0
2 44 0 0
2 46 0 0
2 49 0 1
115
0.5 0 0.5
2 50 0 1
116
0.5 0.25 0.5
2 53 0 0
2 55 0 0
2 58 0 1
117
0.5 0.5 0
2 59 0 1
118
0.5 0.5 0.25
2 60 0 1
119
0.75 0.5 0.5
2 61 0 1
120
0.5 0.75 0.5
2 62 0 1
121
0.5 0.5 0.75
2 65 0 1
122
0.5 0.5 1
2 67 0 0
2 68 0 0
2 71 0 1
123
0.5 1 0.5
2 74 0 0
2 75 0 0
2 76 0 0
2 77 0 0
2 79 0 0
2 81 0 0
2 82 0 0
2 85 0 0
2 86 0 0
2 88 0 0
2 89 0 0
2 91 0 0
2 93 0 1
124
1 0.5 0.5
2 96 0 0
2 98 0 0
2 99 0 0
2 100 0 0
2 101 0 0
2 103 0 0
2 104 0 0
2 106 0 0
2 107 0 0
2 108 0 0
3 1 0 0
3 2 0 0
3 3 0 0
3 4 0 0
3 5 0 0
3 6 0 0
3 7 0 0
3 8 0 0
3 9 0 0
3 10 0 0
3 11 0 0
3 12 0 0
3 13 0 0
3 14 0 1
125
0.5 0.5 0.5
3 15 0 0
3 16 0 0
3 17 0 0
3 18 0 0
3 19 0 0
3 20 0 0
3 21 0 0
3 22 0 0
3 23 0 0
3 24 0 0
3 25 0 0
3 26 0 0
3 27 0 0
$EndNodes
$Elements
82 161 1 161
0 1 15 1
1 1 
2 1 3 1
2 1 2 3 4 
2 3 3 1
3 1 5 6 2 
2 5 3 1
4 1 4 8 5 
2 7 3 2
5 2 65 66 3 
6 65 9 10 66 
2 9 3 2
7 2 6 67 65 
8 65 67 11 9 
2 12 3 1
9 9 13 14 10 
2 14 3 1
10 9 11 15 13 
2 16 3 1
11 13 15 16 14 
2 17 3 2
12 4 3 69 70 
13 70 69 17 18 
2 20 3 2
14 4 70 72 8 
15 70 18 20 72 
2 22 3 4
16 3 66 113 69 
17 69 113 74 17 
18 66 10 73 113 
19 113 73 21 74 
2 26 3 2
20 10 14 77 73 
21 73 77 23 21 
2 29 3 2
22 14 16 78 77 
23 77 78 24 23 
2 30 3 1
24 18 17 25 26 
2 32 3 1
25 26 25 27 28 
2 33 3 1
26 18 26 28 20 
2 35 3 2
27 17 74 79 25 
28 74 21 29 79 
2 37 3 2
29 25 79 80 27 
30 79 29 30 80 
2 39 3 1
31 21 23 31 29 
2 41 3 1
32 29 31 32 30 
2 42 3 1
33 23 24 32 31 
2 44 3 2
34 5 81 82 6 
35 81 33 34 82 
2 46 3 2
36 5 8 83 81 
37 81 83 36 33 
2 49 3 4
38 6 82 115 67 
39 67 115 87 11 
40 82 34 85 115 
41 115 85 37 87 
2 53 3 2
42 11 87 89 15 
43 87 37 39 89 
2 55 3 2
44 15 89 90 16 
45 89 39 40 90 
2 58 3 4
46 8 72 117 83 
47 83 117 92 36 
48 72 20 93 117 
49 117 93 42 92 
2 65 3 4
50 16 90 122 78 
51 90 40 98 122 
52 78 122 99 24 
53 122 98 44 99 
2 67 3 2
54 28 27 101 100 
55 100 101 45 46 
2 68 3 2
56 20 28 100 93 
57 93 100 46 42 
2 71 3 4
58 27 80 123 101 
59 80 30 103 123 
60 101 123 102 45 
61 123 103 47 102 
2 74 3 2
62 30 32 104 103 
63 103 104 48 47 
2 75 3 2
64 24 99 104 32 
65 99 44 48 104 
2 76 3 1
66 49 52 51 50 
2 77 3 1
67 33 49 50 34 
2 79 3 1
68 33 36 52 49 
2 81 3 2
69 50 51 106 105 
70 105 106 54 53 
2 82 3 2
71 34 50 105 85 
72 85 105 53 37 
2 85 3 1
73 53 54 56 55 
2 86 3 1
74 37 53 55 39 
2 88 3 1
75 39 55 56 40 
2 89 3 2
76 52 108 107 51 
77 108 58 57 107 
2 91 3 2
78 36 92 108 52 
79 92 42 58 108 
2 93 3 4
80 51 107 124 106 
81 107 57 110 124 
82 106 124 109 54 
83 124 110 59 109 
2 96 3 2
84 54 109 111 56 
85 109 59 60 111 
2 98 3 2
86 40 56 111 98 
87 98 111 60 44 
2 99 3 1
88 58 62 61 57 
2 100 3 1
89 46 45 61 62 
2 101 3 1
90 42 46 62 58 
2 103 3 2
91 57 61 112 110 
92 110 112 63 59 
2 104 3 2
93 45 102 112 61 
94 102 47 63 112 
2 106 3 1
95 59 63 64 60 
2 107 3 1
96 47 48 64 63 
2 108 3 1
97 44 60 64 48 
3 1 5 1
98 3 2 1 4 7 6 5 8 
3 2 5 2
99 66 65 2 3 68 67 6 7 
100 10 9 65 66 12 11 67 68 
3 3 5 1
101 14 13 9 10 16 15 11 12 
3 4 5 2
102 69 3 4 70 71 7 8 72 
103 17 69 70 18 19 71 72 20 
3 5 5 4
104 113 66 3 69 114 68 7 71 
105 74 113 69 17 76 114 71 19 
106 73 10 66 113 75 12 68 114 
107 21 73 113 74 22 75 114 76 
3 6 5 2
108 77 14 10 73 78 16 12 75 
109 23 77 73 21 24 78 75 22 
3 7 5 1
110 25 17 18 26 27 19 20 28 
3 8 5 2
111 79 74 17 25 80 76 19 27 
112 29 21 74 79 30 22 76 80 
3 9 5 1
113 31 23 21 29 32 24 22 30 
3 10 5 2
114 7 6 5 8 84 82 81 83 
115 84 82 81 83 35 34 33 36 
3 11 5 4
116 68 67 6 7 116 115 82 84 
117 116 115 82 84 86 85 34 35 
118 12 11 67 68 88 87 115 116 
119 88 87 115 116 38 37 85 86 
3 12 5 2
120 16 15 11 12 90 89 87 88 
121 90 89 87 88 40 39 37 38 
3 13 5 4
122 71 7 8 72 118 84 83 117 
123 118 84 83 117 91 35 36 92 
124 19 71 72 20 94 118 117 93 
125 94 118 117 93 41 91 92 42 
3 14 5 8
126 114 68 7 71 125 116 84 118 
127 125 116 84 118 119 86 35 91 
128 76 114 71 19 120 125 118 94 
129 120 125 118 94 96 119 91 41 
130 75 12 68 114 121 88 116 125 
131 121 88 116 125 95 38 86 119 
132 22 75 114 76 97 121 125 120 
133 97 121 125 120 43 95 119 96 
3 15 5 4
134 78 16 12 75 122 90 88 121 
135 122 90 88 121 98 40 38 95 
136 24 78 75 22 99 122 121 97 
137 99 122 121 97 44 98 95 43 
3 16 5 2
138 27 19 20 28 101 94 93 100 
139 101 94 93 100 45 41 42 46 
3 17 5 4
140 80 76 19 27 123 120 94 101 
141 123 120 94 101 102 96 41 45 
142 30 22 76 80 103 97 120 123 
143 103 97 120 123 47 43 96 102 
3 18 5 2
144 32 24 22 30 104 99 97 103 
145 104 99 97 103 48 44 43 47 
3 19 5 1
146 35 34 33 36 51 50 49 52 
3 20 5 2
147 86 85 34 35 106 105 50 51 
148 38 37 85 86 54 53 105 106 
3 21 5 1
149 40 39 37 38 56 55 53 54 
3 22 5 2
150 91 35 36 92 107 51 52 108 
151 41 91 92 42 57 107 108 58 
3 23 5 4
152 119 86 35 91 124 106 51 107 
153 96 119 91 41 110 124 107 57 
154 95 38 86 119 109 54 106 124 
155 43 95 119 96 59 109 124 110 
3 24 5 2
156 98 40 38 95 111 56 54 109 
157 44 98 95 43 60 111 109 59 
3 25 5 1
158 45 41 42 46 61 57 58 62 
3 26 5 2
159 102 96 41 45 112 110 57 61 
160 47 43 96 102 63 59 110 112 
3 27 5 1
161 48 44 43 47 64 60 59 63 
$EndElements
$Periodic
127
0 13 1
16 1 0 0 0 0 1 0 0 0 0 1 1 0 0 0 1
1
13 1
0 14 4
16 1 0 0 0 0 1 0 0 0 0 1 1 0 0 0 1
1
14 4
0 15 5
16 1 0 0 0 0 1 0 0 0 0 1 1 0 0 0 1
1
15 5
0 16 8
16 1 0 0 0 0 1 0 0 0 0 1 1 0 0 0 1
1
16 8
0 23 18
16 1 0 0 0 0 1 0 0 0 0 1 1 0 0 0 1
1
23 18
0 24 20
16 1 0 0 0 0 1 0 0 0 0 1 1 0 0 0 1
1
24 20
0 25 2
16 1 0 0 0 0 1 0 1 0 0 1 0 0 0 0 1
1
25 2
0 26 1
16 1 0 0 0 0 1 0 1 0 0 1 0 0 0 0 1
1
26 1
0 27 6
16 1 0 0 0 0 1 0 1 0 0 1 0 0 0 0 1
1
27 6
0 28 5
16 1 0 0 0 0 1 0 1 0 0 1 0 0 0 0 1
1
28 5
0 29 9
16 1 0 0 0 0 1 0 1 0 0 1 0 0 0 0 1
1
29 9
0 30 11
16 1 0 0 0 0 1 0 1 0 0 1 0 0 0 0 1
1
30 11
0 31 26
16 1 0 0 0 0 1 0 0 0 0 1 1 0 0 0 1
1
31 26
0 32 28
16 1 0 0 0 0 1 0 0 0 0 1 1 0 0 0 1
1
32 28
0 39 33
16 1 0 0 0 0 1 0 0 0 0 1 1 0 0 0 1
1
39 33
0 40 36
16 1 0 0 0 0 1 0 0 0 0 1 1 0 0 0 1
1
40 36
0 44 42
16 1 0 0 0 0 1 0 0 0 0 1 1 0 0 0 1
1
44 42
0 45 34
16 1 0 0 0 0 1 0 1 0 0 1 0 0 0 0 1
1
45 34
0 46 33
16 1 0 0 0 0 1 0 1 0 0 1 0 0 0 0 1
1
46 33
0 47 37
16 1 0 0 0 0 1 0 1 0 0 1 0 0 0 0 1
1
47 37
0 48 46
16 1 0 0 0 0 1 0 0 0 0 1 1 0 0 0 1
1
48 46
0 49 1
16 1 0 0 1 0 1 0 0 0 0 1 0 0 0 0 1
1
49 1
0 50 2
16 1 0 0 1 0 1 0 0 0 0 1 0 0 0 0 1
1
50 2
0 51 3
16 1 0 0 1 0 1 0 0 0 0 1 0 0 0 0 1
1
51 3
0 52 4
16 1 0 0 1 0 1 0 0 0 0 1 0 0 0 0 1
1
52 4
0 53 9
16 1 0 0 1 0 1 0 0 0 0 1 0 0 0 0 1
1
53 9
0 54 10
16 1 0 0 1 0 1 0 0 0 0 1 0 0 0 0 1
1
54 10
0 55 49
16 1 0 0 0 0 1 0 0 0 0 1 1 0 0 0 1
1
55 49
0 56 52
16 1 0 0 0 0 1 0 0 0 0 1 1 0 0 0 1
1
56 52
0 57 17
16 1 0 0 1 0 1 0 0 0 0 1 0 0 0 0 1
1
57 17
0 58 18
16 1 0 0 1 0 1 0 0 0 0 1 0 0 0 0 1
1
58 18
0 59 21
16 1 0 0 1 0 1 0 0 0 0 1 0 0 0 0 1
1
59 21
0 60 58
16 1 0 0 0 0 1 0 0 0 0 1 1 0 0 0 1
1
60 58
0 61 50
16 1 0 0 0 0 1 0 1 0 0 1 0 0 0 0 1
1
61 50
0 62 49
16 1 0 0 0 0 1 0 1 0 0 1 0 0 0 0 1
1
62 49
0 63 53
16 1 0 0 0 0 1 0 1 0 0 1 0 0 0 0 1
1
63 53
0 64 62
16 1 0 0 0 0 1 0 0 0 0 1 1 0 0 0 1
1
64 62
1 22 4
16 1 0 0 0 0 1 0 0 0 0 1 1 0 0 0 1
2
13 1
14 4
1 25 8
16 1 0 0 0 0 1 0 0 0 0 1 1 0 0 0 1
2
15 5
16 8
1 27 9
16 1 0 0 0 0 1 0 0 0 0 1 1 0 0 0 1
2
13 1
15 5
1 28 11
16 1 0 0 0 0 1 0 0 0 0 1 1 0 0 0 1
2
14 4
16 8
1 42 31
16 1 0 0 0 0 1 0 0 0 0 1 1 0 0 0 1
3
14 4
23 18
77 70
1 44 34
16 1 0 0 0 0 1 0 0 0 0 1 1 0 0 0 1
3
16 8
24 20
78 72
1 46 35
16 1 0 0 0 0 1 0 0 0 0 1 1 0 0 0 1
2
23 18
24 20
1 48 1
16 1 0 0 0 0 1 0 1 0 0 1 0 0 0 0 1
2
25 2
26 1
1 51 5
16 1 0 0 0 0 1 0 1 0 0 1 0 0 0 0 1
2
27 6
28 5
1 53 9
16 1 0 0 0 0 1 0 1 0 0 1 0 0 0 0 1
2
26 1
28 5
1 54 10
16 1 0 0 0 0 1 0 1 0 0 1 0 0 0 0 1
2
25 2
27 6
1 56 13
16 1 0 0 0 0 1 0 1 0 0 1 0 0 0 0 1
3
25 2
29 9
79 65
1 58 16
16 1 0 0 0 0 1 0 1 0 0 1 0 0 0 0 1
3
27 6
30 11
80 67
1 59 19
16 1 0 0 0 0 1 0 1 0 0 1 0 0 0 0 1
2
29 9
30 11
1 60 49
16 1 0 0 0 0 1 0 0 0 0 1 1 0 0 0 1
2
23 18
31 26
1 61 21
16 1 0 0 0 0 1 0 1 0 0 1 0 0 0 0 1
2
29 9
31 13
1 62 52
16 1 0 0 0 0 1 0 0 0 0 1 1 0 0 0 1
2
24 20
32 28
1 63 24
16 1 0 0 0 0 1 0 1 0 0 1 0 0 0 0 1
2
30 11
32 15
1 64 53
16 1 0 0 0 0 1 0 0 0 0 1 1 0 0 0 1
2
31 26
32 28
1 79 68
16 1 0 0 0 0 1 0 0 0 0 1 1 0 0 0 1
2
39 33
40 36
1 81 69
16 1 0 0 0 0 1 0 0 0 0 1 1 0 0 0 1
3
15 5
39 33
89 81
1 82 71
16 1 0 0 0 0 1 0 0 0 0 1 1 0 0 0 1
3
16 8
40 36
90 83
1 91 85
16 1 0 0 0 0 1 0 0 0 0 1 1 0 0 0 1
3
40 36
44 42
98 92
1 93 86
16 1 0 0 0 0 1 0 0 0 0 1 1 0 0 0 1
3
24 20
44 42
99 93
1 95 65
16 1 0 0 0 0 1 0 1 0 0 1 0 0 0 0 1
2
45 34
46 33
1 97 69
16 1 0 0 0 0 1 0 1 0 0 1 0 0 0 0 1
3
28 5
46 33
100 81
1 98 70
16 1 0 0 0 0 1 0 1 0 0 1 0 0 0 0 1
3
27 6
45 34
101 82
1 100 73
16 1 0 0 0 0 1 0 1 0 0 1 0 0 0 0 1
3
45 34
47 37
102 85
1 101 76
16 1 0 0 0 0 1 0 1 0 0 1 0 0 0 0 1
3
30 11
47 37
103 87
1 102 96
16 1 0 0 0 0 1 0 0 0 0 1 1 0 0 0 1
2
44 42
48 46
1 103 78
16 1 0 0 0 0 1 0 1 0 0 1 0 0 0 0 1
2
47 37
48 39
1 104 97
16 1 0 0 0 0 1 0 0 0 0 1 1 0 0 0 1
3
32 28
48 46
104 100
1 105 1
16 1 0 0 1 0 1 0 0 0 0 1 0 0 0 0 1
2
49 1
50 2
1 106 2
16 1 0 0 1 0 1 0 0 0 0 1 0 0 0 0 1
2
50 2
51 3
1 107 3
16 1 0 0 1 0 1 0 0 0 0 1 0 0 0 0 1
2
51 3
52 4
1 108 4
16 1 0 0 1 0 1 0 0 0 0 1 0 0 0 0 1
2
49 1
52 4
1 113 13
16 1 0 0 1 0 1 0 0 0 0 1 0 0 0 0 1
3
50 2
53 9
105 65
1 114 14
16 1 0 0 1 0 1 0 0 0 0 1 0 0 0 0 1
2
53 9
54 10
1 115 15
16 1 0 0 1 0 1 0 0 0 0 1 0 0 0 0 1
3
51 3
54 10
106 66
1 118 21
16 1 0 0 1 0 1 0 0 0 0 1 0 0 0 0 1
2
53 9
55 13
1 119 108
16 1 0 0 0 0 1 0 0 0 0 1 1 0 0 0 1
2
55 49
56 52
1 120 23
16 1 0 0 1 0 1 0 0 0 0 1 0 0 0 0 1
2
54 10
56 14
1 121 109
16 1 0 0 0 0 1 0 0 0 0 1 1 0 0 0 1
2
39 33
55 49
1 122 111
16 1 0 0 0 0 1 0 0 0 0 1 1 0 0 0 1
2
40 36
56 52
1 123 29
16 1 0 0 1 0 1 0 0 0 0 1 0 0 0 0 1
3
51 3
57 17
107 69
1 124 30
16 1 0 0 1 0 1 0 0 0 0 1 0 0 0 0 1
2
57 17
58 18
1 125 31
16 1 0 0 1 0 1 0 0 0 0 1 0 0 0 0 1
3
52 4
58 18
108 70
1 128 37
16 1 0 0 1 0 1 0 0 0 0 1 0 0 0 0 1
3
54 10
59 21
109 73
1 129 38
16 1 0 0 1 0 1 0 0 0 0 1 0 0 0 0 1
3
57 17
59 21
110 74
1 131 125
16 1 0 0 0 0 1 0 0 0 0 1 1 0 0 0 1
3
56 52
60 58
111 108
1 132 43
16 1 0 0 1 0 1 0 0 0 0 1 0 0 0 0 1
2
59 21
60 23
1 133 126
16 1 0 0 0 0 1 0 0 0 0 1 1 0 0 0 1
2
44 42
60 58
1 134 47
16 1 0 0 1 0 1 0 0 0 0 1 0 0 0 0 1
2
57 17
61 25
1 135 105
16 1 0 0 0 0 1 0 1 0 0 1 0 0 0 0 1
2
61 50
62 49
1 136 49
16 1 0 0 1 0 1 0 0 0 0 1 0 0 0 0 1
2
58 18
62 26
1 137 109
16 1 0 0 0 0 1 0 1 0 0 1 0 0 0 0 1
2
46 33
62 49
1 138 110
16 1 0 0 0 0 1 0 1 0 0 1 0 0 0 0 1
2
45 34
61 50
1 139 55
16 1 0 0 1 0 1 0 0 0 0 1 0 0 0 0 1
2
59 21
63 29
1 140 113
16 1 0 0 0 0 1 0 1 0 0 1 0 0 0 0 1
3
61 50
63 53
112 105
1 141 116
16 1 0 0 0 0 1 0 1 0 0 1 0 0 0 0 1
2
47 37
63 53
1 142 136
16 1 0 0 0 0 1 0 0 0 0 1 1 0 0 0 1
2
60 58
64 62
1 143 118
16 1 0 0 0 0 1 0 1 0 0 1 0 0 0 0 1
2
63 53
64 55
1 144 137
16 1 0 0 0 0 1 0 0 0 0 1 1 0 0 0 1
2
48 46
64 62
2 16 5
16 1 0 0 0 0 1 0 0 0 0 1 1 0 0 0 1
4
13 1
14 4
15 5
16 8
2 29 20
16 1 0 0 0 0 1 0 0 0 0 1 1 0 0 0 1
6
14 4
16 8
23 18
24 20
77 70
78 72
2 32 3
16 1 0 0 0 0 1 0 1 0 0 1 0 0 0 0 1
4
25 2
26 1
27 6
28 5
2 37 9
16 1 0 0 0 0 1 0 1 0 0 1 0 0 0 0 1
6
25 2
27 6
29 9
30 11
79 65
80 67
2 41 14
16 1 0 0 0 0 1 0 1 0 0 1 0 0 0 0 1
4
29 9
30 11
31 13
32 15
2 42 33
16 1 0 0 0 0 1 0 0 0 0 1 1 0 0 0 1
4
23 18
24 20
31 26
32 28
2 55 46
16 1 0 0 0 0 1 0 0 0 0 1 1 0 0 0 1
6
15 5
16 8
39 33
40 36
89 81
90 83
2 65 58
16 1 0 0 0 0 1 0 0 0 0 1 1 0 0 0 1
9
16 8
24 20
40 36
44 42
78 72
90 83
98 92
99 93
122 117
2 67 44
16 1 0 0 0 0 1 0 1 0 0 1 0 0 0 0 1
6
27 6
28 5
45 34
46 33
100 81
101 82
2 71 49
16 1 0 0 0 0 1 0 1 0 0 1 0 0 0 0 1
9
27 6
30 11
45 34
47 37
80 67
101 82
102 85
103 87
123 115
2 74 53
16 1 0 0 0 0 1 0 1 0 0 1 0 0 0 0 1
6
30 11
32 15
47 37
48 39
103 87
104 89
2 75 68
16 1 0 0 0 0 1 0 0 0 0 1 1 0 0 0 1
6
24 20
32 28
44 42
48 46
99 93
104 100
2 76 1
16 1 0 0 1 0 1 0 0 0 0 1 0 0 0 0 1
4
49 1
50 2
51 3
52 4
2 81 7
16 1 0 0 1 0 1 0 0 0 0 1 0 0 0 0 1
6
50 2
51 3
53 9
54 10
105 65
106 66
2 85 12
16 1 0 0 1 0 1 0 0 0 0 1 0 0 0 0 1
4
53 9
54 10
55 13
56 14
2 88 79
16 1 0 0 0 0 1 0 0 0 0 1 1 0 0 0 1
4
39 33
40 36
55 49
56 52
2 89 17
16 1 0 0 1 0 1 0 0 0 0 1 0 0 0 0 1
6
51 3
52 4
57 17
58 18
107 69
108 70
2 93 22
16 1 0 0 1 0 1 0 0 0 0 1 0 0 0 0 1
9
51 3
54 10
57 17
59 21
106 66
107 69
109 73
110 74
124 113
2 96 26
16 1 0 0 1 0 1 0 0 0 0 1 0 0 0 0 1
6
54 10
56 14
59 21
60 23
109 73
111 77
2 98 91
16 1 0 0 0 0 1 0 0 0 0 1 1 0 0 0 1
6
40 36
44 42
56 52
60 58
98 92
111 108
2 99 30
16 1 0 0 1 0 1 0 0 0 0 1 0 0 0 0 1
4
57 17
58 18
61 25
62 26
2 100 77
16 1 0 0 0 0 1 0 1 0 0 1 0 0 0 0 1
4
45 34
46 33
61 50
62 49
2 103 35
16 1 0 0 1 0 1 0 0 0 0 1 0 0 0 0 1
6
57 17
59 21
61 25
63 29
110 74
112 79
2 104 82
16 1 0 0 0 0 1 0 1 0 0 1 0 0 0 0 1
6
45 34
47 37
61 50
63 53
102 85
112 105
2 106 39
16 1 0 0 1 0 1 0 0 0 0 1 0 0 0 0 1
4
59 21
60 23
63 29
64 31
2 107 86
16 1 0 0 0 0 1 0 1 0 0 1 0 0 0 0 1
4
47 37
48 39
63 53
64 55
2 108 101
16 1 0 0 0 0 1 0 0 0 0 1 1 0 0 0 1
4
44 42
48 46
60 58
64 62
$EndPeriodic
