$MeshFormat
4.1 0 8
$EndMeshFormat
$PhysicalNames
9
0 9 "anchor"
2 3 "xmin"
2 4 "xmax"
2 5 "ymin"
2 6 "ymax"
2 7 "zmin"
2 8 "zmax"
3 1 "matrix"
3 2 "core"
$EndPhysicalNames
$Entities
64 144 108 27
1 0 0 0 1 9 
2 0 0 0.25 0 
3 0 0.25 0.25 0 
4 0 0.25 0 0 
5 0.25 0 0 0 
6 0.25 0 0.25 0 
7 0.25 0.25 0.25 0 
8 0.25 0.25 0 0 
9 0 0 0.75 0 
10 0 0.25 0.75 0 
11 0.25 0 0.75 0 
12 0.25 0.25 0.75 0 
13 0 0 1 0 
14 0 0.25 1 0 
15 0.25 0 1 0 
16 0.25 0.25 1 0 
17 0 0.75 0.25 0 
18 0 0.75 0 0 
19 0.25 0.75 0.25 0 
20 0.25 0.75 0 0 
21 0 0.75 0.75 0 
22 0.25 0.75 0.75 0 
23 0 0.75 1 0 
24 0.25 0.75 1 0 
25 0 1 0.25 0 
26 0 1 0 0 
27 0.25 1 0.25 0 
28 0.25 1 0 0 
29 0 1 0.75 0 
30 0.25 1 0.75 0 
31 0 1 1 0 
32 0.25 1 1 0 
33 0.75 0 0 0 
34 0.75 0 0.25 0 
35 0.75 0.25 0.25 0 
36 0.75 0.25 0 0 
37 0.75 0 0.75 0 
38 0.75 0.25 0.75 0 
39 0.75 0 1 0 
40 0.75 0.25 1 0 
41 0.75 0.75 0.25 0 
42 0.75 0.75 0 0 
43 0.75 0.75 0.75 0 
44 0.75 0.75 1 0 
45 0.75 1 0.25 0 
46 0.75 1 0 0 
47 0.75 1 0.75 0 
48 0.75 1 1 0 
49 1 0 0 0 
50 1 0 0.25 0 
51 1 0.25 0.25 0 
52 1 0.25 0 0 
53 1 0 0.75 0 
54 1 0.25 0.75 0 
55 1 0 1 0 
56 1 0.25 1 0 
57 1 0.75 0.25 0 
58 1 0.75 0 0 
59 1 0.75 0.75 0 
60 1 0.75 1 0 
61 1 1 0.25 0 
62 1 1 0 0 
63 1 1 0.75 0 
64 1 1 1 0 
1 -1e-07 -1e-07 -1.000000000028756e-07 1e-07 1e-07 0.2500001 0 2 1 -2 
2 -1e-07 -1.000000000028756e-07 0.2499999 1e-07 0.2500001 0.2500001 0 2 2 -3 
3 -1e-07 0.2499999 -1.000000000028756e-07 1e-07 0.2500001 0.2500001 0 2 4 -3 
4 -1e-07 -1.000000000028756e-07 -1e-07 1e-07 0.2500001 1e-07 0 2 1 -4 
5 0.2499999 -1e-07 -1.000000000028756e-07 0.2500001 1e-07 0.2500001 0 2 5 -6 
6 0.2499999 -1.000000000028756e-07 0.2499999 0.2500001 0.2500001 0.2500001 0 2 6 -7 
7 0.2499999 0.2499999 -1.000000000028756e-07 0.2500001 0.2500001 0.2500001 0 2 8 -7 
8 0.2499999 -1.000000000028756e-07 -1e-07 0.2500001 0.2500001 1e-07 0 2 5 -8 
9 -1.000000000028756e-07 -1e-07 -1e-07 0.2500001 1e-07 1e-07 0 2 1 -5 
10 -1.000000000028756e-07 -1e-07 0.2499999 0.2500001 1e-07 0.2500001 0 2 2 -6 
11 -1.000000000028756e-07 0.2499999 -1e-07 0.2500001 0.2500001 1e-07 0 2 4 -8 
12 -1.000000000028756e-07 0.2499999 0.2499999 0.2500001 0.2500001 0.2500001 0 2 3 -7 
13 -1e-07 -1e-07 0.2499999 1e-07 1e-07 0.7500000999999999 0 2 2 -9 
14 -1e-07 -1.000000000028756e-07 0.7499999000000001 1e-07 0.2500001 0.7500000999999999 0 2 9 -10 
15 -1e-07 0.2499999 0.2499999 1e-07 0.2500001 0.7500000999999999 0 2 3 -10 
16 0.2499999 -1e-07 0.2499999 0.2500001 1e-07 0.7500000999999999 0 2 6 -11 
17 0.2499999 -1.000000000028756e-07 0.7499999000000001 0.2500001 0.2500001 0.7500000999999999 0 2 11 -12 
18 0.2499999 0.2499999 0.2499999 0.2500001 0.2500001 0.7500000999999999 0 2 7 -12 
19 -1.000000000028756e-07 -1e-07 0.7499999000000001 0.2500001 1e-07 0.7500000999999999 0 2 9 -11 
20 -1.000000000028756e-07 0.2499999 0.7499999000000001 0.2500001 0.2500001 0.7500000999999999 0 2 10 -12 
21 -1e-07 -1e-07 0.7499999000000001 1e-07 1e-07 1.0000001 0 2 9 -13 
22 -1e-07 -1.000000000028756e-07 0.9999999000000001 1e-07 0.2500001 1.0000001 0 2 13 -14 
23 -1e-07 0.2499999 0.7499999000000001 1e-07 0.2500001 1.0000001 0 2 10 -14 
24 0.2499999 -1e-07 0.7499999000000001 0.2500001 1e-07 1.0000001 0 2 11 -15 
25 0.2499999 -1.000000000028756e-07 0.9999999000000001 0.2500001 0.2500001 1.0000001 0 2 15 -16 
26 0.2499999 0.2499999 0.7499999000000001 0.2500001 0.2500001 1.0000001 0 2 12 -16 
27 -1.000000000028756e-07 -1e-07 0.9999999000000001 0.2500001 1e-07 1.0000001 0 2 13 -15 
28 -1.000000000028756e-07 0.2499999 0.9999999000000001 0.2500001 0.2500001 1.0000001 0 2 14 -16 
29 -1e-07 0.2499999 0.2499999 1e-07 0.7500000999999999 0.2500001 0 2 3 -17 
30 -1e-07 0.7499999000000001 -1.000000000028756e-07 1e-07 0.7500000999999999 0.2500001 0 2 18 -17 
31 -1e-07 0.2499999 -1e-07 1e-07 0.7500000999999999 1e-07 0 2 4 -18 
32 0.2499999 0.2499999 0.2499999 0.2500001 0.7500000999999999 0.2500001 0 2 7 -19 
33 0.2499999 0.7499999000000001 -1.000000000028756e-07 0.2500001 0.7500000999999999 0.2500001 0 2 20 -19 
34 0.2499999 0.2499999 -1e-07 0.2500001 0.7500000999999999 1e-07 0 2 8 -20 
35 -1.000000000028756e-07 0.7499999000000001 -1e-07 0.2500001 0.7500000999999999 1e-07 0 2 18 -20 
36 -1.000000000028756e-07 0.7499999000000001 0.2499999 0.2500001 0.7500000999999999 0.2500001 0 2 17 -19 
37 -1e-07 0.2499999 0.7499999000000001 1e-07 0.7500000999999999 0.7500000999999999 0 2 10 -21 
38 -1e-07 0.7499999000000001 0.2499999 1e-07 0.7500000999999999 0.7500000999999999 0 2 17 -21 
39 0.2499999 0.2499999 0.7499999000000001 0.2500001 0.7500000999999999 0.7500000999999999 0 2 12 -22 
40 0.2499999 0.7499999000000001 0.2499999 0.2500001 0.7500000999999999 0.7500000999999999 0 2 19 -22 
41 -1.000000000028756e-07 0.7499999000000001 0.7499999000000001 0.2500001 0.7500000999999999 0.7500000999999999 0 2 21 -22 
42 -1e-07 0.2499999 0.9999999000000001 1e-07 0.7500000999999999 1.0000001 0 2 14 -23 
43 -1e-07 0.7499999000000001 0.7499999000000001 1e-07 0.7500000999999999 1.0000001 0 2 21 -23 
44 0.2499999 0.2499999 0.9999999000000001 0.2500001 0.7500000999999999 1.0000001 0 2 16 -24 
45 0.2499999 0.7499999000000001 0.7499999000000001 0.2500001 0.7500000999999999 1.0000001 0 2 22 -24 
46 -1.000000000028756e-07 0.7499999000000001 0.9999999000000001 0.2500001 0.7500000999999999 1.0000001 0 2 23 -24 
47 -1e-07 0.7499999000000001 0.2499999 1e-07 1.0000001 0.2500001 0 2 17 -25 
48 -1e-07 0.9999999000000001 -1.000000000028756e-07 1e-07 1.0000001 0.2500001 0 2 26 -25 
49 -1e-07 0.7499999000000001 -1e-07 1e-07 1.0000001 1e-07 0 2 18 -26 
50 0.2499999 0.7499999000000001 0.2499999 0.2500001 1.0000001 0.2500001 0 2 19 -27 
51 0.2499999 0.9999999000000001 -1.000000000028756e-07 0.2500001 1.0000001 0.2500001 0 2 28 -27 
52 0.2499999 0.7499999000000001 -1e-07 0.2500001 1.0000001 1e-07 0 2 20 -28 
53 -1.000000000028756e-07 0.9999999000000001 -1e-07 0.2500001 1.0000001 1e-07 0 2 26 -28 
54 -1.000000000028756e-07 0.9999999000000001 0.2499999 0.2500001 1.0000001 0.2500001 0 2 25 -27 
55 -1e-07 0.7499999000000001 0.7499999000000001 1e-07 1.0000001 0.7500000999999999 0 2 21 -29 
56 -1e-07 0.9999999000000001 0.2499999 1e-07 1.0000001 0.7500000999999999 0 2 25 -29 
57 0.2499999 0.7499999000000001 0.7499999000000001 0.2500001 1.0000001 0.7500000999999999 0 2 22 -30 
58 0.2499999 0.9999999000000001 0.2499999 0.2500001 1.0000001 0.7500000999999999 0 2 27 -30 
59 -1.000000000028756e-07 0.9999999000000001 0.7499999000000001 0.2500001 1.0000001 0.7500000999999999 0 2 29 -30 
60 -1e-07 0.7499999000000001 0.9999999000000001 1e-07 1.0000001 1.0000001 0 2 23 -31 
61 -1e-07 0.9999999000000001 0.7499999000000001 1e-07 1.0000001 1.0000001 0 2 29 -31 
62 0.2499999 0.7499999000000001 0.9999999000000001 0.2500001 1.0000001 1.0000001 0 2 24 -32 
63 0.2499999 0.9999999000000001 0.7499999000000001 0.2500001 1.0000001 1.0000001 0 2 30 -32 
64 -1.000000000028756e-07 0.9999999000000001 0.9999999000000001 0.2500001 1.0000001 1.0000001 0 2 31 -32 
65 0.7499999000000001 -1e-07 -1.000000000028756e-07 0.7500000999999999 1e-07 0.2500001 0 2 33 -34 
66 0.7499999000000001 -1.000000000028756e-07 0.2499999 0.7500000999999999 0.2500001 0.2500001 0 2 34 -35 
67 0.7499999000000001 0.2499999 -1.000000000028756e-07 0.7500000999999999 0.2500001 0.2500001 0 2 36 -35 
68 0.7499999000000001 -1.000000000028756e-07 -1e-07 0.7500000999999999 0.2500001 1e-07 0 2 33 -36 
69 0.2499999 -1e-07 -1e-07 0.7500000999999999 1e-07 1e-07 0 2 5 -33 
70 0.2499999 -1e-07 0.2499999 0.7500000999999999 1e-07 0.2500001 0 2 6 -34 
71 0.2499999 0.2499999 -1e-07 0.7500000999999999 0.2500001 1e-07 0 2 8 -36 
72 0.2499999 0.2499999 0.2499999 0.7500000999999999 0.2500001 0.2500001 0 2 7 -35 
73 0.7499999000000001 -1e-07 0.2499999 0.7500000999999999 1e-07 0.7500000999999999 0 2 34 -37 
74 0.7499999000000001 -1.000000000028756e-07 0.7499999000000001 0.7500000999999999 0.2500001 0.7500000999999999 0 2 37 -38 
75 0.7499999000000001 0.2499999 0.2499999 0.7500000999999999 0.2500001 0.7500000999999999 0 2 35 -38 
76 0.2499999 -1e-07 0.7499999000000001 0.7500000999999999 1e-07 0.7500000999999999 0 2 11 -37 
77 0.2499999 0.2499999 0.7499999000000001 0.7500000999999999 0.2500001 0.7500000999999999 0 2 12 -38 
78 0.7499999000000001 -1e-07 0.7499999000000001 0.7500000999999999 1e-07 1.0000001 0 2 37 -39 
79 0.7499999000000001 -1.000000000028756e-07 0.9999999000000001 0.7500000999999999 0.2500001 1.0000001 0 2 39 -40 
80 0.7499999000000001 0.2499999 0.7499999000000001 0.7500000999999999 0.2500001 1.0000001 0 2 38 -40 
81 0.2499999 -1e-07 0.9999999000000001 0.7500000999999999 1e-07 1.0000001 0 2 15 -39 
82 0.2499999 0.2499999 0.9999999000000001 0.7500000999999999 0.2500001 1.0000001 0 2 16 -40 
83 0.7499999000000001 0.2499999 0.2499999 0.7500000999999999 0.7500000999999999 0.2500001 0 2 35 -41 
84 0.7499999000000001 0.7499999000000001 -1.000000000028756e-07 0.7500000999999999 0.7500000999999999 0.2500001 0 2 42 -41 
85 0.7499999000000001 0.2499999 -1e-07 0.7500000999999999 0.7500000999999999 1e-07 0 2 36 -42 
86 0.2499999 0.7499999000000001 -1e-07 0.7500000999999999 0.7500000999999999 1e-07 0 2 20 -42 
87 0.2499999 0.7499999000000001 0.2499999 0.7500000999999999 0.7500000999999999 0.2500001 0 2 19 -41 
88 0.7499999000000001 0.2499999 0.7499999000000001 0.7500000999999999 0.7500000999999999 0.7500000999999999 0 2 38 -43 
89 0.7499999000000001 0.7499999000000001 0.2499999 0.7500000999999999 0.7500000999999999 0.7500000999999999 0 2 41 -43 
90 0.2499999 0.7499999000000001 0.7499999000000001 0.7500000999999999 0.7500000999999999 0.7500000999999999 0 2 22 -43 
91 0.7499999000000001 0.2499999 0.9999999000000001 0.7500000999999999 0.7500000999999999 1.0000001 0 2 40 -44 
92 0.7499999000000001 0.7499999000000001 0.7499999000000001 0.7500000999999999 0.7500000999999999 1.0000001 0 2 43 -44 
93 0.2499999 0.7499999000000001 0.9999999000000001 0.7500000999999999 0.7500000999999999 1.0000001 0 2 24 -44 
94 0.7499999000000001 0.7499999000000001 0.2499999 0.7500000999999999 1.0000001 0.2500001 0 2 41 -45 
95 0.7499999000000001 0.9999999000000001 -1.000000000028756e-07 0.7500000999999999 1.0000001 0.2500001 0 2 46 -45 
96 0.7499999000000001 0.7499999000000001 -1e-07 0.7500000999999999 1.0000001 1e-07 0 2 42 -46 
97 0.2499999 0.9999999000000001 -1e-07 0.7500000999999999 1.0000001 1e-07 0 2 28 -46 
98 0.2499999 0.9999999000000001 0.2499999 0.7500000999999999 1.0000001 0.2500001 0 2 27 -45 
99 0.7499999000000001 0.7499999000000001 0.7499999000000001 0.7500000999999999 1.0000001 0.7500000999999999 0 2 43 -47 
100 0.7499999000000001 0.9999999000000001 0.2499999 0.7500000999999999 1.0000001 0.7500000999999999 0 2 45 -47 
101 0.2499999 0.9999999000000001 0.7499999000000001 0.7500000999999999 1.0000001 0.7500000999999999 0 2 30 -47 
102 0.7499999000000001 0.7499999000000001 0.9999999000000001 0.7500000999999999 1.0000001 1.0000001 0 2 44 -48 
103 0.7499999000000001 0.9999999000000001 0.7499999000000001 0.7500000999999999 1.0000001 1.0000001 0 2 47 -48 
104 0.2499999 0.9999999000000001 0.9999999000000001 0.7500000999999999 1.0000001 1.0000001 0 2 32 -48 
105 0.9999999000000001 -1e-07 -1.000000000028756e-07 1.0000001 1e-07 0.2500001 0 2 49 -50 
106 0.9999999000000001 -1.000000000028756e-07 0.2499999 1.0000001 0.2500001 0.2500001 0 2 50 -51 
107 0.9999999000000001 0.2499999 -1.000000000028756e-07 1.0000001 0.2500001 0.2500001 0 2 52 -51 
108 0.9999999000000001 -1.000000000028756e-07 -1e-07 1.0000001 0.2500001 1e-07 0 2 49 -52 
109 0.7499999000000001 -1e-07 -1e-07 1.0000001 1e-07 1e-07 0 2 33 -49 
110 0.7499999000000001 -1e-07 0.2499999 1.0000001 1e-07 0.2500001 0 2 34 -50 
111 0.7499999000000001 0.2499999 -1e-07 1.0000001 0.2500001 1e-07 0 2 36 -52 
112 0.7499999000000001 0.2499999 0.2499999 1.0000001 0.2500001 0.2500001 0 2 35 -51 
113 0.9999999000000001 -1e-07 0.2499999 1.0000001 1e-07 0.7500000999999999 0 2 50 -53 
114 0.9999999000000001 -1.000000000028756e-07 0.7499999000000001 1.0000001 0.2500001 0.7500000999999999 0 2 53 -54 
115 0.9999999000000001 0.2499999 0.2499999 1.0000001 0.2500001 0.7500000999999999 0 2 51 -54 
116 0.7499999000000001 -1e-07 0.7499999000000001 1.0000001 1e-07 0.7500000999999999 0 2 37 -53 
117 0.7499999000000001 0.2499999 0.7499999000000001 1.0000001 0.2500001 0.7500000999999999 0 2 38 -54 
118 0.9999999000000001 -1e-07 0.7499999000000001 1.0000001 1e-07 1.0000001 0 2 53 -55 
119 0.9999999000000001 -1.000000000028756e-07 0.9999999000000001 1.0000001 0.2500001 1.0000001 0 2 55 -56 
120 0.9999999000000001 0.2499999 0.7499999000000001 1.0000001 0.2500001 1.0000001 0 2 54 -56 
121 0.7499999000000001 -1e-07 0.9999999000000001 1.0000001 1e-07 1.0000001 0 2 39 -55 
122 0.7499999000000001 0.2499999 0.9999999000000001 1.0000001 0.2500001 1.0000001 0 2 40 -56 
123 0.9999999000000001 0.2499999 0.2499999 1.0000001 0.7500000999999999 0.2500001 0 2 51 -57 
124 0.9999999000000001 0.7499999000000001 -1.000000000028756e-07 1.0000001 0.7500000999999999 0.2500001 0 2 58 -57 
125 0.9999999000000001 0.2499999 -1e-07 1.0000001 0.7500000999999999 1e-07 0 2 52 -58 
126 0.7499999000000001 0.7499999000000001 -1e-07 1.0000001 0.7500000999999999 1e-07 0 2 42 -58 
127 0.7499999000000001 0.7499999000000001 0.2499999 1.0000001 0.7500000999999999 0.2500001 0 2 41 -57 
128 0.9999999000000001 0.2499999 0.7499999000000001 1.0000001 0.7500000999999999 0.7500000999999999 0 2 54 -59 
129 0.9999999000000001 0.7499999000000001 0.2499999 1.0000001 0.7500000999999999 0.7500000999999999 0 2 57 -59 
130 0.7499999000000001 0.7499999000000001 0.7499999000000001 1.0000001 0.7500000999999999 0.7500000999999999 0 2 43 -59 
131 0.9999999000000001 0.2499999 0.9999999000000001 1.0000001 0.7500000999999999 1.0000001 0 2 56 -60 
132 0.9999999000000001 0.7499999000000001 0.7499999000000001 1.0000001 0.7500000999999999 1.0000001 0 2 59 -60 
133 0.7499999000000001 0.7499999000000001 0.9999999000000001 1.0000001 0.7500000999999999 1.0000001 0 2 44 -60 
134 0.9999999000000001 0.7499999000000001 0.2499999 1.0000001 1.0000001 0.2500001 0 2 57 -61 
135 0.9999999000000001 0.9999999000000001 -1.000000000028756e-07 1.0000001 1.0000001 0.2500001 0 2 62 -61 
136 0.9999999000000001 0.7499999000000001 -1e-07 1.0000001 1.0000001 1e-07 0 2 58 -62 
137 0.7499999000000001 0.9999999000000001 -1e-07 1.0000001 1.0000001 1e-07 0 2 46 -62 
138 0.7499999000000001 0.9999999000000001 0.2499999 1.0000001 1.0000001 0.2500001 0 2 45 -61 
139 0.9999999000000001 0.7499999000000001 0.7499999000000001 1.0000001 1.0000001 0.7500000999999999 0 2 59 -63 
140 0.9999999000000001 0.9999999000000001 0.2499999 1.0000001 1.0000001 0.7500000999999999 0 2 61 -63 
141 0.7499999000000001 0.9999999000000001 0.7499999000000001 1.0000001 1.0000001 0.7500000999999999 0 2 47 -63 
142 0.9999999000000001 0.7499999000000001 0.9999999000000001 1.0000001 1.0000001 1.0000001 0 2 60 -64 
143 0.9999999000000001 0.9999999000000001 0.7499999000000001 1.0000001 1.0000001 1.0000001 0 2 63 -64 
144 0.7499999000000001 0.9999999000000001 0.9999999000000001 1.0000001 1.0000001 1.0000001 0 2 48 -64 
1 -1e-07 -1.000000000028756e-07 -1.000000000028756e-07 1e-07 0.2500001 0.2500001 1 3 4 -1 4 3 -2 
2 0.2499999 -1.000000000028756e-07 -1.000000000028756e-07 0.2500001 0.2500001 0.2500001 0 4 -5 8 7 -6 
3 -1.000000000028756e-07 -1e-07 -1.000000000028756e-07 0.2500001 1e-07 0.2500001 1 5 4 -9 1 10 -5 
4 -1.000000000028756e-07 0.2499999 -1.000000000028756e-07 0.2500001 0.2500001 0.2500001 0 4 -11 3 12 -7 
5 -1.000000000028756e-07 -1.000000000028756e-07 -1e-07 0.2500001 0.2500001 1e-07 1 7 4 -4 9 8 -11 
6 -1.000000000028756e-07 -1.000000000028756e-07 0.2499999 0.2500001 0.2500001 0.2500001 0 4 -2 10 6 -12 
7 -1e-07 -1.000000000028756e-07 0.2499999 1e-07 0.2500001 0.7500000999999999 1 3 4 -13 2 15 -14 
8 0.2499999 -1.000000000028756e-07 0.2499999 0.2500001 0.2500001 0.7500000999999999 0 4 -16 6 18 -17 
9 -1.000000000028756e-07 -1e-07 0.2499999 0.2500001 1e-07 0.7500000999999999 1 5 4 -10 13 19 -16 
10 -1.000000000028756e-07 0.2499999 0.2499999 0.2500001 0.2500001 0.7500000999999999 0 4 -12 15 20 -18 
11 -1.000000000028756e-07 -1.000000000028756e-07 0.7499999000000001 0.2500001 0.2500001 0.7500000999999999 0 4 -14 19 17 -20 
12 -1e-07 -1.000000000028756e-07 0.7499999000000001 1e-07 0.2500001 1.0000001 1 3 4 -21 14 23 -22 
13 0.2499999 -1.000000000028756e-07 0.7499999000000001 0.2500001 0.2500001 1.0000001 0 4 -24 17 26 -25 
14 -1.000000000028756e-07 -1e-07 0.7499999000000001 0.2500001 1e-07 1.0000001 1 5 4 -19 21 27 -24 
15 -1.000000000028756e-07 0.2499999 0.7499999000000001 0.2500001 0.2500001 1.0000001 0 4 -20 23 28 -26 
16 -1.000000000028756e-07 -1.000000000028756e-07 0.9999999000000001 0.2500001 0.2500001 1.0000001 1 8 4 -22 27 25 -28 
17 -1e-07 0.2499999 -1.000000000028756e-07 1e-07 0.7500000999999999 0.2500001 1 3 4 -3 31 30 -29 
18 0.2499999 0.2499999 -1.000000000028756e-07 0.2500001 0.7500000999999999 0.2500001 0 4 -7 34 33 -32 
19 -1.000000000028756e-07 0.7499999000000001 -1.000000000028756e-07 0.2500001 0.7500000999999999 0.2500001 0 4 -35 30 36 -33 
20 -1.000000000028756e-07 0.2499999 -1e-07 0.2500001 0.7500000999999999 1e-07 1 7 4 -31 11 34 -35 
21 -1.000000000028756e-07 0.2499999 0.2499999 0.2500001 0.7500000999999999 0.2500001 0 4 -29 12 32 -36 
22 -1e-07 0.2499999 0.2499999 1e-07 0.7500000999999999 0.7500000999999999 1 3 4 -15 29 38 -37 
23 0.2499999 0.2499999 0.2499999 0.2500001 0.7500000999999999 0.7500000999999999 0 4 -18 32 40 -39 
24 -1.000000000028756e-07 0.7499999000000001 0.2499999 0.2500001 0.7500000999999999 0.7500000999999999 0 4 -36 38 41 -40 
25 -1.000000000028756e-07 0.2499999 0.7499999000000001 0.2500001 0.7500000999999999 0.7500000999999999 0 4 -37 20 39 -41 
26 -1e-07 0.2499999 0.7499999000000001 1e-07 0.7500000999999999 1.0000001 1 3 4 -23 37 43 -42 
27 0.2499999 0.2499999 0.7499999000000001 0.2500001 0.7500000999999999 1.0000001 0 4 -26 39 45 -44 
28 -1.000000000028756e-07 0.7499999000000001 0.7499999000000001 0.2500001 0.7500000999999999 1.0000001 0 4 -41 43 46 -45 
29 -1.000000000028756e-07 0.2499999 0.9999999000000001 0.2500001 0.7500000999999999 1.0000001 1 8 4 -42 28 44 -46 
30 -1e-07 0.7499999000000001 -1.000000000028756e-07 1e-07 1.0000001 0.2500001 1 3 4 -30 49 48 -47 
31 0.2499999 0.7499999000000001 -1.000000000028756e-07 0.2500001 1.0000001 0.2500001 0 4 -33 52 51 -50 
32 -1.000000000028756e-07 0.9999999000000001 -1.000000000028756e-07 0.2500001 1.0000001 0.2500001 1 6 4 -53 48 54 -51 
33 -1.000000000028756e-07 0.7499999000000001 -1e-07 0.2500001 1.0000001 1e-07 1 7 4 -49 35 52 -53 
34 -1.000000000028756e-07 0.7499999000000001 0.2499999 0.2500001 1.0000001 0.2500001 0 4 -47 36 50 -54 
35 -1e-07 0.7499999000000001 0.2499999 1e-07 1.0000001 0.7500000999999999 1 3 4 -38 47 56 -55 
36 0.2499999 0.7499999000000001 0.2499999 0.2500001 1.0000001 0.7500000999999999 0 4 -40 50 58 -57 
37 -1.000000000028756e-07 0.9999999000000001 0.2499999 0.2500001 1.0000001 0.7500000999999999 1 6 4 -54 56 59 -58 
38 -1.000000000028756e-07 0.7499999000000001 0.7499999000000001 0.2500001 1.0000001 0.7500000999999999 0 4 -55 41 57 -59 
39 -1e-07 0.7499999000000001 0.7499999000000001 1e-07 1.0000001 1.0000001 1 3 4 -43 55 61 -60 
40 0.2499999 0.7499999000000001 0.7499999000000001 0.2500001 1.0000001 1.0000001 0 4 -45 57 63 -62 
41 -1.000000000028756e-07 0.9999999000000001 0.7499999000000001 0.2500001 1.0000001 1.0000001 1 6 4 -59 61 64 -63 
42 -1.000000000028756e-07 0.7499999000000001 0.9999999000000001 0.2500001 1.0000001 1.0000001 1 8 4 -60 46 62 -64 
43 0.7499999000000001 -1.000000000028756e-07 -1.000000000028756e-07 0.7500000999999999 0.2500001 0.2500001 0 4 -65 68 67 -66 
44 0.2499999 -1e-07 -1.000000000028756e-07 0.7500000999999999 1e-07 0.2500001 1 5 4 -69 5 70 -65 
45 0.2499999 0.2499999 -1.000000000028756e-07 0.7500000999999999 0.2500001 0.2500001 0 4 -71 7 72 -67 
46 0.2499999 -1.000000000028756e-07 -1e-07 0.7500000999999999 0.2500001 1e-07 1 7 4 -8 69 68 -71 
47 0.2499999 -1.000000000028756e-07 0.2499999 0.7500000999999999 0.2500001 0.2500001 0 4 -6 70 66 -72 
48 0.7499999000000001 -1.000000000028756e-07 0.2499999 0.7500000999999999 0.2500001 0.7500000999999999 0 4 -73 66 75 -74 
49 0.2499999 -1e-07 0.2499999 0.7500000999999999 1e-07 0.7500000999999999 1 5 4 -70 16 76 -73 
50 0.2499999 0.2499999 0.2499999 0.7500000999999999 0.2500001 0.7500000999999999 0 4 -72 18 77 -75 
51 0.2499999 -1.000000000028756e-07 0.7499999000000001 0.7500000999999999 0.2500001 0.7500000999999999 0 4 -17 76 74 -77 
52 0.7499999000000001 -1.000000000028756e-07 0.7499999000000001 0.7500000999999999 0.2500001 1.0000001 0 4 -78 74 80 -79 
53 0.2499999 -1e-07 0.7499999000000001 0.7500000999999999 1e-07 1.0000001 1 5 4 -76 24 81 -78 
54 0.2499999 0.2499999 0.7499999000000001 0.7500000999999999 0.2500001 1.0000001 0 4 -77 26 82 -80 
55 0.2499999 -1.000000000028756e-07 0.9999999000000001 0.7500000999999999 0.2500001 1.0000001 1 8 4 -25 81 79 -82 
56 0.7499999000000001 0.2499999 -1.000000000028756e-07 0.7500000999999999 0.7500000999999999 0.2500001 0 4 -67 85 84 -83 
57 0.2499999 0.7499999000000001 -1.000000000028756e-07 0.7500000999999999 0.7500000999999999 0.2500001 0 4 -86 33 87 -84 
58 0.2499999 0.2499999 -1e-07 0.7500000999999999 0.7500000999999999 1e-07 1 7 4 -34 71 85 -86 
59 0.2499999 0.2499999 0.2499999 0.7500000999999999 0.7500000999999999 0.2500001 0 4 -32 72 83 -87 
60 0.7499999000000001 0.2499999 0.2499999 0.7500000999999999 0.7500000999999999 0.7500000999999999 0 4 -75 83 89 -88 
61 0.2499999 0.7499999000000001 0.2499999 0.7500000999999999 0.7500000999999999 0.7500000999999999 0 4 -87 40 90 -89 
62 0.2499999 0.2499999 0.7499999000000001 0.7500000999999999 0.7500000999999999 0.7500000999999999 0 4 -39 77 88 -90 
63 0.7499999000000001 0.2499999 0.7499999000000001 0.7500000999999999 0.7500000999999999 1.0000001 0 4 -80 88 92 -91 
64 0.2499999 0.7499999000000001 0.7499999000000001 0.7500000999999999 0.7500000999999999 1.0000001 0 4 -90 45 93 -92 
65 0.2499999 0.2499999 0.9999999000000001 0.7500000999999999 0.7500000999999999 1.0000001 1 8 4 -44 82 91 -93 
66 0.7499999000000001 0.7499999000000001 -1.000000000028756e-07 0.7500000999999999 1.0000001 0.2500001 0 4 -84 96 95 -94 
67 0.2499999 0.9999999000000001 -1.000000000028756e-07 0.7500000999999999 1.0000001 0.2500001 1 6 4 -97 51 98 -95 
68 0.2499999 0.7499999000000001 -1e-07 0.7500000999999999 1.0000001 1e-07 1 7 4 -52 86 96 -97 
69 0.2499999 0.7499999000000001 0.2499999 0.7500000999999999 1.0000001 0.2500001 0 4 -50 87 94 -98 
70 0.7499999000000001 0.7499999000000001 0.2499999 0.7500000999999999 1.0000001 0.7500000999999999 0 4 -89 94 100 -99 
71 0.2499999 0.9999999000000001 0.2499999 0.7500000999999999 1.0000001 0.7500000999999999 1 6 4 -98 58 101 -100 
72 0.2499999 0.7499999000000001 0.7499999000000001 0.7500000999999999 1.0000001 0.7500000999999999 0 4 -57 90 99 -101 
73 0.7499999000000001 0.7499999000000001 0.7499999000000001 0.7500000999999999 1.0000001 1.0000001 0 4 -92 99 103 -102 
74 0.2499999 0.9999999000000001 0.7499999000000001 0.7500000999999999 1.0000001 1.0000001 1 6 4 -101 63 104 -103 
75 0.2499999 0.7499999000000001 0.9999999000000001 0.7500000999999999 1.0000001 1.0000001 1 8 4 -62 93 102 -104 
76 0.9999999000000001 -1.000000000028756e-07 -1.000000000028756e-07 1.0000001 0.2500001 0.2500001 1 4 4 -105 108 107 -106 
77 0.7499999000000001 -1e-07 -1.000000000028756e-07 1.0000001 1e-07 0.2500001 1 5 4 -109 65 110 -105 
78 0.7499999000000001 0.2499999 -1.000000000028756e-07 1.0000001 0.2500001 0.2500001 0 4 -111 67 112 -107 
79 0.7499999000000001 -1.000000000028756e-07 -1e-07 1.0000001 0.2500001 1e-07 1 7 4 -68 109 108 -111 
80 0.7499999000000001 -1.000000000028756e-07 0.2499999 1.0000001 0.2500001 0.2500001 0 4 -66 110 106 -112 
81 0.9999999000000001 -1.000000000028756e-07 0.2499999 1.0000001 0.2500001 0.7500000999999999 1 4 4 -113 106 115 -114 
82 0.7499999000000001 -1e-07 0.2499999 1.0000001 1e-07 0.7500000999999999 1 5 4 -110 73 116 -113 
83 0.7499999000000001 0.2499999 0.2499999 1.0000001 0.2500001 0.7500000999999999 0 4 -112 75 117 -115 
84 0.7499999000000001 -1.000000000028756e-07 0.7499999000000001 1.0000001 0.2500001 0.7500000999999999 0 4 -74 116 114 -117 
85 0.9999999000000001 -1.000000000028756e-07 0.7499999000000001 1.0000001 0.2500001 1.0000001 1 4 4 -118 114 120 -119 
86 0.7499999000000001 -1e-07 0.7499999000000001 1.0000001 1e-07 1.0000001 1 5 4 -116 78 121 -118 
87 0.7499999000000001 0.2499999 0.7499999000000001 1.0000001 0.2500001 1.0000001 0 4 -117 80 122 -120 
88 0.7499999000000001 -1.000000000028756e-07 0.9999999000000001 1.0000001 0.2500001 1.0000001 1 8 4 -79 121 119 -122 
89 0.9999999000000001 0.2499999 -1.000000000028756e-07 1.0000001 0.7500000999999999 0.2500001 1 4 4 -107 125 124 -123 
90 0.7499999000000001 0.7499999000000001 -1.000000000028756e-07 1.0000001 0.7500000999999999 0.2500001 0 4 -126 84 127 -124 
91 0.7499999000000001 0.2499999 -1e-07 1.0000001 0.7500000999999999 1e-07 1 7 4 -85 111 125 -126 
92 0.7499999000000001 0.2499999 0.2499999 1.0000001 0.7500000999999999 0.2500001 0 4 -83 112 123 -127 
93 0.9999999000000001 0.2499999 0.2499999 1.0000001 0.7500000999999999 0.7500000999999999 1 4 4 -115 123 129 -128 
94 0.7499999000000001 0.7499999000000001 0.2499999 1.0000001 0.7500000999999999 0.7500000999999999 0 4 -127 89 130 -129 
95 0.7499999000000001 0.2499999 0.7499999000000001 1.0000001 0.7500000999999999 0.7500000999999999 0 4 -88 117 128 -130 
96 0.9999999000000001 0.2499999 0.7499999000000001 1.0000001 0.7500000999999999 1.0000001 1 4 4 -120 128 132 -131 
97 0.7499999000000001 0.7499999000000001 0.7499999000000001 1.0000001 0.7500000999999999 1.0000001 0 4 -130 92 133 -132 
98 0.7499999000000001 0.2499999 0.9999999000000001 1.0000001 0.7500000999999999 1.0000001 1 8 4 -91 122 131 -133 
99 0.9999999000000001 0.7499999000000001 -1.000000000028756e-07 1.0000001 1.0000001 0.2500001 1 4 4 -124 136 135 -134 
100 0.7499999000000001 0.9999999000000001 -1.000000000028756e-07 1.0000001 1.0000001 0.2500001 1 6 4 -137 95 138 -135 
101 0.7499999000000001 0.7499999000000001 -1e-07 1.0000001 1.0000001 1e-07 1 7 4 -96 126 136 -137 
102 0.7499999000000001 0.7499999000000001 0.2499999 1.0000001 1.0000001 0.2500001 0 4 -94 127 134 -138 
103 0.9999999000000001 0.7499999000000001 0.2499999 1.0000001 1.0000001 0.7500000999999999 1 4 4 -129 134 140 -139 
104 0.7499999000000001 0.9999999000000001 0.2499999 1.0000001 1.0000001 0.7500000999999999 1 6 4 -138 100 141 -140 
105 0.7499999000000001 0.7499999000000001 0.7499999000000001 1.0000001 1.0000001 0.7500000999999999 0 4 -99 130 139 -141 
106 0.9999999000000001 0.7499999000000001 0.7499999000000001 1.0000001 1.0000001 1.0000001 1 4 4 -132 139 143 -142 
107 0.7499999000000001 0.9999999000000001 0.7499999000000001 1.0000001 1.0000001 1.0000001 1 6 4 -141 103 144 -143 
108 0.7499999000000001 0.7499999000000001 0.9999999000000001 1.0000001 1.0000001 1.0000001 1 8 4 -102 133 142 -144 
1 -1.000000000028756e-07 -1.000000000028756e-07 -1.000000000028756e-07 0.2500001 0.2500001 0.2500001 1 1 6 -1 2 -3 4 -5 6 
2 -1.000000000028756e-07 -1.000000000028756e-07 0.2499999 0.2500001 0.2500001 0.7500000999999999 1 1 6 -7 8 -9 10 -6 11 
3 -1.000000000028756e-07 -1.000000000028756e-07 0.7499999000000001 0.2500001 0.2500001 1.0000001 1 1 6 -12 13 -14 15 -11 16 
4 -1.000000000028756e-07 0.2499999 -1.000000000028756e-07 0.2500001 0.7500000999999999 0.2500001 1 1 6 -17 18 -4 19 -20 21 
5 -1.000000000028756e-07 0.2499999 0.2499999 0.2500001 0.7500000999999999 0.7500000999999999 1 1 6 -22 23 -10 24 -21 25 
6 -1.000000000028756e-07 0.2499999 0.7499999000000001 0.2500001 0.7500000999999999 1.0000001 1 1 6 -26 27 -15 28 -25 29 
7 -1.000000000028756e-07 0.7499999000000001 -1.000000000028756e-07 0.2500001 1.0000001 0.2500001 1 1 6 -30 31 -19 32 -33 34 
8 -1.000000000028756e-07 0.7499999000000001 0.2499999 0.2500001 1.0000001 0.7500000999999999 1 1 6 -35 36 -24 37 -34 38 
9 -1.000000000028756e-07 0.7499999000000001 0.7499999000000001 0.2500001 1.0000001 1.0000001 1 1 6 -39 40 -28 41 -38 42 
10 0.2499999 -1.000000000028756e-07 -1.000000000028756e-07 0.7500000999999999 0.2500001 0.2500001 1 1 6 -2 43 -44 45 -46 47 
11 0.2499999 -1.000000000028756e-07 0.2499999 0.7500000999999999 0.2500001 0.7500000999999999 1 1 6 -8 48 -49 50 -47 51 
12 0.2499999 -1.000000000028756e-07 0.7499999000000001 0.7500000999999999 0.2500001 1.0000001 1 1 6 -13 52 -53 54 -51 55 
13 0.2499999 0.2499999 -1.000000000028756e-07 0.7500000999999999 0.7500000999999999 0.2500001 1 1 6 -18 56 -45 57 -58 59 
14 0.2499999 0.2499999 0.2499999 0.7500000999999999 0.7500000999999999 0.7500000999999999 1 2 6 -23 60 -50 61 -59 62 
15 0.2499999 0.2499999 0.7499999000000001 0.7500000999999999 0.7500000999999999 1.0000001 1 1 6 -27 63 -54 64 -62 65 
16 0.2499999 0.7499999000000001 -1.000000000028756e-07 0.7500000999999999 1.0000001 0.2500001 1 1 6 -31 66 -57 67 -68 69 
17 0.2499999 0.7499999000000001 0.2499999 0.7500000999999999 1.0000001 0.7500000999999999 1 1 6 -36 70 -61 71 -69 72 
18 0.2499999 0.7499999000000001 0.7499999000000001 0.7500000999999999 1.0000001 1.0000001 1 1 6 -40 73 -64 74 -72 75 
19 0.7499999000000001 -1.000000000028756e-07 -1.000000000028756e-07 1.0000001 0.2500001 0.2500001 1 1 6 -43 76 -77 78 -79 80 
20 0.7499999000000001 -1.000000000028756e-07 0.2499999 1.0000001 0.2500001 0.7500000999999999 1 1 6 -48 81 -82 83 -80 84 
21 0.7499999000000001 -1.000000000028756e-07 0.7499999000000001 1.0000001 0.2500001 1.0000001 1 1 6 -52 85 -86 87 -84 88 
22 0.7499999000000001 0.2499999 -1.000000000028756e-07 1.0000001 0.7500000999999999 0.2500001 1 1 6 -56 89 -78 90 -91 92 
23 0.7499999000000001 0.2499999 0.2499999 1.0000001 0.7500000999999999 0.7500000999999999 1 1 6 -60 93 -83 94 -92 95 
24 0.7499999000000001 0.2499999 0.7499999000000001 1.0000001 0.7500000999999999 1.0000001 1 1 6 -63 96 -87 97 -95 98 
25 0.7499999000000001 0.7499999000000001 -1.000000000028756e-07 1.0000001 1.0000001 0.2500001 1 1 6 -66 99 -90 100 -101 102 
26 0.7499999000000001 0.7499999000000001 0.2499999 1.0000001 1.0000001 0.7500000999999999 1 1 6 -70 103 -94 104 -102 105 
27 0.7499999000000001 0.7499999000000001 0.7499999000000001 1.0000001 1.0000001 1.0000001 1 1 6 -73 106 -97 107 -105 108 
$EndEntities
$Nodes
343 729 1 729
0 1 0 1
1
0 0 0
0 2 0 1
2
0 0 0.25
0 3 0 1
3
0 0.25 0.25
0 4 0 1
4
0 0.25 0
0 5 0 1
5
0.25 0 0
0 6 0 1
6
0.25 0 0.25
0 7 0 1
7
0.25 0.25 0.25
0 8 0 1
8
0.25 0.25 0
0 9 0 1
9
0 0 0.75
0 10 0 1
10
0 0.25 0.75
0 11 0 1
11
0.25 0 0.75
0 12 0 1
12
0.25 0.25 0.75
0 13 0 1
13
0 0 1
0 14 0 1
14
0 0.25 1
0 15 0 1
15
0.25 0 1
0 16 0 1
16
0.25 0.25 1
0 17 0 1
17
0 0.75 0.25
0 18 0 1
18
0 0.75 0
0 19 0 1
19
0.25 0.75 0.25
0 20 0 1
20
0.25 0.75 0
0 21 0 1
21
0 0.75 0.75
0 22 0 1
22
0.25 0.75 0.75
0 23 0 1
23
0 0.75 1
0 24 0 1
24
0.25 0.75 1
0 25 0 1
25
0 1 0.25
0 26 0 1
26
0 1 0
0 27 0 1
27
0.25 1 0.25
0 28 0 1
28
0.25 1 0
0 29 0 1
29
0 1 0.75
0 30 0 1
30
0.25 1 0.75
0 31 0 1
31
0 1 1
0 32 0 1
32
0.25 1 1
0 33 0 1
33
0.75 0 0
0 34 0 1
34
0.75 0 0.25
0 35 0 1
35
0.75 0.25 0.25
0 36 0 1
36
0.75 0.25 0
0 37 0 1
37
0.75 0 0.75
0 38 0 1
38
0.75 0.25 0.75
0 39 0 1
39
0.75 0 1
0 40 0 1
40
0.75 0.25 1
0 41 0 1
41
0.75 0.75 0.25
0 42 0 1
42
0.75 0.75 0
0 43 0 1
43
0.75 0.75 0.75
0 44 0 1
44
0.75 0.75 1
0 45 0 1
45
0.75 1 0.25
0 46 0 1
46
0.75 1 0
0 47 0 1
47
0.75 1 0.75
0 48 0 1
48
0.75 1 1
0 49 0 1
49
1 0 0
0 50 0 1
50
1 0 0.25
0 51 0 1
51
1 0.25 0.25
0 52 0 1
52
1 0.25 0
0 53 0 1
53
1 0 0.75
0 54 0 1
54
1 0.25 0.75
0 55 0 1
55
1 0 1
0 56 0 1
56
1 0.25 1
0 57 0 1
57
1 0.75 0.25
0 58 0 1
58
1 0.75 0
0 59 0 1
59
1 0.75 0.75
0 60 0 1
60
1 0.75 1
0 61 0 1
61
1 1 0.25
0 62 0 1
62
1 1 0
0 63 0 1
63
1 1 0.75
0 64 0 1
64
1 1 1
1 1 0 1
65
0 0 0.125
1 2 0 1
66
0 0.125 0.25
1 3 0 1
67
0 0.25 0.125
1 4 0 1
68
0 0.125 0
1 5 0 1
69
0.25 0 0.125
1 6 0 1
70
0.25 0.125 0.25
1 7 0 1
71
0.25 0.25 0.125
1 8 0 1
72
0.25 0.125 0
1 9 0 1
73
0.125 0 0
1 10 0 1
74
0.125 0 0.25
1 11 0 1
75
0.125 0.25 0
1 12 0 1
76
0.125 0.25 0.25
1 13 0 3
77
78
79
0 0 0.375
0 0 0.5
0 0 0.625
1 14 0 1
80
0 0.125 0.75
1 15 0 3
81
82
83
0 0.25 0.375
0 0.25 0.5
0 0.25 0.625
1 16 0 3
84
85
86
0.25 0 0.375
0.25 0 0.5
0.25 0 0.625
1 17 0 1
87
0.25 0.125 0.75
1 18 0 3
88
89
90
0.25 0.25 0.375
0.25 0.25 0.5
0.25 0.25 0.625
1 19 0 1
91
0.125 0 0.75
1 20 0 1
92
0.125 0.25 0.75
1 21 0 1
93
0 0 0.875
1 22 0 1
94
0 0.125 1
1 23 0 1
95
0 0.25 0.875
1 24 0 1
96
0.25 0 0.875
1 25 0 1
97
0.25 0.125 1
1 26 0 1
98
0.25 0.25 0.875
1 27 0 1
99
0.125 0 1
1 28 0 1
100
0.125 0.25 1
1 29 0 3
101
102
103
0 0.375 0.25
0 0.5 0.25
0 0.625 0.25
1 30 0 1
104
0 0.75 0.125
1 31 0 3
105
106
107
0 0.375 0
0 0.5 0
0 0.625 0
1 32 0 3
108
109
110
0.25 0.375 0.25
0.25 0.5 0.25
0.25 0.625 0.25
1 33 0 1
111
0.25 0.75 0.125
1 34 0 3
112
113
114
0.25 0.375 0
0.25 0.5 0
0.25 0.625 0
1 35 0 1
115
0.125 0.75 0
1 36 0 1
116
0.125 0.75 0.25
1 37 0 3
117
118
119
0 0.375 0.75
0 0.5 0.75
0 0.625 0.75
1 38 0 3
120
121
122
0 0.75 0.375
0 0.75 0.5
0 0.75 0.625
1 39 0 3
123
124
125
0.25 0.375 0.75
0.25 0.5 0.75
0.25 0.625 0.75
1 40 0 3
126
127
128
0.25 0.75 0.375
0.25 0.75 0.5
0.25 0.75 0.625
1 41 0 1
129
0.125 0.75 0.75
1 42 0 3
130
131
132
0 0.375 1
0 0.5 1
0 0.625 1
1 43 0 1
133
0 0.75 0.875
1 44 0 3
134
135
136
0.25 0.375 1
0.25 0.5 1
0.25 0.625 1
1 45 0 1
137
0.25 0.75 0.875
1 46 0 1
138
0.125 0.75 1
1 47 0 1
139
0 0.875 0.25
1 48 0 1
140
0 1 0.125
1 49 0 1
141
0 0.875 0
1 50 0 1
142
0.25 0.875 0.25
1 51 0 1
143
0.25 1 0.125
1 52 0 1
144
0.25 0.875 0
1 53 0 1
145
0.125 1 0
1 54 0 1
146
0.125 1 0.25
1 55 0 1
147
0 0.875 0.75
1 56 0 3
148
149
150
0 1 0.375
0 1 0.5
0 1 0.625
1 57 0 1
151
0.25 0.875 0.75
1 58 0 3
152
153
154
0.25 1 0.375
0.25 1 0.5
0.25 1 0.625
1 59 0 1
155
0.125 1 0.75
1 60 0 1
156
0 0.875 1
1 61 0 1
157
0 1 0.875
1 62 0 1
158
0.25 0.875 1
1 63 0 1
159
0.25 1 0.875
1 64 0 1
160
0.125 1 1
1 65 0 1
161
0.75 0 0.125
1 66 0 1
162
0.75 0.125 0.25
1 67 0 1
163
0.75 0.25 0.125
1 68 0 1
164
0.75 0.125 0
1 69 0 3
165
166
167
0.375 0 0
0.5 0 0
0.625 0 0
1 70 0 3
168
169
170
0.375 0 0.25
0.5 0 0.25
0.625 0 0.25
1 71 0 3
171
172
173
0.375 0.25 0
0.5 0.25 0
0.625 0.25 0
1 72 0 3
174
175
176
0.375 0.25 0.25
0.5 0.25 0.25
0.625 0.25 0.25
1 73 0 3
177
178
179
0.75 0 0.375
0.75 0 0.5
0.75 0 0.625
1 74 0 1
180
0.75 0.125 0.75
1 75 0 3
181
182
183
0.75 0.25 0.375
0.75 0.25 0.5
0.75 0.25 0.625
1 76 0 3
184
185
186
0.375 0 0.75
0.5 0 0.75
0.625 0 0.75
1 77 0 3
187
188
189
0.375 0.25 0.75
0.5 0.25 0.75
0.625 0.25 0.75
1 78 0 1
190
0.75 0 0.875
1 79 0 1
191
0.75 0.125 1
1 80 0 1
192
0.75 0.25 0.875
1 81 0 3
193
194
195
0.375 0 1
0.5 0 1
0.625 0 1
1 82 0 3
196
197
198
0.375 0.25 1
0.5 0.25 1
0.625 0.25 1
1 83 0 3
199
200
201
0.75 0.375 0.25
0.75 0.5 0.25
0.75 0.625 0.25
1 84 0 1
202
0.75 0.75 0.125
1 85 0 3
203
204
205
0.75 0.375 0
0.75 0.5 0
0.75 0.625 0
1 86 0 3
206
207
208
0.375 0.75 0
0.5 0.75 0
0.625 0.75 0
1 87 0 3
209
210
211
0.375 0.75 0.25
0.5 0.75 0.25
0.625 0.75 0.25
1 88 0 3
212
213
214
0.75 0.375 0.75
0.75 0.5 0.75
0.75 0.625 0.75
1 89 0 3
215
216
217
0.75 0.75 0.375
0.75 0.75 0.5
0.75 0.75 0.625
1 90 0 3
218
219
220
0.375 0.75 0.75
0.5 0.75 0.75
0.625 0.75 0.75
1 91 0 3
221
222
223
0.75 0.375 1
0.75 0.5 1
0.75 0.625 1
1 92 0 1
224
0.75 0.75 0.875
1 93 0 3
225
226
227
0.375 0.75 1
0.5 0.75 1
0.625 0.75 1
1 94 0 1
228
0.75 0.875 0.25
1 95 0 1
229
0.75 1 0.125
1 96 0 1
230
0.75 0.875 0
1 97 0 3
231
232
233
0.375 1 0
0.5 1 0
0.625 1 0
1 98 0 3
234
235
236
0.375 1 0.25
0.5 1 0.25
0.625 1 0.25
1 99 0 1
237
0.75 0.875 0.75
1 100 0 3
238
239
240
0.75 1 0.375
0.75 1 0.5
0.75 1 0.625
1 101 0 3
241
242
243
0.375 1 0.75
0.5 1 0.75
0.625 1 0.75
1 102 0 1
244
0.75 0.875 1
1 103 0 1
245
0.75 1 0.875
1 104 0 3
246
247
248
0.375 1 1
0.5 1 1
0.625 1 1
1 105 0 1
249
1 0 0.125
1 106 0 1
250
1 0.125 0.25
1 107 0 1
251
1 0.25 0.125
1 108 0 1
252
1 0.125 0
1 109 0 1
253
0.875 0 0
1 110 0 1
254
0.875 0 0.25
1 111 0 1
255
0.875 0.25 0
1 112 0 1
256
0.875 0.25 0.25
1 113 0 3
257
258
259
1 0 0.375
1 0 0.5
1 0 0.625
1 114 0 1
260
1 0.125 0.75
1 115 0 3
261
262
263
1 0.25 0.375
1 0.25 0.5
1 0.25 0.625
1 116 0 1
264
0.875 0 0.75
1 117 0 1
265
0.875 0.25 0.75
1 118 0 1
266
1 0 0.875
1 119 0 1
267
1 0.125 1
1 120 0 1
268
1 0.25 0.875
1 121 0 1
269
0.875 0 1
1 122 0 1
270
0.875 0.25 1
1 123 0 3
271
272
273
1 0.375 0.25
1 0.5 0.25
1 0.625 0.25
1 124 0 1
274
1 0.75 0.125
1 125 0 3
275
276
277
1 0.375 0
1 0.5 0
1 0.625 0
1 126 0 1
278
0.875 0.75 0
1 127 0 1
279
0.875 0.75 0.25
1 128 0 3
280
281
282
1 0.375 0.75
1 0.5 0.75
1 0.625 0.75
1 129 0 3
283
284
285
1 0.75 0.375
1 0.75 0.5
1 0.75 0.625
1 130 0 1
286
0.875 0.75 0.75
1 131 0 3
287
288
289
1 0.375 1
1 0.5 1
1 0.625 1
1 132 0 1
290
1 0.75 0.875
1 133 0 1
291
0.875 0.75 1
1 134 0 1
292
1 0.875 0.25
1 135 0 1
293
1 1 0.125
1 136 0 1
294
1 0.875 0
1 137 0 1
295
0.875 1 0
1 138 0 1
296
0.875 1 0.25
1 139 0 1
297
1 0.875 0.75
1 140 0 3
298
299
300
1 1 0.375
1 1 0.5
1 1 0.625
1 141 0 1
301
0.875 1 0.75
1 142 0 1
302
1 0.875 1
1 143 0 1
303
1 1 0.875
1 144 0 1
304
0.875 1 1
2 1 0 1
305
0 0.125 0.125
2 2 0 1
306
0.25 0.125 0.125
2 3 0 1
307
0.125 0 0.125
2 4 0 1
308
0.125 0.25 0.125
2 5 0 1
309
0.125 0.125 0
2 6 0 1
310
0.125 0.125 0.25
2 7 0 3
311
312
313
0 0.125 0.375
0 0.125 0.5
0 0.125 0.625
2 8 0 3
314
315
316
0.25 0.125 0.375
0.25 0.125 0.5
0.25 0.125 0.625
2 9 0 3
317
318
319
0.125 0 0.375
0.125 0 0.5
0.125 0 0.625
2 10 0 3
320
321
322
0.125 0.25 0.375
0.125 0.25 0.5
0.125 0.25 0.625
2 11 0 1
323
0.125 0.125 0.75
2 12 0 1
324
0 0.125 0.875
2 13 0 1
325
0.25 0.125 0.875
2 14 0 1
326
0.125 0 0.875
2 15 0 1
327
0.125 0.25 0.875
2 16 0 1
328
0.125 0.125 1
2 17 0 3
329
330
331
0 0.375 0.125
0 0.5 0.125
0 0.625 0.125
2 18 0 3
332
333
334
0.25 0.375 0.125
0.25 0.5 0.125
0.25 0.625 0.125
2 19 0 1
335
0.125 0.75 0.125
2 20 0 3
336
337
338
0.125 0.375 0
0.125 0.5 0
0.125 0.625 0
2 21 0 3
339
340
341
0.125 0.375 0.25
0.125 0.5 0.25
0.125 0.625 0.25
2 22 0 9
342
343
344
345
346
347
348
349
350
0 0.375 0.375
0 0.5 0.375
0 0.625 0.375
0 0.375 0.5
0 0.5 0.5
0 0.625 0.5
0 0.375 0.625
0 0.5 0.625
0 0.625 0.625
2 23 0 9
351
352
353
354
355
356
357
358
359
0.25 0.375 0.375
0.25 0.5 0.375
0.25 0.625 0.375
0.25 0.375 0.5
0.25 0.5 0.5
0.25 0.625 0.5
0.25 0.375 0.625
0.25 0.5 0.625
0.25 0.625 0.625
2 24 0 3
360
361
362
0.125 0.75 0.375
0.125 0.75 0.5
0.125 0.75 0.625
2 25 0 3
363
364
365
0.125 0.375 0.75
0.125 0.5 0.75
0.125 0.625 0.75
2 26 0 3
366
367
368
0 0.375 0.875
0 0.5 0.875
0 0.625 0.875
2 27 0 3
369
370
371
0.25 0.375 0.875
0.25 0.5 0.875
0.25 0.625 0.875
2 28 0 1
372
0.125 0.75 0.875
2 29 0 3
373
374
375
0.125 0.375 1
0.125 0.5 1
0.125 0.625 1
2 30 0 1
376
0 0.875 0.125
2 31 0 1
377
0.25 0.875 0.125
2 32 0 1
378
0.125 1 0.125
2 33 0 1
379
0.125 0.875 0
2 34 0 1
380
0.125 0.875 0.25
2 35 0 3
381
382
383
0 0.875 0.375
0 0.875 0.5
0 0.875 0.625
2 36 0 3
384
385
386
0.25 0.875 0.375
0.25 0.875 0.5
0.25 0.875 0.625
2 37 0 3
387
388
389
0.125 1 0.375
0.125 1 0.5
0.125 1 0.625
2 38 0 1
390
0.125 0.875 0.75
2 39 0 1
391
0 0.875 0.875
2 40 0 1
392
0.25 0.875 0.875
2 41 0 1
393
0.125 1 0.875
2 42 0 1
394
0.125 0.875 1
2 43 0 1
395
0.75 0.125 0.125
2 44 0 3
396
397
398
0.375 0 0.125
0.5 0 0.125
0.625 0 0.125
2 45 0 3
399
400
401
0.375 0.25 0.125
0.5 0.25 0.125
0.625 0.25 0.125
2 46 0 3
402
403
404
0.375 0.125 0
0.5 0.125 0
0.625 0.125 0
2 47 0 3
405
406
407
0.375 0.125 0.25
0.5 0.125 0.25
0.625 0.125 0.25
2 48 0 3
408
409
410
0.75 0.125 0.375
0.75 0.125 0.5
0.75 0.125 0.625
2 49 0 9
411
412
413
414
415
416
417
418
419
0.375 0 0.375
0.375 0 0.5
0.375 0 0.625
0.5 0 0.375
0.5 0 0.5
0.5 0 0.625
0.625 0 0.375
0.625 0 0.5
0.625 0 0.625
2 50 0 9
420
421
422
423
424
425
426
427
428
0.375 0.25 0.375
0.375 0.25 0.5
0.375 0.25 0.625
0.5 0.25 0.375
0.5 0.25 0.5
0.5 0.25 0.625
0.625 0.25 0.375
0.625 0.25 0.5
0.625 0.25 0.625
2 51 0 3
429
430
431
0.375 0.125 0.75
0.5 0.125 0.75
0.625 0.125 0.75
2 52 0 1
432
0.75 0.125 0.875
2 53 0 3
433
434
435
0.375 0 0.875
0.5 0 0.875
0.625 0 0.875
2 54 0 3
436
437
438
0.375 0.25 0.875
0.5 0.25 0.875
0.625 0.25 0.875
2 55 0 3
439
440
441
0.375 0.125 1
0.5 0.125 1
0.625 0.125 1
2 56 0 3
442
443
444
0.75 0.375 0.125
0.75 0.5 0.125
0.75 0.625 0.125
2 57 0 3
445
446
447
0.375 0.75 0.125
0.5 0.75 0.125
0.625 0.75 0.125
2 58 0 9
448
449
450
451
452
453
454
455
456
0.375 0.375 0
0.5 0.375 0
0.625 0.375 0
0.375 0.5 0
0.5 0.5 0
0.625 0.5 0
0.375 0.625 0
0.5 0.625 0
0.625 0.625 0
2 59 0 9
457
458
459
460
461
462
463
464
465
0.375 0.375 0.25
0.5 0.375 0.25
0.625 0.375 0.25
0.375 0.5 0.25
0.5 0.5 0.25
0.625 0.5 0.25
0.375 0.625 0.25
0.5 0.625 0.25
0.625 0.625 0.25
2 60 0 9
466
467
468
469
470
471
472
473
474
0.75 0.375 0.375
0.75 0.5 0.375
0.75 0.625 0.375
0.75 0.375 0.5
0.75 0.5 0.5
0.75 0.625 0.5
0.75 0.375 0.625
0.75 0.5 0.625
0.75 0.625 0.625
2 61 0 9
475
476
477
478
479
480
481
482
483
0.375 0.75 0.375
0.375 0.75 0.5
0.375 0.75 0.625
0.5 0.75 0.375
0.5 0.75 0.5
0.5 0.75 0.625
0.625 0.75 0.375
0.625 0.75 0.5
0.625 0.75 0.625
2 62 0 9
484
485
486
487
488
489
490
491
492
0.375 0.375 0.75
0.5 0.375 0.75
0.625 0.375 0.75
0.375 0.5 0.75
0.5 0.5 0.75
0.625 0.5 0.75
0.375 0.625 0.75
0.5 0.625 0.75
0.625 0.625 0.75
2 63 0 3
493
494
495
0.75 0.375 0.875
0.75 0.5 0.875
0.75 0.625 0.875
2 64 0 3
496
497
498
0.375 0.75 0.875
0.5 0.75 0.875
0.625 0.75 0.875
2 65 0 9
499
500
501
502
503
504
505
506
507
0.375 0.375 1
0.5 0.375 1
0.625 0.375 1
0.375 0.5 1
0.5 0.5 1
0.625 0.5 1
0.375 0.625 1
0.5 0.625 1
0.625 0.625 1
2 66 0 1
508
0.75 0.875 0.125
2 67 0 3
509
510
511
0.375 1 0.125
0.5 1 0.125
0.625 1 0.125
2 68 0 3
512
513
514
0.375 0.875 0
0.5 0.875 0
0.625 0.875 0
2 69 0 3
515
516
517
0.375 0.875 0.25
0.5 0.875 0.25
0.625 0.875 0.25
2 70 0 3
518
519
520
0.75 0.875 0.375
0.75 0.875 0.5
0.75 0.875 0.625
2 71 0 9
521
522
523
524
525
526
527
528
529
0.375 1 0.375
0.375 1 0.5
0.375 1 0.625
0.5 1 0.375
0.5 1 0.5
0.5 1 0.625
0.625 1 0.375
0.625 1 0.5
0.625 1 0.625
2 72 0 3
530
531
532
0.375 0.875 0.75
0.5 0.875 0.75
0.625 0.875 0.75
2 73 0 1
533
0.75 0.875 0.875
2 74 0 3
534
535
536
0.375 1 0.875
0.5 1 0.875
0.625 1 0.875
2 75 0 3
537
538
539
0.375 0.875 1
0.5 0.875 1
0.625 0.875 1
2 76 0 1
540
1 0.125 0.125
2 77 0 1
541
0.875 0 0.125
2 78 0 1
542
0.875 0.25 0.125
2 79 0 1
543
0.875 0.125 0
2 80 0 1
544
0.875 0.125 0.25
2 81 0 3
545
546
547
1 0.125 0.375
1 0.125 0.5
1 0.125 0.625
2 82 0 3
548
549
550
0.875 0 0.375
0.875 0 0.5
0.875 0 0.625
2 83 0 3
551
552
553
0.875 0.25 0.375
0.875 0.25 0.5
0.875 0.25 0.625
2 84 0 1
554
0.875 0.125 0.75
2 85 0 1
555
1 0.125 0.875
2 86 0 1
556
0.875 0 0.875
2 87 0 1
557
0.875 0.25 0.875
2 88 0 1
558
0.875 0.125 1
2 89 0 3
559
560
561
1 0.375 0.125
1 0.5 0.125
1 0.625 0.125
2 90 0 1
562
0.875 0.75 0.125
2 91 0 3
563
564
565
0.875 0.375 0
0.875 0.5 0
0.875 0.625 0
2 92 0 3
566
567
568
0.875 0.375 0.25
0.875 0.5 0.25
0.875 0.625 0.25
2 93 0 9
569
570
571
572
573
574
575
576
577
1 0.375 0.375
1 0.5 0.375
1 0.625 0.375
1 0.375 0.5
1 0.5 0.5
1 0.625 0.5
1 0.375 0.625
1 0.5 0.625
1 0.625 0.625
2 94 0 3
578
579
580
0.875 0.75 0.375
0.875 0.75 0.5
0.875 0.75 0.625
2 95 0 3
581
582
583
0.875 0.375 0.75
0.875 0.5 0.75
0.875 0.625 0.75
2 96 0 3
584
585
586
1 0.375 0.875
1 0.5 0.875
1 0.625 0.875
2 97 0 1
587
0.875 0.75 0.875
2 98 0 3
588
589
590
0.875 0.375 1
0.875 0.5 1
0.875 0.625 1
2 99 0 1
591
1 0.875 0.125
2 100 0 1
592
0.875 1 0.125
2 101 0 1
593
0.875 0.875 0
2 102 0 1
594
0.875 0.875 0.25
2 103 0 3
595
596
597
1 0.875 0.375
1 0.875 0.5
1 0.875 0.625
2 104 0 3
598
599
600
0.875 1 0.375
0.875 1 0.5
0.875 1 0.625
2 105 0 1
601
0.875 0.875 0.75
2 106 0 1
602
1 0.875 0.875
2 107 0 1
603
0.875 1 0.875
2 108 0 1
604
0.875 0.875 1
3 1 0 1
605
0.125 0.125 0.125
3 2 0 3
606
607
608
0.125 0.125 0.375
0.125 0.125 0.5
0.125 0.125 0.625
3 3 0 1
609
0.125 0.125 0.875
3 4 0 3
610
611
612
0.125 0.375 0.125
0.125 0.5 0.125
0.125 0.625 0.125
3 5 0 9
613
614
615
616
617
618
619
620
621
0.125 0.375 0.375
0.125 0.5 0.375
0.125 0.625 0.375
0.125 0.375 0.5
0.125 0.5 0.5
0.125 0.625 0.5
0.125 0.375 0.625
0.125 0.5 0.625
0.125 0.625 0.625
3 6 0 3
622
623
624
0.125 0.375 0.875
0.125 0.5 0.875
0.125 0.625 0.875
3 7 0 1
625
0.125 0.875 0.125
3 8 0 3
626
627
628
0.125 0.875 0.375
0.125 0.875 0.5
0.125 0.875 0.625
3 9 0 1
629
0.125 0.875 0.875
3 10 0 3
630
631
632
0.375 0.125 0.125
0.5 0.125 0.125
0.625 0.125 0.125
3 11 0 9
633
634
635
636
637
638
639
640
641
0.375 0.125 0.375
0.5 0.125 0.375
0.625 0.125 0.375
0.375 0.125 0.5
0.5 0.125 0.5
0.625 0.125 0.5
0.375 0.125 0.625
0.5 0.125 0.625
0.625 0.125 0.625
3 12 0 3
642
643
644
0.375 0.125 0.875
0.5 0.125 0.875
0.625 0.125 0.875
3 13 0 9
645
646
647
648
649
650
651
652
653
0.375 0.375 0.125
0.5 0.375 0.125
0.625 0.375 0.125
0.375 0.5 0.125
0.5 0.5 0.125
0.625 0.5 0.125
0.375 0.625 0.125
0.5 0.625 0.125
0.625 0.625 0.125
3 14 0 27
654
655
656
657
658
659
660
661
662
663
664
665
666
667
668
669
670
671
672
673
674
675
676
677
678
679
680
0.375 0.375 0.375
0.5 0.375 0.375
0.625 0.375 0.375
0.375 0.5 0.375
0.5 0.5 0.375
0.625 0.5 0.375
0.375 0.625 0.375
0.5 0.625 0.375
0.625 0.625 0.375
0.375 0.375 0.5
0.5 0.375 0.5
0.625 0.375 0.5
0.375 0.5 0.5
0.5 0.5 0.5
0.625 0.5 0.5
0.375 0.625 0.5
0.5 0.625 0.5
0.625 0.625 0.5
0.375 0.375 0.625
0.5 0.375 0.625
0.625 0.375 0.625
0.375 0.5 0.625
0.5 0.5 0.625
0.625 0.5 0.625
0.375 0.625 0.625
0.5 0.625 0.625
0.625 0.625 0.625
3 15 0 9
681
682
683
684
685
686
687
688
689
0.375 0.375 0.875
0.5 0.375 0.875
0.625 0.375 0.875
0.375 0.5 0.875
0.5 0.5 0.875
0.625 0.5 0.875
0.375 0.625 0.875
0.5 0.625 0.875
0.625 0.625 0.875
3 16 0 3
690
691
692
0.375 0.875 0.125
0.5 0.875 0.125
0.625 0.875 0.125
3 17 0 9
693
694
695
696
697
698
699
700
701
0.375 0.875 0.375
0.5 0.875 0.375
0.625 0.875 0.375
0.375 0.875 0.5
0.5 0.875 0.5
0.625 0.875 0.5
0.375 0.875 0.625
0.5 0.875 0.625
0.625 0.875 0.625
3 18 0 3
702
703
704
0.375 0.875 0.875
0.5 0.875 0.875
0.625 0.875 0.875
3 19 0 1
705
0.875 0.125 0.125
3 20 0 3
706
707
708
0.875 0.125 0.375
0.875 0.125 0.5
0.875 0.125 0.625
3 21 0 1
709
0.875 0.125 0.875
3 22 0 3
710
711
712
0.875 0.375 0.125
0.875 0.5 0.125
0.875 0.625 0.125
3 23 0 9
713
714
715
716
717
718
719
720
721
0.875 0.375 0.375
0.875 0.5 0.375
0.875 0.625 0.375
0.875 0.375 0.5
0.875 0.5 0.5
0.875 0.625 0.5
0.875 0.375 0.625
0.875 0.5 0.625
0.875 0.625 0.625
3 24 0 3
722
723
724
0.875 0.375 0.875
0.875 0.5 0.875
0.875 0.625 0.875
3 25 0 1
725
0.875 0.875 0.125
3 26 0 3
726
727
728
0.875 0.875 0.375
0.875 0.875 0.5
0.875 0.875 0.625
3 27 0 1
729
0.875 0.875 0.875
$EndNodes
$Elements
82 897 1 897
0 1 15 1
1 1 
2 1 3 4
2 1 65 305 68 
3 68 305 67 4 
4 65 2 66 305 
5 305 66 3 67 
2 3 3 4
6 1 73 307 65 
7 65 307 74 2 
8 73 5 69 307 
9 307 69 6 74 
2 5 3 4
10 1 68 309 73 
11 73 309 72 5 
12 68 4 75 309 
13 309 75 8 72 
2 7 3 8
14 2 77 311 66 
15 66 311 81 3 
16 77 78 312 311 
17 311 312 82 81 
18 78 79 313 312 
19 312 313 83 82 
20 79 9 80 313 
21 313 80 10 83 
2 9 3 8
22 2 74 317 77 
23 77 317 318 78 
24 78 318 319 79 
25 79 319 91 9 
26 74 6 84 317 
27 317 84 85 318 
28 318 85 86 319 
29 319 86 11 91 
2 12 3 4
30 9 93 324 80 
31 80 324 95 10 
32 93 13 94 324 
33 324 94 14 95 
2 14 3 4
34 9 91 326 93 
35 93 326 99 13 
36 91 11 96 326 
37 326 96 15 99 
2 16 3 4
38 13 99 328 94 
39 99 15 97 328 
40 94 328 100 14 
41 328 97 16 100 
2 17 3 8
42 4 67 329 105 
43 105 329 330 106 
44 106 330 331 107 
45 107 331 104 18 
46 67 3 101 329 
47 329 101 102 330 
48 330 102 103 331 
49 331 103 17 104 
2 20 3 8
50 4 105 336 75 
51 75 336 112 8 
52 105 106 337 336 
53 336 337 113 112 
54 106 107 338 337 
55 337 338 114 113 
56 107 18 115 338 
57 338 115 20 114 
2 22 3 16
58 3 81 342 101 
59 101 342 343 102 
60 102 343 344 103 
61 103 344 120 17 
62 81 82 345 342 
63 342 345 346 343 
64 343 346 347 344 
65 344 347 121 120 
66 82 83 348 345 
67 345 348 349 346 
68 346 349 350 347 
69 347 350 122 121 
70 83 10 117 348 
71 348 117 118 349 
72 349 118 119 350 
73 350 119 21 122 
2 26 3 8
74 10 95 366 117 
75 117 366 367 118 
76 118 367 368 119 
77 119 368 133 21 
78 95 14 130 366 
79 366 130 131 367 
80 367 131 132 368 
81 368 132 23 133 
2 29 3 8
82 14 100 373 130 
83 100 16 134 373 
84 130 373 374 131 
85 373 134 135 374 
86 131 374 375 132 
87 374 135 136 375 
88 132 375 138 23 
89 375 136 24 138 
2 30 3 4
90 18 104 376 141 
91 141 376 140 26 
92 104 17 139 376 
93 376 139 25 140 
2 32 3 4
94 26 140 378 145 
95 140 25 146 378 
96 145 378 143 28 
97 378 146 27 143 
2 33 3 4
98 18 141 379 115 
99 115 379 144 20 
100 141 26 145 379 
101 379 145 28 144 
2 35 3 8
102 17 120 381 139 
103 139 381 148 25 
104 120 121 382 381 
105 381 382 149 148 
106 121 122 383 382 
107 382 383 150 149 
108 122 21 147 383 
109 383 147 29 150 
2 37 3 8
110 25 148 387 146 
111 148 149 388 387 
112 149 150 389 388 
113 150 29 155 389 
114 146 387 152 27 
115 387 388 153 152 
116 388 389 154 153 
117 389 155 30 154 
2 39 3 4
118 21 133 391 147 
119 147 391 157 29 
120 133 23 156 391 
121 391 156 31 157 
2 41 3 4
122 29 157 393 155 
123 157 31 160 393 
124 155 393 159 30 
125 393 160 32 159 
2 42 3 4
126 23 138 394 156 
127 138 24 158 394 
128 156 394 160 31 
129 394 158 32 160 
2 44 3 8
130 5 165 396 69 
131 69 396 168 6 
132 165 166 397 396 
133 396 397 169 168 
134 166 167 398 397 
135 397 398 170 169 
136 167 33 161 398 
137 398 161 34 170 
2 46 3 8
138 5 72 402 165 
139 165 402 403 166 
140 166 403 404 167 
141 167 404 164 33 
142 72 8 171 402 
143 402 171 172 403 
144 403 172 173 404 
145 404 173 36 164 
2 49 3 16
146 6 168 411 84 
147 84 411 412 85 
148 85 412 413 86 
149 86 413 184 11 
150 168 169 414 411 
151 411 414 415 412 
152 412 415 416 413 
153 413 416 185 184 
154 169 170 417 414 
155 414 417 418 415 
156 415 418 419 416 
157 416 419 186 185 
158 170 34 177 417 
159 417 177 178 418 
160 418 178 179 419 
161 419 179 37 186 
2 53 3 8
162 11 184 433 96 
163 96 433 193 15 
164 184 185 434 433 
165 433 434 194 193 
166 185 186 435 434 
167 434 435 195 194 
168 186 37 190 435 
169 435 190 39 195 
2 55 3 8
170 15 193 439 97 
171 193 194 440 439 
172 194 195 441 440 
173 195 39 191 441 
174 97 439 196 16 
175 439 440 197 196 
176 440 441 198 197 
177 441 191 40 198 
2 58 3 16
178 8 112 448 171 
179 171 448 449 172 
180 172 449 450 173 
181 173 450 203 36 
182 112 113 451 448 
183 448 451 452 449 
184 449 452 453 450 
185 450 453 204 203 
186 113 114 454 451 
187 451 454 455 452 
188 452 455 456 453 
189 453 456 205 204 
190 114 20 206 454 
191 454 206 207 455 
192 455 207 208 456 
193 456 208 42 205 
2 65 3 16
194 16 196 499 134 
195 196 197 500 499 
196 197 198 501 500 
197 198 40 221 501 
198 134 499 502 135 
199 499 500 503 502 
200 500 501 504 503 
201 501 221 222 504 
202 135 502 505 136 
203 502 503 506 505 
204 503 504 507 506 
205 504 222 223 507 
206 136 505 225 24 
207 505 506 226 225 
208 506 507 227 226 
209 507 223 44 227 
2 67 3 8
210 28 143 509 231 
211 143 27 234 509 
212 231 509 510 232 
213 509 234 235 510 
214 232 510 511 233 
215 510 235 236 511 
216 233 511 229 46 
217 511 236 45 229 
2 68 3 8
218 20 144 512 206 
219 206 512 513 207 
220 207 513 514 208 
221 208 514 230 42 
222 144 28 231 512 
223 512 231 232 513 
224 513 232 233 514 
225 514 233 46 230 
2 71 3 16
226 27 152 521 234 
227 152 153 522 521 
228 153 154 523 522 
229 154 30 241 523 
230 234 521 524 235 
231 521 522 525 524 
232 522 523 526 525 
233 523 241 242 526 
234 235 524 527 236 
235 524 525 528 527 
236 525 526 529 528 
237 526 242 243 529 
238 236 527 238 45 
239 527 528 239 238 
240 528 529 240 239 
241 529 243 47 240 
2 74 3 8
242 30 159 534 241 
243 159 32 246 534 
244 241 534 535 242 
245 534 246 247 535 
246 242 535 536 243 
247 535 247 248 536 
248 243 536 245 47 
249 536 248 48 245 
2 75 3 8
250 24 225 537 158 
251 225 226 538 537 
252 226 227 539 538 
253 227 44 244 539 
254 158 537 246 32 
255 537 538 247 246 
256 538 539 248 247 
257 539 244 48 248 
2 76 3 4
258 49 252 540 249 
259 252 52 251 540 
260 249 540 250 50 
261 540 251 51 250 
2 77 3 4
262 33 253 541 161 
263 161 541 254 34 
264 253 49 249 541 
265 541 249 50 254 
2 79 3 4
266 33 164 543 253 
267 253 543 252 49 
268 164 36 255 543 
269 543 255 52 252 
2 81 3 8
270 50 250 545 257 
271 250 51 261 545 
272 257 545 546 258 
273 545 261 262 546 
274 258 546 547 259 
275 546 262 263 547 
276 259 547 260 53 
277 547 263 54 260 
2 82 3 8
278 34 254 548 177 
279 177 548 549 178 
280 178 549 550 179 
281 179 550 264 37 
282 254 50 257 548 
283 548 257 258 549 
284 549 258 259 550 
285 550 259 53 264 
2 85 3 4
286 53 260 555 266 
287 260 54 268 555 
288 266 555 267 55 
289 555 268 56 267 
2 86 3 4
290 37 264 556 190 
291 190 556 269 39 
292 264 53 266 556 
293 556 266 55 269 
2 88 3 4
294 39 269 558 191 
295 269 55 267 558 
296 191 558 270 40 
297 558 267 56 270 
2 89 3 8
298 52 275 559 251 
299 275 276 560 559 
300 276 277 561 560 
301 277 58 274 561 
302 251 559 271 51 
303 559 560 272 271 
304 560 561 273 272 
305 561 274 57 273 
2 91 3 8
306 36 203 563 255 
307 255 563 275 52 
308 203 204 564 563 
309 563 564 276 275 
310 204 205 565 564 
311 564 565 277 276 
312 205 42 278 565 
313 565 278 58 277 
2 93 3 16
314 51 271 569 261 
315 271 272 570 569 
316 272 273 571 570 
317 273 57 283 571 
318 261 569 572 262 
319 569 570 573 572 
320 570 571 574 573 
321 571 283 284 574 
322 262 572 575 263 
323 572 573 576 575 
324 573 574 577 576 
325 574 284 285 577 
326 263 575 280 54 
327 575 576 281 280 
328 576 577 282 281 
329 577 285 59 282 
2 96 3 8
330 54 280 584 268 
331 280 281 585 584 
332 281 282 586 585 
333 282 59 290 586 
334 268 584 287 56 
335 584 585 288 287 
336 585 586 289 288 
337 586 290 60 289 
2 98 3 8
338 40 270 588 221 
339 270 56 287 588 
340 221 588 589 222 
341 588 287 288 589 
342 222 589 590 223 
343 589 288 289 590 
344 223 590 291 44 
345 590 289 60 291 
2 99 3 4
346 58 294 591 274 
347 294 62 293 591 
348 274 591 292 57 
349 591 293 61 292 
2 100 3 4
350 46 229 592 295 
351 229 45 296 592 
352 295 592 293 62 
353 592 296 61 293 
2 101 3 4
354 42 230 593 278 
355 278 593 294 58 
356 230 46 295 593 
357 593 295 62 294 
2 103 3 8
358 57 292 595 283 
359 292 61 298 595 
360 283 595 596 284 
361 595 298 299 596 
362 284 596 597 285 
363 596 299 300 597 
364 285 597 297 59 
365 597 300 63 297 
2 104 3 8
366 45 238 598 296 
367 238 239 599 598 
368 239 240 600 599 
369 240 47 301 600 
370 296 598 298 61 
371 598 599 299 298 
372 599 600 300 299 
373 600 301 63 300 
2 106 3 4
374 59 297 602 290 
375 297 63 303 602 
376 290 602 302 60 
377 602 303 64 302 
2 107 3 4
378 47 245 603 301 
379 245 48 304 603 
380 301 603 303 63 
381 603 304 64 303 
2 108 3 4
382 44 291 604 244 
383 291 60 302 604 
384 244 604 304 48 
385 604 302 64 304 
3 1 5 8
386 305 65 1 68 605 307 73 309 
387 605 307 73 309 306 69 5 72 
388 67 305 68 4 308 605 309 75 
389 308 605 309 75 71 306 72 8 
390 66 2 65 305 310 74 307 605 
391 310 74 307 605 70 6 69 306 
392 3 66 305 67 76 310 605 308 
393 76 310 605 308 7 70 306 71 
3 2 5 16
394 311 77 2 66 606 317 74 310 
395 606 317 74 310 314 84 6 70 
396 81 311 66 3 320 606 310 76 
397 320 606 310 76 88 314 70 7 
398 312 78 77 311 607 318 317 606 
399 607 318 317 606 315 85 84 314 
400 82 312 311 81 321 607 606 320 
401 321 607 606 320 89 315 314 88 
402 313 79 78 312 608 319 318 607 
403 608 319 318 607 316 86 85 315 
404 83 313 312 82 322 608 607 321 
405 322 608 607 321 90 316 315 89 
406 80 9 79 313 323 91 319 608 
407 323 91 319 608 87 11 86 316 
408 10 80 313 83 92 323 608 322 
409 92 323 608 322 12 87 316 90 
3 3 5 8
410 324 93 9 80 609 326 91 323 
411 609 326 91 323 325 96 11 87 
412 95 324 80 10 327 609 323 92 
413 327 609 323 92 98 325 87 12 
414 94 13 93 324 328 99 326 609 
415 328 99 326 609 97 15 96 325 
416 14 94 324 95 100 328 609 327 
417 100 328 609 327 16 97 325 98 
3 4 5 16
418 329 67 4 105 610 308 75 336 
419 610 308 75 336 332 71 8 112 
420 330 329 105 106 611 610 336 337 
421 611 610 336 337 333 332 112 113 
422 331 330 106 107 612 611 337 338 
423 612 611 337 338 334 333 113 114 
424 104 331 107 18 335 612 338 115 
425 335 612 338 115 111 334 114 20 
426 101 3 67 329 339 76 308 610 
427 339 76 308 610 108 7 71 332 
428 102 101 329 330 340 339 610 611 
429 340 339 610 611 109 108 332 333 
430 103 102 330 331 341 340 611 612 
431 341 340 611 612 110 109 333 334 
432 17 103 331 104 116 341 612 335 
433 116 341 612 335 19 110 334 111 
3 5 5 32
434 342 81 3 101 613 320 76 339 
435 613 320 76 339 351 88 7 108 
436 343 342 101 102 614 613 339 340 
437 614 613 339 340 352 351 108 109 
438 344 343 102 103 615 614 340 341 
439 615 614 340 341 353 352 109 110 
440 120 344 103 17 360 615 341 116 
441 360 615 341 116 126 353 110 19 
442 345 82 81 342 616 321 320 613 
443 616 321 320 613 354 89 88 351 
444 346 345 342 343 617 616 613 614 
445 617 616 613 614 355 354 351 352 
446 347 346 343 344 618 617 614 615 
447 618 617 614 615 356 355 352 353 
448 121 347 344 120 361 618 615 360 
449 361 618 615 360 127 356 353 126 
450 348 83 82 345 619 322 321 616 
451 619 322 321 616 357 90 89 354 
452 349 348 345 346 620 619 616 617 
453 620 619 616 617 358 357 354 355 
454 350 349 346 347 621 620 617 618 
455 621 620 617 618 359 358 355 356 
456 122 350 347 121 362 621 618 361 
457 362 621 618 361 128 359 356 127 
458 117 10 83 348 363 92 322 619 
459 363 92 322 619 123 12 90 357 
460 118 117 348 349 364 363 619 620 
461 364 363 619 620 124 123 357 358 
462 119 118 349 350 365 364 620 621 
463 365 364 620 621 125 124 358 359 
464 21 119 350 122 129 365 621 362 
465 129 365 621 362 22 125 359 128 
3 6 5 16
466 366 95 10 117 622 327 92 363 
467 622 327 92 363 369 98 12 123 
468 367 366 117 118 623 622 363 364 
469 623 622 363 364 370 369 123 124 
470 368 367 118 119 624 623 364 365 
471 624 623 364 365 371 370 124 125 
472 133 368 119 21 372 624 365 129 
473 372 624 365 129 137 371 125 22 
474 130 14 95 366 373 100 327 622 
475 373 100 327 622 134 16 98 369 
476 131 130 366 367 374 373 622 623 
477 374 373 622 623 135 134 369 370 
478 132 131 367 368 375 374 623 624 
479 375 374 623 624 136 135 370 371 
480 23 132 368 133 138 375 624 372 
481 138 375 624 372 24 136 371 137 
3 7 5 8
482 376 104 18 141 625 335 115 379 
483 625 335 115 379 377 111 20 144 
484 140 376 141 26 378 625 379 145 
485 378 625 379 145 143 377 144 28 
486 139 17 104 376 380 116 335 625 
487 380 116 335 625 142 19 111 377 
488 25 139 376 140 146 380 625 378 
489 146 380 625 378 27 142 377 143 
3 8 5 16
490 381 120 17 139 626 360 116 380 
491 626 360 116 380 384 126 19 142 
492 148 381 139 25 387 626 380 146 
493 387 626 380 146 152 384 142 27 
494 382 121 120 381 627 361 360 626 
495 627 361 360 626 385 127 126 384 
496 149 382 381 148 388 627 626 387 
497 388 627 626 387 153 385 384 152 
498 383 122 121 382 628 362 361 627 
499 628 362 361 627 386 128 127 385 
500 150 383 382 149 389 628 627 388 
501 389 628 627 388 154 386 385 153 
502 147 21 122 383 390 129 362 628 
503 390 129 362 628 151 22 128 386 
504 29 147 383 150 155 390 628 389 
505 155 390 628 389 30 151 386 154 
3 9 5 8
506 391 133 21 147 629 372 129 390 
507 629 372 129 390 392 137 22 151 
508 157 391 147 29 393 629 390 155 
509 393 629 390 155 159 392 151 30 
510 156 23 133 391 394 138 372 629 
511 394 138 372 629 158 24 137 392 
512 31 156 391 157 160 394 629 393 
513 160 394 629 393 32 158 392 159 
3 10 5 16
514 306 69 5 72 630 396 165 402 
515 630 396 165 402 631 397 166 403 
516 631 397 166 403 632 398 167 404 
517 632 398 167 404 395 161 33 164 
518 71 306 72 8 399 630 402 171 
519 399 630 402 171 400 631 403 172 
520 400 631 403 172 401 632 404 173 
521 401 632 404 173 163 395 164 36 
522 70 6 69 306 405 168 396 630 
523 405 168 396 630 406 169 397 631 
524 406 169 397 631 407 170 398 632 
525 407 170 398 632 162 34 161 395 
526 7 70 306 71 174 405 630 399 
527 174 405 630 399 175 406 631 400 
528 175 406 631 400 176 407 632 401 
529 176 407 632 401 35 162 395 163 
3 11 5 32
530 314 84 6 70 633 411 168 405 
531 633 411 168 405 634 414 169 406 
532 634 414 169 406 635 417 170 407 
533 635 417 170 407 408 177 34 162 
534 88 314 70 7 420 633 405 174 
535 420 633 405 174 423 634 406 175 
536 423 634 406 175 426 635 407 176 
537 426 635 407 176 181 408 162 35 
538 315 85 84 314 636 412 411 633 
539 636 412 411 633 637 415 414 634 
540 637 415 414 634 638 418 417 635 
541 638 418 417 635 409 178 177 408 
542 89 315 314 88 421 636 633 420 
543 421 636 633 420 424 637 634 423 
544 424 637 634 423 427 638 635 426 
545 427 638 635 426 182 409 408 181 
546 316 86 85 315 639 413 412 636 
547 639 413 412 636 640 416 415 637 
548 640 416 415 637 641 419 418 638 
549 641 419 418 638 410 179 178 409 
550 90 316 315 89 422 639 636 421 
551 422 639 636 421 425 640 637 424 
552 425 640 637 424 428 641 638 427 
553 428 641 638 427 183 410 409 182 
554 87 11 86 316 429 184 413 639 
555 429 184 413 639 430 185 416 640 
556 430 185 416 640 431 186 419 641 
557 431 186 419 641 180 37 179 410 
558 12 87 316 90 187 429 639 422 
559 187 429 639 422 188 430 640 425 
560 188 430 640 425 189 431 641 428 
561 189 431 641 428 38 180 410 183 
3 12 5 16
562 325 96 11 87 642 433 184 429 
563 642 433 184 429 643 434 185 430 
564 643 434 185 430 644 435 186 431 
565 644 435 186 431 432 190 37 180 
566 98 325 87 12 436 642 429 187 
567 436 642 429 187 437 643 430 188 
568 437 643 430 188 438 644 431 189 
569 438 644 431 189 192 432 180 38 
570 97 15 96 325 439 193 433 642 
571 439 193 433 642 440 194 434 643 
572 440 194 434 643 441 195 435 644 
573 441 195 435 644 191 39 190 432 
574 16 97 325 98 196 439 642 436 
575 196 439 642 436 197 440 643 437 
576 197 440 643 437 198 441 644 438 
577 198 441 644 438 40 191 432 192 
3 13 5 32
578 332 71 8 112 645 399 171 448 
579 645 399 171 448 646 400 172 449 
580 646 400 172 449 647 401 173 450 
581 647 401 173 450 442 163 36 203 
582 333 332 112 113 648 645 448 451 
583 648 645 448 451 649 646 449 452 
584 649 646 449 452 650 647 450 453 
585 650 647 450 453 443 442 203 204 
586 334 333 113 114 651 648 451 454 
587 651 648 451 454 652 649 452 455 
588 652 649 452 455 653 650 453 456 
589 653 650 453 456 444 443 204 205 
590 111 334 114 20 445 651 454 206 
591 445 651 454 206 446 652 455 207 
592 446 652 455 207 447 653 456 208 
593 447 653 456 208 202 444 205 42 
594 108 7 71 332 457 174 399 645 
595 457 174 399 645 458 175 400 646 
596 458 175 400 646 459 176 401 647 
597 459 176 401 647 199 35 163 442 
598 109 108 332 333 460 457 645 648 
599 460 457 645 648 461 458 646 649 
600 461 458 646 649 462 459 647 650 
601 462 459 647 650 200 199 442 443 
602 110 109 333 334 463 460 648 651 
603 463 460 648 651 464 461 649 652 
604 464 461 649 652 465 462 650 653 
605 465 462 650 653 201 200 443 444 
606 19 110 334 111 209 463 651 445 
607 209 463 651 445 210 464 652 446 
608 210 464 652 446 211 465 653 447 
609 211 465 653 447 41 201 444 202 
3 14 5 64
610 351 88 7 108 654 420 174 457 
611 654 420 174 457 655 423 175 458 
612 655 423 175 458 656 426 176 459 
613 656 426 176 459 466 181 35 199 
614 352 351 108 109 657 654 457 460 
615 657 654 457 460 658 655 458 461 
616 658 655 458 461 659 656 459 462 
617 659 656 459 462 467 466 199 200 
618 353 352 109 110 660 657 460 463 
619 660 657 460 463 661 658 461 464 
620 661 658 461 464 662 659 462 465 
621 662 659 462 465 468 467 200 201 
622 126 353 110 19 475 660 463 209 
623 475 660 463 209 478 661 464 210 
624 478 661 464 210 481 662 465 211 
625 481 662 465 211 215 468 201 41 
626 354 89 88 351 663 421 420 654 
627 663 421 420 654 664 424 423 655 
628 664 424 423 655 665 427 426 656 
629 665 427 426 656 469 182 181 466 
630 355 354 351 352 666 663 654 657 
631 666 663 654 657 667 664 655 658 
632 667 664 655 658 668 665 656 659 
633 668 665 656 659 470 469 466 467 
634 356 355 352 353 669 666 657 660 
635 669 666 657 660 670 667 658 661 
636 670 667 658 661 671 668 659 662 
637 671 668 659 662 471 470 467 468 
638 127 356 353 126 476 669 660 475 
639 476 669 660 475 479 670 661 478 
640 479 670 661 478 482 671 662 481 
641 482 671 662 481 216 471 468 215 
642 357 90 89 354 672 422 421 663 
643 672 422 421 663 673 425 424 664 
644 673 425 424 664 674 428 427 665 
645 674 428 427 665 472 183 182 469 
646 358 357 354 355 675 672 663 666 
647 675 672 663 666 676 673 664 667 
648 676 673 664 667 677 674 665 668 
649 677 674 665 668 473 472 469 470 
650 359 358 355 356 678 675 666 669 
651 678 675 666 669 679 676 667 670 
652 679 676 667 670 680 677 668 671 
653 680 677 668 671 474 473 470 471 
654 128 359 356 127 477 678 669 476 
655 477 678 669 476 480 679 670 479 
656 480 679 670 479 483 680 671 482 
657 483 680 671 482 217 474 471 216 
658 123 12 90 357 484 187 422 672 
659 484 187 422 672 485 188 425 673 
660 485 188 425 673 486 189 428 674 
661 486 189 428 674 212 38 183 472 
662 124 123 357 358 487 484 672 675 
663 487 484 672 675 488 485 673 676 
664 488 485 673 676 489 486 674 677 
665 489 486 674 677 213 212 472 473 
666 125 124 358 359 490 487 675 678 
667 490 487 675 678 491 488 676 679 
668 491 488 676 679 492 489 677 680 
669 492 489 677 680 214 213 473 474 
670 22 125 359 128 218 490 678 477 
671 218 490 678 477 219 491 679 480 
672 219 491 679 480 220 492 680 483 
673 220 492 680 483 43 214 474 217 
3 15 5 32
674 369 98 12 123 681 436 187 484 
675 681 436 187 484 682 437 188 485 
676 682 437 188 485 683 438 189 486 
677 683 438 189 486 493 192 38 212 
678 370 369 123 124 684 681 484 487 
679 684 681 484 487 685 682 485 488 
680 685 682 485 488 686 683 486 489 
681 686 683 486 489 494 493 212 213 
682 371 370 124 125 687 684 487 490 
683 687 684 487 490 688 685 488 491 
684 688 685 488 491 689 686 489 492 
685 689 686 489 492 495 494 213 214 
686 137 371 125 22 496 687 490 218 
687 496 687 490 218 497 688 491 219 
688 497 688 491 219 498 689 492 220 
689 498 689 492 220 224 495 214 43 
690 134 16 98 369 499 196 436 681 
691 499 196 436 681 500 197 437 682 
692 500 197 437 682 501 198 438 683 
693 501 198 438 683 221 40 192 493 
694 135 134 369 370 502 499 681 684 
695 502 499 681 684 503 500 682 685 
696 503 500 682 685 504 501 683 686 
697 504 501 683 686 222 221 493 494 
698 136 135 370 371 505 502 684 687 
699 505 502 684 687 506 503 685 688 
700 506 503 685 688 507 504 686 689 
701 507 504 686 689 223 222 494 495 
702 24 136 371 137 225 505 687 496 
703 225 505 687 496 226 506 688 497 
704 226 506 688 497 227 507 689 498 
705 227 507 689 498 44 223 495 224 
3 16 5 16
706 377 111 20 144 690 445 206 512 
707 690 445 206 512 691 446 207 513 
708 691 446 207 513 692 447 208 514 
709 692 447 208 514 508 202 42 230 
710 143 377 144 28 509 690 512 231 
711 509 690 512 231 510 691 513 232 
712 510 691 513 232 511 692 514 233 
713 511 692 514 233 229 508 230 46 
714 142 19 111 377 515 209 445 690 
715 515 209 445 690 516 210 446 691 
716 516 210 446 691 517 211 447 692 
717 517 211 447 692 228 41 202 508 
718 27 142 377 143 234 515 690 509 
719 234 515 690 509 235 516 691 510 
720 235 516 691 510 236 517 692 511 
721 236 517 692 511 45 228 508 229 
3 17 5 32
722 384 126 19 142 693 475 209 515 
723 693 475 209 515 694 478 210 516 
724 694 478 210 516 695 481 211 517 
725 695 481 211 517 518 215 41 228 
726 152 384 142 27 521 693 515 234 
727 521 693 515 234 524 694 516 235 
728 524 694 516 235 527 695 517 236 
729 527 695 517 236 238 518 228 45 
730 385 127 126 384 696 476 475 693 
731 696 476 475 693 697 479 478 694 
732 697 479 478 694 698 482 481 695 
733 698 482 481 695 519 216 215 518 
734 153 385 384 152 522 696 693 521 
735 522 696 693 521 525 697 694 524 
736 525 697 694 524 528 698 695 527 
737 528 698 695 527 239 519 518 238 
738 386 128 127 385 699 477 476 696 
739 699 477 476 696 700 480 479 697 
740 700 480 479 697 701 483 482 698 
741 701 483 482 698 520 217 216 519 
742 154 386 385 153 523 699 696 522 
743 523 699 696 522 526 700 697 525 
744 526 700 697 525 529 701 698 528 
745 529 701 698 528 240 520 519 239 
746 151 22 128 386 530 218 477 699 
747 530 218 477 699 531 219 480 700 
748 531 219 480 700 532 220 483 701 
749 532 220 483 701 237 43 217 520 
750 30 151 386 154 241 530 699 523 
751 241 530 699 523 242 531 700 526 
752 242 531 700 526 243 532 701 529 
753 243 532 701 529 47 237 520 240 
3 18 5 16
754 392 137 22 151 702 496 218 530 
755 702 496 218 530 703 497 219 531 
756 703 497 219 531 704 498 220 532 
757 704 498 220 532 533 224 43 237 
758 159 392 151 30 534 702 530 241 
759 534 702 530 241 535 703 531 242 
760 535 703 531 242 536 704 532 243 
761 536 704 532 243 245 533 237 47 
762 158 24 137 392 537 225 496 702 
763 537 225 496 702 538 226 497 703 
764 538 226 497 703 539 227 498 704 
765 539 227 498 704 244 44 224 533 
766 32 158 392 159 246 537 702 534 
767 246 537 702 534 247 538 703 535 
768 247 538 703 535 248 539 704 536 
769 248 539 704 536 48 244 533 245 
3 19 5 8
770 395 161 33 164 705 541 253 543 
771 705 541 253 543 540 249 49 252 
772 163 395 164 36 542 705 543 255 
773 542 705 543 255 251 540 252 52 
774 162 34 161 395 544 254 541 705 
775 544 254 541 705 250 50 249 540 
776 35 162 395 163 256 544 705 542 
777 256 544 705 542 51 250 540 251 
3 20 5 16
778 408 177 34 162 706 548 254 544 
779 706 548 254 544 545 257 50 250 
780 181 408 162 35 551 706 544 256 
781 551 706 544 256 261 545 250 51 
782 409 178 177 408 707 549 548 706 
783 707 549 548 706 546 258 257 545 
784 182 409 408 181 552 707 706 551 
785 552 707 706 551 262 546 545 261 
786 410 179 178 409 708 550 549 707 
787 708 550 549 707 547 259 258 546 
788 183 410 409 182 553 708 707 552 
789 553 708 707 552 263 547 546 262 
790 180 37 179 410 554 264 550 708 
791 554 264 550 708 260 53 259 547 
792 38 180 410 183 265 554 708 553 
793 265 554 708 553 54 260 547 263 
3 21 5 8
794 432 190 37 180 709 556 264 554 
795 709 556 264 554 555 266 53 260 
796 192 432 180 38 557 709 554 265 
797 557 709 554 265 268 555 260 54 
798 191 39 190 432 558 269 556 709 
799 558 269 556 709 267 55 266 555 
800 40 191 432 192 270 558 709 557 
801 270 558 709 557 56 267 555 268 
3 22 5 16
802 442 163 36 203 710 542 255 563 
803 710 542 255 563 559 251 52 275 
804 443 442 203 204 711 710 563 564 
805 711 710 563 564 560 559 275 276 
806 444 443 204 205 712 711 564 565 
807 712 711 564 565 561 560 276 277 
808 202 444 205 42 562 712 565 278 
809 562 712 565 278 274 561 277 58 
810 199 35 163 442 566 256 542 710 
811 566 256 542 710 271 51 251 559 
812 200 199 442 443 567 566 710 711 
813 567 566 710 711 272 271 559 560 
814 201 200 443 444 568 567 711 712 
815 568 567 711 712 273 272 560 561 
816 41 201 444 202 279 568 712 562 
817 279 568 712 562 57 273 561 274 
3 23 5 32
818 466 181 35 199 713 551 256 566 
819 713 551 256 566 569 261 51 271 
820 467 466 199 200 714 713 566 567 
821 714 713 566 567 570 569 271 272 
822 468 467 200 201 715 714 567 568 
823 715 714 567 568 571 570 272 273 
824 215 468 201 41 578 715 568 279 
825 578 715 568 279 283 571 273 57 
826 469 182 181 466 716 552 551 713 
827 716 552 551 713 572 262 261 569 
828 470 469 466 467 717 716 713 714 
829 717 716 713 714 573 572 569 570 
830 471 470 467 468 718 717 714 715 
831 718 717 714 715 574 573 570 571 
832 216 471 468 215 579 718 715 578 
833 579 718 715 578 284 574 571 283 
834 472 183 182 469 719 553 552 716 
835 719 553 552 716 575 263 262 572 
836 473 472 469 470 720 719 716 717 
837 720 719 716 717 576 575 572 573 
838 474 473 470 471 721 720 717 718 
839 721 720 717 718 577 576 573 574 
840 217 474 471 216 580 721 718 579 
841 580 721 718 579 285 577 574 284 
842 212 38 183 472 581 265 553 719 
843 581 265 553 719 280 54 263 575 
844 213 212 472 473 582 581 719 720 
845 582 581 719 720 281 280 575 576 
846 214 213 473 474 583 582 720 721 
847 583 582 720 721 282 281 576 577 
848 43 214 474 217 286 583 721 580 
849 286 583 721 580 59 282 577 285 
3 24 5 16
850 493 192 38 212 722 557 265 581 
851 722 557 265 581 584 268 54 280 
852 494 493 212 213 723 722 581 582 
853 723 722 581 582 585 584 280 281 
854 495 494 213 214 724 723 582 583 
855 724 723 582 583 586 585 281 282 
856 224 495 214 43 587 724 583 286 
857 587 724 583 286 290 586 282 59 
858 221 40 192 493 588 270 557 722 
859 588 270 557 722 287 56 268 584 
860 222 221 493 494 589 588 722 723 
861 589 588 722 723 288 287 584 585 
862 223 222 494 495 590 589 723 724 
863 590 589 723 724 289 288 585 586 
864 44 223 495 224 291 590 724 587 
865 291 590 724 587 60 289 586 290 
3 25 5 8
866 508 202 42 230 725 562 278 593 
867 725 562 278 593 591 274 58 294 
868 229 508 230 46 592 725 593 295 
869 592 725 593 295 293 591 294 62 
870 228 41 202 508 594 279 562 725 
871 594 279 562 725 292 57 274 591 
872 45 228 508 229 296 594 725 592 
873 296 594 725 592 61 292 591 293 
3 26 5 16
874 518 215 41 228 726 578 279 594 
875 726 578 279 594 595 283 57 292 
876 238 518 228 45 598 726 594 296 
877 598 726 594 296 298 595 292 61 
878 519 216 215 518 727 579 578 726 
879 727 579 578 726 596 284 283 595 
880 239 519 518 238 599 727 726 598 
881 599 727 726 598 299 596 595 298 
882 520 217 216 519 728 580 579 727 
883 728 580 579 727 597 285 284 596 
884 240 520 519 239 600 728 727 599 
885 600 728 727 599 300 597 596 299 
886 237 43 217 520 601 286 580 728 
887 601 286 580 728 297 59 285 597 
888 47 237 520 240 301 601 728 600 
889 301 601 728 600 63 297 597 300 
3 27 5 8
890 533 224 43 237 729 587 286 601 
891 729 587 286 601 602 290 59 297 
892 245 533 237 47 603 729 601 301 
893 603 729 601 301 303 602 297 63 
894 244 44 224 533 604 291 587 729 
895 604 291 587 729 302 60 290 602 
896 48 244 533 245 304 604 729 603 
897 304 604 729 603 64 302 602 303 
$EndElements
$Periodic
127
0 13 1
16 1 0 0 0 0 1 0 0 0 0 1 1 0 0 0 1
1
13 1
0 14 4
16 1 0 0 0 0 1 0 0 0 0 1 1 0 0 0 1
1
14 4
0 15 5
16 1 0 0 0 0 1 0 0 0 0 1 1 0 0 0 1
1
15 5
0 16 8
16 1 0 0 0 0 1 0 0 0 0 1 1 0 0 0 1
1
16 8
0 23 18
16 1 0 0 0 0 1 0 0 0 0 1 1 0 0 0 1
1
23 18
0 24 20
16 1 0 0 0 0 1 0 0 0 0 1 1 0 0 0 1
1
24 20
0 25 2
16 1 0 0 0 0 1 0 1 0 0 1 0 0 0 0 1
1
25 2
0 26 1
16 1 0 0 0 0 1 0 1 0 0 1 0 0 0 0 1
1
26 1
0 27 6
16 1 0 0 0 0 1 0 1 0 0 1 0 0 0 0 1
1
27 6
0 28 5
16 1 0 0 0 0 1 0 1 0 0 1 0 0 0 0 1
1
28 5
0 29 9
16 1 0 0 0 0 1 0 1 0 0 1 0 0 0 0 1
1
29 9
0 30 11
16 1 0 0 0 0 1 0 1 0 0 1 0 0 0 0 1
1
30 11
0 31 26
16 1 0 0 0 0 1 0 0 0 0 1 1 0 0 0 1
1
31 26
0 32 28
16 1 0 0 0 0 1 0 0 0 0 1 1 0 0 0 1
1
32 28
0 39 33
16 1 0 0 0 0 1 0 0 0 0 1 1 0 0 0 1
1
39 33
0 40 36
16 1 0 0 0 0 1 0 0 0 0 1 1 0 0 0 1
1
40 36
0 44 42
16 1 0 0 0 0 1 0 0 0 0 1 1 0 0 0 1
1
44 42
0 45 34
16 1 0 0 0 0 1 0 1 0 0 1 0 0 0 0 1
1
45 34
0 46 33
16 1 0 0 0 0 1 0 1 0 0 1 0 0 0 0 1
1
46 33
0 47 37
16 1 0 0 0 0 1 0 1 0 0 1 0 0 0 0 1
1
47 37
0 48 46
16 1 0 0 0 0 1 0 0 0 0 1 1 0 0 0 1
1
48 46
0 49 1
16 1 0 0 1 0 1 0 0 0 0 1 0 0 0 0 1
1
49 1
0 50 2
16 1 0 0 1 0 1 0 0 0 0 1 0 0 0 0 1
1
50 2
0 51 3
16 1 0 0 1 0 1 0 0 0 0 1 0 0 0 0 1
1
51 3
0 52 4
16 1 0 0 1 0 1 0 0 0 0 1 0 0 0 0 1
1
52 4
0 53 9
16 1 0 0 1 0 1 0 0 0 0 1 0 0 0 0 1
1
53 9
0 54 10
16 1 0 0 1 0 1 0 0 0 0 1 0 0 0 0 1
1
54 10
0 55 49
16 1 0 0 0 0 1 0 0 0 0 1 1 0 0 0 1
1
55 49
0 56 52
16 1 0 0 0 0 1 0 0 0 0 1 1 0 0 0 1
1
56 52
0 57 17
16 1 0 0 1 0 1 0 0 0 0 1 0 0 0 0 1
1
57 17
0 58 18
16 1 0 0 1 0 1 0 0 0 0 1 0 0 0 0 1
1
58 18
0 59 21
16 1 0 0 1 0 1 0 0 0 0 1 0 0 0 0 1
1
59 21
0 60 58
16 1 0 0 0 0 1 0 0 0 0 1 1 0 0 0 1
1
60 58
0 61 50
16 1 0 0 0 0 1 0 1 0 0 1 0 0 0 0 1
1
61 50
0 62 49
16 1 0 0 0 0 1 0 1 0 0 1 0 0 0 0 1
1
62 49
0 63 53
16 1 0 0 0 0 1 0 1 0 0 1 0 0 0 0 1
1
63 53
0 64 62
16 1 0 0 0 0 1 0 0 0 0 1 1 0 0 0 1
1
64 62
1 22 4
16 1 0 0 0 0 1 0 0 0 0 1 1 0 0 0 1
3
13 1
14 4
94 68
1 25 8
16 1 0 0 0 0 1 0 0 0 0 1 1 0 0 0 1
3
15 5
16 8
97 72
1 27 9
16 1 0 0 0 0 1 0 0 0 0 1 1 0 0 0 1
3
13 1
15 5
99 73
1 28 11
16 1 0 0 0 0 1 0 0 0 0 1 1 0 0 0 1
3
14 4
16 8
100 75
1 42 31
16 1 0 0 0 0 1 0 0 0 0 1 1 0 0 0 1
5
14 4
23 18
130 105
131 106
132 107
1 44 34
16 1 0 0 0 0 1 0 0 0 0 1 1 0 0 0 1
5
16 8
24 20
134 112
135 113
136 114
1 46 35
16 1 0 0 0 0 1 0 0 0 0 1 1 0 0 0 1
3
23 18
24 20
138 115
1 48 1
16 1 0 0 0 0 1 0 1 0 0 1 0 0 0 0 1
3
25 2
26 1
140 65
1 51 5
16 1 0 0 0 0 1 0 1 0 0 1 0 0 0 0 1
3
27 6
28 5
143 69
1 53 9
16 1 0 0 0 0 1 0 1 0 0 1 0 0 0 0 1
3
26 1
28 5
145 73
1 54 10
16 1 0 0 0 0 1 0 1 0 0 1 0 0 0 0 1
3
25 2
27 6
146 74
1 56 13
16 1 0 0 0 0 1 0 1 0 0 1 0 0 0 0 1
5
25 2
29 9
148 77
149 78
150 79
1 58 16
16 1 0 0 0 0 1 0 1 0 0 1 0 0 0 0 1
5
27 6
30 11
152 84
153 85
154 86
1 59 19
16 1 0 0 0 0 1 0 1 0 0 1 0 0 0 0 1
3
29 9
30 11
155 91
1 60 49
16 1 0 0 0 0 1 0 0 0 0 1 1 0 0 0 1
3
23 18
31 26
156 141
1 61 21
16 1 0 0 0 0 1 0 1 0 0 1 0 0 0 0 1
3
29 9
31 13
157 93
1 62 52
16 1 0 0 0 0 1 0 0 0 0 1 1 0 0 0 1
3
24 20
32 28
158 144
1 63 24
16 1 0 0 0 0 1 0 1 0 0 1 0 0 0 0 1
3
30 11
32 15
159 96
1 64 53
16 1 0 0 0 0 1 0 0 0 0 1 1 0 0 0 1
3
31 26
32 28
160 145
1 79 68
16 1 0 0 0 0 1 0 0 0 0 1 1 0 0 0 1
3
39 33
40 36
191 164
1 81 69
16 1 0 0 0 0 1 0 0 0 0 1 1 0 0 0 1
5
15 5
39 33
193 165
194 166
195 167
1 82 71
16 1 0 0 0 0 1 0 0 0 0 1 1 0 0 0 1
5
16 8
40 36
196 171
197 172
198 173
1 91 85
16 1 0 0 0 0 1 0 0 0 0 1 1 0 0 0 1
5
40 36
44 42
221 203
222 204
223 205
1 93 86
16 1 0 0 0 0 1 0 0 0 0 1 1 0 0 0 1
5
24 20
44 42
225 206
226 207
227 208
1 95 65
16 1 0 0 0 0 1 0 1 0 0 1 0 0 0 0 1
3
45 34
46 33
229 161
1 97 69
16 1 0 0 0 0 1 0 1 0 0 1 0 0 0 0 1
5
28 5
46 33
231 165
232 166
233 167
1 98 70
16 1 0 0 0 0 1 0 1 0 0 1 0 0 0 0 1
5
27 6
45 34
234 168
235 169
236 170
1 100 73
16 1 0 0 0 0 1 0 1 0 0 1 0 0 0 0 1
5
45 34
47 37
238 177
239 178
240 179
1 101 76
16 1 0 0 0 0 1 0 1 0 0 1 0 0 0 0 1
5
30 11
47 37
241 184
242 185
243 186
1 102 96
16 1 0 0 0 0 1 0 0 0 0 1 1 0 0 0 1
3
44 42
48 46
244 230
1 103 78
16 1 0 0 0 0 1 0 1 0 0 1 0 0 0 0 1
3
47 37
48 39
245 190
1 104 97
16 1 0 0 0 0 1 0 0 0 0 1 1 0 0 0 1
5
32 28
48 46
246 231
247 232
248 233
1 105 1
16 1 0 0 1 0 1 0 0 0 0 1 0 0 0 0 1
3
49 1
50 2
249 65
1 106 2
16 1 0 0 1 0 1 0 0 0 0 1 0 0 0 0 1
3
50 2
51 3
250 66
1 107 3
16 1 0 0 1 0 1 0 0 0 0 1 0 0 0 0 1
3
51 3
52 4
251 67
1 108 4
16 1 0 0 1 0 1 0 0 0 0 1 0 0 0 0 1
3
49 1
52 4
252 68
1 113 13
16 1 0 0 1 0 1 0 0 0 0 1 0 0 0 0 1
5
50 2
53 9
257 77
258 78
259 79
1 114 14
16 1 0 0 1 0 1 0 0 0 0 1 0 0 0 0 1
3
53 9
54 10
260 80
1 115 15
16 1 0 0 1 0 1 0 0 0 0 1 0 0 0 0 1
5
51 3
54 10
261 81
262 82
263 83
1 118 21
16 1 0 0 1 0 1 0 0 0 0 1 0 0 0 0 1
3
53 9
55 13
266 93
1 119 108
16 1 0 0 0 0 1 0 0 0 0 1 1 0 0 0 1
3
55 49
56 52
267 252
1 120 23
16 1 0 0 1 0 1 0 0 0 0 1 0 0 0 0 1
3
54 10
56 14
268 95
1 121 109
16 1 0 0 0 0 1 0 0 0 0 1 1 0 0 0 1
3
39 33
55 49
269 253
1 122 111
16 1 0 0 0 0 1 0 0 0 0 1 1 0 0 0 1
3
40 36
56 52
270 255
1 123 29
16 1 0 0 1 0 1 0 0 0 0 1 0 0 0 0 1
5
51 3
57 17
271 101
272 102
273 103
1 124 30
16 1 0 0 1 0 1 0 0 0 0 1 0 0 0 0 1
3
57 17
58 18
274 104
1 125 31
16 1 0 0 1 0 1 0 0 0 0 1 0 0 0 0 1
5
52 4
58 18
275 105
276 106
277 107
1 128 37
16 1 0 0 1 0 1 0 0 0 0 1 0 0 0 0 1
5
54 10
59 21
280 117
281 118
282 119
1 129 38
16 1 0 0 1 0 1 0 0 0 0 1 0 0 0 0 1
5
57 17
59 21
283 120
284 121
285 122
1 131 125
16 1 0 0 0 0 1 0 0 0 0 1 1 0 0 0 1
5
56 52
60 58
287 275
288 276
289 277
1 132 43
16 1 0 0 1 0 1 0 0 0 0 1 0 0 0 0 1
3
59 21
60 23
290 133
1 133 126
16 1 0 0 0 0 1 0 0 0 0 1 1 0 0 0 1
3
44 42
60 58
291 278
1 134 47
16 1 0 0 1 0 1 0 0 0 0 1 0 0 0 0 1
3
57 17
61 25
292 139
1 135 105
16 1 0 0 0 0 1 0 1 0 0 1 0 0 0 0 1
3
61 50
62 49
293 249
1 136 49
16 1 0 0 1 0 1 0 0 0 0 1 0 0 0 0 1
3
58 18
62 26
294 141
1 137 109
16 1 0 0 0 0 1 0 1 0 0 1 0 0 0 0 1
3
46 33
62 49
295 253
1 138 110
16 1 0 0 0 0 1 0 1 0 0 1 0 0 0 0 1
3
45 34
61 50
296 254
1 139 55
16 1 0 0 1 0 1 0 0 0 0 1 0 0 0 0 1
3
59 21
63 29
297 147
1 140 113
16 1 0 0 0 0 1 0 1 0 0 1 0 0 0 0 1
5
61 50
63 53
298 257
299 258
300 259
1 141 116
16 1 0 0 0 0 1 0 1 0 0 1 0 0 0 0 1
3
47 37
63 53
301 264
1 142 136
16 1 0 0 0 0 1 0 0 0 0 1 1 0 0 0 1
3
60 58
64 62
302 294
1 143 118
16 1 0 0 0 0 1 0 1 0 0 1 0 0 0 0 1
3
63 53
64 55
303 266
1 144 137
16 1 0 0 0 0 1 0 0 0 0 1 1 0 0 0 1
3
48 46
64 62
304 295
2 16 5
16 1 0 0 0 0 1 0 0 0 0 1 1 0 0 0 1
9
13 1
14 4
15 5
16 8
94 68
97 72
99 73
100 75
328 309
2 29 20
16 1 0 0 0 0 1 0 0 0 0 1 1 0 0 0 1
15
14 4
16 8
23 18
24 20
100 75
130 105
131 106
132 107
134 112
135 113
136 114
138 115
373 336
374 337
375 338
2 32 3
16 1 0 0 0 0 1 0 1 0 0 1 0 0 0 0 1
9
25 2
26 1
27 6
28 5
140 65
143 69
145 73
146 74
378 307
2 37 9
16 1 0 0 0 0 1 0 1 0 0 1 0 0 0 0 1
15
25 2
27 6
29 9
30 11
146 74
148 77
149 78
150 79
152 84
153 85
154 86
155 91
387 317
388 318
389 319
2 41 14
16 1 0 0 0 0 1 0 1 0 0 1 0 0 0 0 1
9
29 9
30 11
31 13
32 15
155 91
157 93
159 96
160 99
393 326
2 42 33
16 1 0 0 0 0 1 0 0 0 0 1 1 0 0 0 1
9
23 18
24 20
31 26
32 28
138 115
156 141
158 144
160 145
394 379
2 55 46
16 1 0 0 0 0 1 0 0 0 0 1 1 0 0 0 1
15
15 5
16 8
39 33
40 36
97 72
191 164
193 165
194 166
195 167
196 171
197 172
198 173
439 402
440 403
441 404
2 65 58
16 1 0 0 0 0 1 0 0 0 0 1 1 0 0 0 1
25
16 8
24 20
40 36
44 42
134 112
135 113
136 114
196 171
197 172
198 173
221 203
222 204
223 205
225 206
226 207
227 208
499 448
500 449
501 450
502 451
503 452
504 453
505 454
506 455
507 456
2 67 44
16 1 0 0 0 0 1 0 1 0 0 1 0 0 0 0 1
15
27 6
28 5
45 34
46 33
143 69
229 161
231 165
232 166
233 167
234 168
235 169
236 170
509 396
510 397
511 398
2 71 49
16 1 0 0 0 0 1 0 1 0 0 1 0 0 0 0 1
25
27 6
30 11
45 34
47 37
152 84
153 85
154 86
234 168
235 169
236 170
238 177
239 178
240 179
241 184
242 185
243 186
521 411
522 412
523 413
524 414
525 415
526 416
527 417
528 418
529 419
2 74 53
16 1 0 0 0 0 1 0 1 0 0 1 0 0 0 0 1
15
30 11
32 15
47 37
48 39
159 96
241 184
242 185
243 186
245 190
246 193
247 194
248 195
534 433
535 434
536 435
2 75 68
16 1 0 0 0 0 1 0 0 0 0 1 1 0 0 0 1
15
24 20
32 28
44 42
48 46
158 144
225 206
226 207
227 208
244 230
246 231
247 232
248 233
537 512
538 513
539 514
2 76 1
16 1 0 0 1 0 1 0 0 0 0 1 0 0 0 0 1
9
49 1
50 2
51 3
52 4
249 65
250 66
251 67
252 68
540 305
2 81 7
16 1 0 0 1 0 1 0 0 0 0 1 0 0 0 0 1
15
50 2
51 3
53 9
54 10
250 66
257 77
258 78
259 79
260 80
261 81
262 82
263 83
545 311
546 312
547 313
2 85 12
16 1 0 0 1 0 1 0 0 0 0 1 0 0 0 0 1
9
53 9
54 10
55 13
56 14
260 80
266 93
267 94
268 95
555 324
2 88 79
16 1 0 0 0 0 1 0 0 0 0 1 1 0 0 0 1
9
39 33
40 36
55 49
56 52
191 164
267 252
269 253
270 255
558 543
2 89 17
16 1 0 0 1 0 1 0 0 0 0 1 0 0 0 0 1
15
51 3
52 4
57 17
58 18
251 67
271 101
272 102
273 103
274 104
275 105
276 106
277 107
559 329
560 330
561 331
2 93 22
16 1 0 0 1 0 1 0 0 0 0 1 0 0 0 0 1
25
51 3
54 10
57 17
59 21
261 81
262 82
263 83
271 101
272 102
273 103
280 117
281 118
282 119
283 120
284 121
285 122
569 342
570 343
571 344
572 345
573 346
574 347
575 348
576 349
577 350
2 96 26
16 1 0 0 1 0 1 0 0 0 0 1 0 0 0 0 1
15
54 10
56 14
59 21
60 23
268 95
280 117
281 118
282 119
287 130
288 131
289 132
290 133
584 366
585 367
586 368
2 98 91
16 1 0 0 0 0 1 0 0 0 0 1 1 0 0 0 1
15
40 36
44 42
56 52
60 58
221 203
222 204
223 205
270 255
287 275
288 276
289 277
291 278
588 563
589 564
590 565
2 99 30
16 1 0 0 1 0 1 0 0 0 0 1 0 0 0 0 1
9
57 17
58 18
61 25
62 26
274 104
292 139
293 140
294 141
591 376
2 100 77
16 1 0 0 0 0 1 0 1 0 0 1 0 0 0 0 1
9
45 34
46 33
61 50
62 49
229 161
293 249
295 253
296 254
592 541
2 103 35
16 1 0 0 1 0 1 0 0 0 0 1 0 0 0 0 1
15
57 17
59 21
61 25
63 29
283 120
284 121
285 122
292 139
297 147
298 148
299 149
300 150
595 381
596 382
597 383
2 104 82
16 1 0 0 0 0 1 0 1 0 0 1 0 0 0 0 1
15
45 34
47 37
61 50
63 53
238 177
239 178
240 179
296 254
298 257
299 258
300 259
301 264
598 548
599 549
600 550
2 106 39
16 1 0 0 1 0 1 0 0 0 0 1 0 0 0 0 1
9
59 21
60 23
63 29
64 31
290 133
297 147
302 156
303 157
602 391
2 107 86
16 1 0 0 0 0 1 0 1 0 0 1 0 0 0 0 1
9
47 37
48 39
63 53
64 55
245 190
301 264
303 266
304 269
603 556
2 108 101
16 1 0 0 0 0 1 0 0 0 0 1 1 0 0 0 1
9
44 42
48 46
60 58
64 62
244 230
291 278
302 294
304 295
604 593
$EndPeriodic
