$MeshFormat
4.1 0 8
$EndMeshFormat
$PhysicalNames
7
0 7 "neck_monitor"
2 2 "symmetry_x"
2 3 "symmetry_y"
2 4 "midplane"
2 5 "loaded_end"
2 6 "outer_surface"
3 1 "solid"
$EndPhysicalNames
$Entities
8 12 6 1
1 0 0 1 0
2 0 0 0 0
3 0 1 1 0
4 0 1 0 0
5 1 0 1 0
6 1 0 0 1 7
7 1 1 1 0
8 1 1 0 0
1 -1e-07 -1e-07 -9.999999994736442e-08 1e-07 1e-07 1.0000001 0 2 2 -1
2 -1e-07 -9.999999994736442e-08 0.9999999000000001 1e-07 1.0000001 1.0000001 0 2 1 -3
3 -1e-07 0.9999999000000001 -9.999999994736442e-08 1e-07 1.0000001 1.0000001 0 2 4 -3
4 -1e-07 -9.999999994736442e-08 -1e-07 1e-07 1.0000001 1e-07 0 2 2 -4
5 0.9999999000000001 -1e-07 -9.999999994736442e-08 1.0000001 1e-07 1.0000001 0 2 6 -5
6 0.9999999000000001 -9.999999994736442e-08 0.9999999000000001 1.0000001 1.0000001 1.0000001 0 2 5 -7
7 0.9999999000000001 0.9999999000000001 -9.999999994736442e-08 1.0000001 1.0000001 1.0000001 0 2 8 -7
8 0.9999999000000001 -9.999999994736442e-08 -1e-07 1.0000001 1.0000001 1e-07 0 2 6 -8
9 -9.999999994736442e-08 -1e-07 -1e-07 1.0000001 1e-07 1e-07 0 2 2 -6
10 -9.999999994736442e-08 -1e-07 0.9999999000000001 1.0000001 1e-07 1.0000001 0 2 1 -5
11 -9.999999994736442e-08 0.9999999000000001 -1e-07 1.0000001 1.0000001 1e-07 0 2 4 -8
12 -9.999999994736442e-08 0.9999999000000001 0.9999999000000001 1.0000001 1.0000001 1.0000001 0 2 3 -7
1 -1e-07 -9.999999994736442e-08 -9.999999994736442e-08 1e-07 1.0000001 1.0000001 1 2 4 -1 4 3 -2
2 0.9999999000000001 -9.999999994736442e-08 -9.999999994736442e-08 1.0000001 1.0000001 1.0000001 1 6 4 -5 8 7 -6
3 -9.999999994736442e-08 -1e-07 -9.999999994736442e-08 1.0000001 1e-07 1.0000001 1 3 4 -9 1 10 -5
4 -9.999999994736442e-08 0.9999999000000001 -9.999999994736442e-08 1.0000001 1.0000001 1.0000001 1 6 4 -11 3 12 -7
5 -9.999999994736442e-08 -9.999999994736442e-08 -1e-07 1.0000001 1.0000001 1e-07 1 4 4 -4 9 8 -11
6 -9.999999994736442e-08 -9.999999994736442e-08 0.9999999000000001 1.0000001 1.0000001 1.0000001 1 5 4 -2 10 6 -12
1 -9.999999994736442e-08 -9.999999994736442e-08 -9.999999994736442e-08 1.0000001 1.0000001 1.0000001 1 1 6 -1 2 -3 4 -5 6
$EndEntities
$Nodes
27 741 1 741
0 1 0 1
1
0 0 26.667
0 2 0 1
2
0 0 0
0 3 0 1
3
0 5.683373272928537 26.667
0 4 0 1
4
0 5.581072554015823 0
0 5 0 1
5
5.683373272928537 0 26.667
0 6 0 1
6
5.581072554015823 0 0
0 7 0 1
7
5.683373272928537 5.683373272928537 26.667
0 8 0 1
8
5.581072554015823 5.581072554015823 0
1 1 0 47
9
10
11
12
13
14
15
16
17
18
19
20
21
22
23
24
25
26
27
28
29
30
31
32
33
34
35
36
37
38
39
40
41
42
43
44
45
46
47
48
49
50
51
52
53
54
55
0 0 0.7407499999999999
0 0 1.4815
0 0 2.22225
0 0 2.963
0 0 3.70375
0 0 4.444500000000001
0 0 5.18525
0 0 5.925999999999999
0 0 6.66675
0 0 7.4075
0 0 8.148249999999999
0 0 8.889000000000001
0 0 10.3705
0 0 11.852
0 0 13.3335
0 0 14.815
0 0 16.2965
0 0 17.778
0 0 19.2595
0 0 20.741
0 0 22.2225
0 0 23.704
0 0 25.1855
0 0 0.370375
0 0 1.111125
0 0 1.851875
0 0 2.592625
0 0 3.333375
0 0 4.074125
0 0 4.814875
0 0 5.555625
0 0 6.296375
0 0 7.037125
0 0 7.777875000000001
0 0 8.518625
0 0 9.629749999999998
0 0 11.11125
0 0 12.59275
0 0 14.07425
0 0 15.55575
0 0 17.03725
0 0 18.51875
0 0 20.00025
0 0 21.48175
0 0 22.96325
0 0 24.44475
0 0 25.92625
1 2 0 3
56
57
58
0 2.841686636464269 26.667
0 1.420843318232134 26.667
0 4.262529954696403 26.667
1 3 0 47
59
60
61
62
63
64
65
66
67
68
69
70
71
72
73
74
75
76
77
78
79
80
81
82
83
84
85
86
87
88
89
90
91
92
93
94
95
96
97
98
99
100
101
102
103
104
105
0 5.583914240652287 0.7407499999999999
0 5.586755927288752 1.4815
0 5.589597613925216 2.22225
0 5.59243930056168 2.963
0 5.595280987198144 3.70375
0 5.598122673834609 4.444500000000001
0 5.600964360471073 5.18525
0 5.603806047107538 5.925999999999999
0 5.606647733744001 6.66675
0 5.609489420380466 7.4075
0 5.61233110701693 8.148249999999999
0 5.615172793653395 8.889000000000001
0 5.620856166926323 10.3705
0 5.626539540199252 11.852
0 5.63222291347218 13.3335
0 5.637906286745109 14.815
0 5.643589660018037 16.2965
0 5.649273033290966 17.778
0 5.654956406563894 19.2595
0 5.660639779836823 20.741
0 5.666323153109752 22.2225
0 5.67200652638268 23.704
0 5.677689899655609 25.1855
0 5.582493397334055 0.370375
0 5.58533508397052 1.111125
0 5.588176770606984 1.851875
0 5.591018457243448 2.592625
0 5.593860143879913 3.333375
0 5.596701830516377 4.074125
0 5.599543517152841 4.814875
0 5.602385203789305 5.555625
0 5.60522689042577 6.296375
0 5.608068577062234 7.037125
0 5.610910263698698 7.777875000000001
0 5.613751950335162 8.518625
0 5.618014480289858 9.629749999999998
0 5.623697853562788 11.11125
0 5.629381226835716 12.59275
0 5.635064600108644 14.07425
0 5.640747973381573 15.55575
0 5.646431346654501 17.03725
0 5.65211471992743 18.51875
0 5.657798093200358 20.00025
0 5.663481466473287 21.48175
0 5.669164839746215 22.96325
0 5.674848213019144 24.44475
0 5.680531586292073 25.92625
1 4 0 3
106
107
108
0 2.790536277007912 0
0 1.395268138503956 0
0 4.185804415511868 0
1 5 0 47
109
110
111
112
113
114
115
116
117
118
119
120
121
122
123
124
125
126
127
128
129
130
131
132
133
134
135
136
137
138
139
140
141
142
143
144
145
146
147
148
149
150
151
152
153
154
155
5.583914240652287 0 0.7407499999999999
5.586755927288752 0 1.4815
5.589597613925216 0 2.22225
5.59243930056168 0 2.963
5.595280987198144 0 3.70375
5.598122673834609 0 4.444500000000001
5.600964360471073 0 5.18525
5.603806047107538 0 5.925999999999999
5.606647733744001 0 6.66675
5.609489420380466 0 7.4075
5.61233110701693 0 8.148249999999999
5.615172793653395 0 8.889000000000001
5.620856166926323 0 10.3705
5.626539540199252 0 11.852
5.63222291347218 0 13.3335
5.637906286745109 0 14.815
5.643589660018037 0 16.2965
5.649273033290966 0 17.778
5.654956406563894 0 19.2595
5.660639779836823 0 20.741
5.666323153109752 0 22.2225
5.67200652638268 0 23.704
5.677689899655609 0 25.1855
5.582493397334055 0 0.370375
5.58533508397052 0 1.111125
5.588176770606984 0 1.851875
5.591018457243448 0 2.592625
5.593860143879913 0 3.333375
5.596701830516377 0 4.074125
5.599543517152841 0 4.814875
5.602385203789305 0 5.555625
5.60522689042577 0 6.296375
5.608068577062234 0 7.037125
5.610910263698698 0 7.777875000000001
5.613751950335162 0 8.518625
5.618014480289858 0 9.629749999999998
5.623697853562788 0 11.11125
5.629381226835716 0 12.59275
5.635064600108644 0 14.07425
5.640747973381573 0 15.55575
5.646431346654501 0 17.03725
5.65211471992743 0 18.51875
5.657798093200358 0 20.00025
5.663481466473287 0 21.48175
5.669164839746215 0 22.96325
5.674848213019144 0 24.44475
5.680531586292073 0 25.92625
1 6 0 3
156
157
158
5.683373272928537 2.841686636464269 26.667
5.683373272928537 1.420843318232134 26.667
5.683373272928537 4.262529954696403 26.667
1 7 0 47
159
160
161
162
163
164
165
166
167
168
169
170
171
172
173
174
175
176
177
178
179
180
181
182
183
184
185
186
187
188
189
190
191
192
193
194
195
196
197
198
199
200
201
202
203
204
205
5.583914240652287 5.583914240652287 0.7407499999999999
5.586755927288752 5.586755927288752 1.4815
5.589597613925216 5.589597613925216 2.22225
5.59243930056168 5.59243930056168 2.963
5.595280987198144 5.595280987198144 3.70375
5.598122673834609 5.598122673834609 4.444500000000001
5.600964360471073 5.600964360471073 5.18525
5.603806047107538 5.603806047107538 5.925999999999999
5.606647733744001 5.606647733744001 6.66675
5.609489420380466 5.609489420380466 7.4075
5.61233110701693 5.61233110701693 8.148249999999999
5.615172793653395 5.615172793653395 8.889000000000001
5.620856166926323 5.620856166926323 10.3705
5.626539540199252 5.626539540199252 11.852
5.63222291347218 5.63222291347218 13.3335
5.637906286745109 5.637906286745109 14.815
5.643589660018037 5.643589660018037 16.2965
5.649273033290966 5.649273033290966 17.778
5.654956406563894 5.654956406563894 19.2595
5.660639779836823 5.660639779836823 20.741
5.666323153109752 5.666323153109752 22.2225
5.67200652638268 5.67200652638268 23.704
5.677689899655609 5.677689899655609 25.1855
5.582493397334055 5.582493397334055 0.370375
5.58533508397052 5.58533508397052 1.111125
5.588176770606984 5.588176770606984 1.851875
5.591018457243448 5.591018457243448 2.592625
5.593860143879913 5.593860143879913 3.333375
5.596701830516377 5.596701830516377 4.074125
5.599543517152841 5.599543517152841 4.814875
5.602385203789305 5.602385203789305 5.555625
5.60522689042577 5.60522689042577 6.296375
5.608068577062234 5.608068577062234 7.037125
5.610910263698698 5.610910263698698 7.777875000000001
5.613751950335162 5.613751950335162 8.518625
5.618014480289858 5.618014480289858 9.629749999999998
5.623697853562788 5.623697853562788 11.11125
5.629381226835716 5.629381226835716 12.59275
5.635064600108644 5.635064600108644 14.07425
5.640747973381573 5.640747973381573 15.55575
5.646431346654501 5.646431346654501 17.03725
5.65211471992743 5.65211471992743 18.51875
5.657798093200358 5.657798093200358 20.00025
5.663481466473287 5.663481466473287 21.48175
5.669164839746215 5.669164839746215 22.96325
5.674848213019144 5.674848213019144 24.44475
5.680531586292073 5.680531586292073 25.92625
1 8 0 3
206
207
208
5.581072554015823 2.790536277007912 0
5.581072554015823 1.395268138503956 0
5.581072554015823 4.185804415511868 0
1 9 0 3
209
210
211
2.790536277007912 0 0
1.395268138503956 0 0
4.185804415511868 0 0
1 10 0 3
212
213
214
2.841686636464269 0 26.667
1.420843318232134 0 26.667
4.262529954696403 0 26.667
1 11 0 3
215
216
217
2.790536277007912 5.581072554015823 0
1.395268138503956 5.581072554015823 0
4.185804415511868 5.581072554015823 0
1 12 0 3
218
219
220
2.841686636464269 5.683373272928537 26.667
1.420843318232134 5.683373272928537 26.667
4.262529954696403 5.683373272928537 26.667
2 1 0 93
221
222
223
224
225
226
227
228
229
230
231
232
233
234
235
236
237
238
239
240
241
242
243
244
245
246
247
248
249
250
251
252
253
254
255
256
257
258
259
260
261
262
263
264
265
266
267
268
269
270
271
272
273
274
275
276
277
278
279
280
281
282
283
284
285
286
287
288
289
290
291
292
293
294
295
296
297
298
299
300
301
302
303
304
305
306
307
308
309
310
311
312
313
0 2.791957120326144 0.7407499999999999
0 2.793377963644376 1.4815
0 2.794798806962608 2.22225
0 2.79621965028084 2.963
0 2.797640493599072 3.70375
0 2.799061336917304 4.444500000000001
0 2.800482180235536 5.18525
0 2.801903023553769 5.925999999999999
0 2.803323866872001 6.66675
0 2.804744710190233 7.4075
0 2.806165553508465 8.148249999999999
0 2.807586396826697 8.889000000000001
0 2.810428083463162 10.3705
0 2.813269770099626 11.852
0 2.81611145673609 13.3335
0 2.818953143372554 14.815
0 2.821794830009019 16.2965
0 2.824636516645483 17.778
0 2.827478203281947 19.2595
0 2.830319889918412 20.741
0 2.833161576554876 22.2225
0 2.83600326319134 23.704
0 2.838844949827804 25.1855
0 1.395978560163072 0.7407499999999999
0 2.791246698667027 0.370375
0 4.187935680489216 0.7407499999999999
0 1.396688981822188 1.4815
0 2.79266754198526 1.111125
0 4.190066945466564 1.4815
0 1.397399403481304 2.22225
0 2.794088385303492 1.851875
0 4.192198210443912 2.22225
0 1.39810982514042 2.963
0 2.795509228621724 2.592625
0 4.19432947542126 2.963
0 1.398820246799536 3.70375
0 2.796930071939956 3.333375
0 4.196460740398608 3.70375
0 1.399530668458652 4.444500000000001
0 2.798350915258188 4.074125
0 4.198592005375956 4.444500000000001
0 1.400241090117768 5.18525
0 2.799771758576421 4.814875
0 4.200723270353304 5.18525
0 1.400951511776884 5.925999999999999
0 2.801192601894653 5.555625
0 4.202854535330653 5.925999999999999
0 1.401661933436 6.66675
0 2.802613445212885 6.296375
0 4.204985800308001 6.66675
0 1.402372355095117 7.4075
0 2.804034288531117 7.037125
0 4.20711706528535 7.4075
0 1.403082776754232 8.148249999999999
0 2.805455131849349 7.777875000000001
0 4.209248330262698 8.148249999999999
0 1.403793198413349 8.889000000000001
0 2.806875975167581 8.518625
0 4.211379595240047 8.889000000000001
0 1.405214041731581 10.3705
0 2.809007240144929 9.629749999999998
0 4.215642125194742 10.3705
0 1.406634885049813 11.852
0 2.811848926781394 11.11125
0 4.219904655149438 11.852
0 1.408055728368045 13.3335
0 2.814690613417858 12.59275
0 4.224167185104135 13.3335
0 1.409476571686277 14.815
0 2.817532300054322 14.07425
0 4.228429715058832 14.815
0 1.410897415004509 16.2965
0 2.820373986690786 15.55575
0 4.232692245013528 16.2965
0 1.412318258322741 17.778
0 2.823215673327251 17.03725
0 4.236954774968224 17.778
0 1.413739101640973 19.2595
0 2.826057359963715 18.51875
0 4.24121730492292 19.2595
0 1.415159944959206 20.741
0 2.828899046600179 20.00025
0 4.245479834877617 20.741
0 1.416580788277438 22.2225
0 2.831740733236643 21.48175
0 4.249742364832314 22.2225
0 1.41800163159567 23.704
0 2.834582419873108 22.96325
0 4.25400489478701 23.704
0 1.419422474913902 25.1855
0 2.837424106509572 24.44475
0 4.258267424741707 25.1855
0 2.840265793146036 25.92625
2 2 0 93
314
315
316
317
318
319
320
321
322
323
324
325
326
327
328
329
330
331
332
333
334
335
336
337
338
339
340
341
342
343
344
345
346
347
348
349
350
351
352
353
354
355
356
357
358
359
360
361
362
363
364
365
366
367
368
369
370
371
372
373
374
375
376
377
378
379
380
381
382
383
384
385
386
387
388
389
390
391
392
393
394
395
396
397
398
399
400
401
402
403
404
405
406
5.583914240652287 2.791957120326144 0.7407499999999999
5.586755927288752 2.793377963644376 1.4815
5.589597613925216 2.794798806962608 2.22225
5.59243930056168 2.79621965028084 2.963
5.595280987198144 2.797640493599072 3.70375
5.598122673834609 2.799061336917304 4.444500000000001
5.600964360471073 2.800482180235536 5.18525
5.603806047107538 2.801903023553769 5.925999999999999
5.606647733744001 2.803323866872001 6.66675
5.609489420380466 2.804744710190233 7.4075
5.61233110701693 2.806165553508465 8.148249999999999
5.615172793653395 2.807586396826697 8.889000000000001
5.620856166926323 2.810428083463162 10.3705
5.626539540199252 2.813269770099626 11.852
5.63222291347218 2.81611145673609 13.3335
5.637906286745109 2.818953143372554 14.815
5.643589660018037 2.821794830009019 16.2965
5.649273033290966 2.824636516645483 17.778
5.654956406563894 2.827478203281947 19.2595
5.660639779836823 2.830319889918412 20.741
5.666323153109752 2.833161576554876 22.2225
5.67200652638268 2.83600326319134 23.704
5.677689899655609 2.838844949827804 25.1855
5.582493397334055 2.791246698667027 0.370375
5.583914240652287 1.395978560163072 0.7407499999999999
5.583914240652287 4.187935680489216 0.7407499999999999
5.58533508397052 2.79266754198526 1.111125
5.586755927288752 1.396688981822188 1.4815
5.586755927288752 4.190066945466564 1.4815
5.588176770606984 2.794088385303492 1.851875
5.589597613925216 1.397399403481304 2.22225
5.589597613925216 4.192198210443912 2.22225
5.591018457243448 2.795509228621724 2.592625
5.59243930056168 1.39810982514042 2.963
5.59243930056168 4.19432947542126 2.963
5.593860143879913 2.796930071939956 3.333375
5.595280987198144 1.398820246799536 3.70375
5.595280987198144 4.196460740398608 3.70375
5.596701830516377 2.798350915258188 4.074125
5.598122673834609 1.399530668458652 4.444500000000001
5.598122673834609 4.198592005375956 4.444500000000001
5.599543517152841 2.799771758576421 4.814875
5.600964360471073 1.400241090117768 5.18525
5.600964360471073 4.200723270353304 5.18525
5.602385203789305 2.801192601894653 5.555625
5.603806047107538 1.400951511776884 5.925999999999999
5.603806047107538 4.202854535330653 5.925999999999999
5.60522689042577 2.802613445212885 6.296375
5.606647733744001 1.401661933436 6.66675
5.606647733744001 4.204985800308001 6.66675
5.608068577062234 2.804034288531117 7.037125
5.609489420380466 1.402372355095117 7.4075
5.609489420380466 4.20711706528535 7.4075
5.610910263698698 2.805455131849349 7.777875000000001
5.61233110701693 1.403082776754232 8.148249999999999
5.61233110701693 4.209248330262698 8.148249999999999
5.613751950335162 2.806875975167581 8.518625
5.615172793653395 1.403793198413349 8.889000000000001
5.615172793653395 4.211379595240047 8.889000000000001
5.618014480289858 2.809007240144929 9.629749999999998
5.620856166926323 1.405214041731581 10.3705
5.620856166926323 4.215642125194742 10.3705
5.623697853562788 2.811848926781394 11.11125
5.626539540199252 1.406634885049813 11.852
5.626539540199252 4.219904655149438 11.852
5.629381226835716 2.814690613417858 12.59275
5.63222291347218 1.408055728368045 13.3335
5.63222291347218 4.224167185104135 13.3335
5.635064600108644 2.817532300054322 14.07425
5.637906286745109 1.409476571686277 14.815
5.637906286745109 4.228429715058832 14.815
5.640747973381573 2.820373986690786 15.55575
5.643589660018037 1.410897415004509 16.2965
5.643589660018037 4.232692245013528 16.2965
5.646431346654501 2.823215673327251 17.03725
5.649273033290966 1.412318258322741 17.778
5.649273033290966 4.236954774968224 17.778
5.65211471992743 2.826057359963715 18.51875
5.654956406563894 1.413739101640973 19.2595
5.654956406563894 4.24121730492292 19.2595
5.657798093200358 2.828899046600179 20.00025
5.660639779836823 1.415159944959206 20.741
5.660639779836823 4.245479834877617 20.741
5.663481466473287 2.831740733236643 21.48175
5.666323153109752 1.416580788277438 22.2225
5.666323153109752 4.249742364832314 22.2225
5.669164839746215 2.834582419873108 22.96325
5.67200652638268 1.41800163159567 23.704
5.67200652638268 4.25400489478701 23.704
5.674848213019144 2.837424106509572 24.44475
5.677689899655609 1.419422474913902 25.1855
5.677689899655609 4.258267424741707 25.1855
5.680531586292073 2.840265793146036 25.92625
2 3 0 93
407
408
409
410
411
412
413
414
415
416
417
418
419
420
421
422
423
424
425
426
427
428
429
430
431
432
433
434
435
436
437
438
439
440
441
442
443
444
445
446
447
448
449
450
451
452
453
454
455
456
457
458
459
460
461
462
463
464
465
466
467
468
469
470
471
472
473
474
475
476
477
478
479
480
481
482
483
484
485
486
487
488
489
490
491
492
493
494
495
496
497
498
499
2.791957120326144 0 0.7407499999999999
2.793377963644375 0 1.4815
2.794798806962608 0 2.22225
2.79621965028084 0 2.963
2.797640493599072 0 3.70375
2.799061336917304 0 4.444500000000001
2.800482180235536 0 5.18525
2.801903023553769 0 5.925999999999999
2.803323866872001 0 6.66675
2.804744710190233 0 7.4075
2.806165553508465 0 8.148249999999999
2.807586396826697 0 8.889000000000001
2.810428083463162 0 10.3705
2.813269770099626 0 11.852
2.81611145673609 0 13.3335
2.818953143372554 0 14.815
2.821794830009019 0 16.2965
2.824636516645483 0 17.778
2.827478203281947 0 19.2595
2.830319889918412 0 20.741
2.833161576554876 0 22.2225
2.83600326319134 0 23.704
2.838844949827804 0 25.1855
2.791246698667027 0 0.370375
1.395978560163072 0 0.7407499999999999
2.79266754198526 0 1.111125
1.396688981822188 0 1.4815
2.794088385303492 0 1.851875
1.397399403481304 0 2.22225
2.795509228621724 0 2.592625
1.39810982514042 0 2.963
2.796930071939956 0 3.333375
1.398820246799536 0 3.70375
2.798350915258188 0 4.074125
1.399530668458652 0 4.444500000000001
2.799771758576421 0 4.814875
1.400241090117768 0 5.18525
2.801192601894653 0 5.555625
1.400951511776884 0 5.925999999999999
2.802613445212885 0 6.296375
1.401661933436 0 6.66675
2.804034288531117 0 7.037125
1.402372355095117 0 7.4075
2.805455131849349 0 7.777875000000001
1.403082776754232 0 8.148249999999999
2.806875975167581 0 8.518625
1.403793198413349 0 8.889000000000001
2.809007240144929 0 9.629749999999998
1.405214041731581 0 10.3705
2.811848926781394 0 11.11125
1.406634885049813 0 11.852
2.814690613417858 0 12.59275
1.408055728368045 0 13.3335
2.817532300054322 0 14.07425
1.409476571686277 0 14.815
2.820373986690786 0 15.55575
1.410897415004509 0 16.2965
2.823215673327251 0 17.03725
1.412318258322741 0 17.778
2.826057359963715 0 18.51875
1.413739101640973 0 19.2595
2.828899046600179 0 20.00025
1.415159944959206 0 20.741
2.831740733236643 0 21.48175
1.416580788277438 0 22.2225
2.834582419873108 0 22.96325
1.41800163159567 0 23.704
2.837424106509572 0 24.44475
1.419422474913902 0 25.1855
2.840265793146036 0 25.92625
4.187935680489216 0 0.7407499999999999
4.190066945466564 0 1.4815
4.192198210443912 0 2.22225
4.19432947542126 0 2.963
4.196460740398608 0 3.70375
4.198592005375956 0 4.444500000000001
4.200723270353304 0 5.18525
4.202854535330653 0 5.925999999999999
4.204985800308001 0 6.66675
4.20711706528535 0 7.4075
4.209248330262698 0 8.148249999999999
4.211379595240047 0 8.889000000000001
4.215642125194742 0 10.3705
4.219904655149438 0 11.852
4.224167185104135 0 13.3335
4.228429715058832 0 14.815
4.232692245013528 0 16.2965
4.236954774968224 0 17.778
4.24121730492292 0 19.2595
4.245479834877617 0 20.741
4.249742364832314 0 22.2225
4.25400489478701 0 23.704
4.258267424741707 0 25.1855
2 4 0 93
500
501
502
503
504
505
506
507
508
509
510
511
512
513
514
515
516
517
518
519
520
521
522
523
524
525
526
527
528
529
530
531
532
533
534
535
536
537
538
539
540
541
542
543
544
545
546
547
548
549
550
551
552
553
554
555
556
557
558
559
560
561
562
563
564
565
566
567
568
569
570
571
572
573
574
575
576
577
578
579
580
581
582
583
584
585
586
587
588
589
590
591
592
2.791957120326144 5.583914240652287 0.7407499999999999
2.793377963644375 5.586755927288752 1.4815
2.794798806962608 5.589597613925216 2.22225
2.79621965028084 5.59243930056168 2.963
2.797640493599072 5.595280987198144 3.70375
2.799061336917304 5.598122673834609 4.444500000000001
2.800482180235536 5.600964360471073 5.18525
2.801903023553769 5.603806047107538 5.925999999999999
2.803323866872001 5.606647733744001 6.66675
2.804744710190233 5.609489420380466 7.4075
2.806165553508465 5.61233110701693 8.148249999999999
2.807586396826697 5.615172793653395 8.889000000000001
2.810428083463162 5.620856166926323 10.3705
2.813269770099626 5.626539540199252 11.852
2.81611145673609 5.63222291347218 13.3335
2.818953143372554 5.637906286745109 14.815
2.821794830009019 5.643589660018037 16.2965
2.824636516645483 5.649273033290966 17.778
2.827478203281947 5.654956406563894 19.2595
2.830319889918412 5.660639779836823 20.741
2.833161576554876 5.666323153109752 22.2225
2.83600326319134 5.67200652638268 23.704
2.838844949827804 5.677689899655609 25.1855
1.395978560163072 5.583914240652287 0.7407499999999999
2.791246698667027 5.582493397334055 0.370375
1.396688981822188 5.586755927288752 1.4815
2.79266754198526 5.58533508397052 1.111125
1.397399403481304 5.589597613925216 2.22225
2.794088385303492 5.588176770606984 1.851875
1.39810982514042 5.59243930056168 2.963
2.795509228621724 5.591018457243448 2.592625
1.398820246799536 5.595280987198144 3.70375
2.796930071939956 5.593860143879913 3.333375
1.399530668458652 5.598122673834609 4.444500000000001
2.798350915258188 5.596701830516377 4.074125
1.400241090117768 5.600964360471073 5.18525
2.799771758576421 5.599543517152841 4.814875
1.400951511776884 5.603806047107538 5.925999999999999
2.801192601894653 5.602385203789305 5.555625
1.401661933436 5.606647733744001 6.66675
2.802613445212885 5.60522689042577 6.296375
1.402372355095117 5.609489420380466 7.4075
2.804034288531117 5.608068577062234 7.037125
1.403082776754232 5.61233110701693 8.148249999999999
2.805455131849349 5.610910263698698 7.777875000000001
1.403793198413349 5.615172793653395 8.889000000000001
2.806875975167581 5.613751950335162 8.518625
1.405214041731581 5.620856166926323 10.3705
2.809007240144929 5.618014480289858 9.629749999999998
1.406634885049813 5.626539540199252 11.852
2.811848926781394 5.623697853562788 11.11125
1.408055728368045 5.63222291347218 13.3335
2.814690613417858 5.629381226835716 12.59275
1.409476571686277 5.637906286745109 14.815
2.817532300054322 5.635064600108644 14.07425
1.410897415004509 5.643589660018037 16.2965
2.820373986690786 5.640747973381573 15.55575
1.412318258322741 5.649273033290966 17.778
2.823215673327251 5.646431346654501 17.03725
1.413739101640973 5.654956406563894 19.2595
2.826057359963715 5.65211471992743 18.51875
1.415159944959206 5.660639779836823 20.741
2.828899046600179 5.657798093200358 20.00025
1.416580788277438 5.666323153109752 22.2225
2.831740733236643 5.663481466473287 21.48175
1.41800163159567 5.67200652638268 23.704
2.834582419873108 5.669164839746215 22.96325
1.419422474913902 5.677689899655609 25.1855
2.837424106509572 5.674848213019144 24.44475
2.840265793146036 5.680531586292073 25.92625
4.187935680489216 5.583914240652287 0.7407499999999999
4.190066945466564 5.586755927288752 1.4815
4.192198210443912 5.589597613925216 2.22225
4.19432947542126 5.59243930056168 2.963
4.196460740398608 5.595280987198144 3.70375
4.198592005375956 5.598122673834609 4.444500000000001
4.200723270353304 5.600964360471073 5.18525
4.202854535330653 5.603806047107538 5.925999999999999
4.204985800308001 5.606647733744001 6.66675
4.20711706528535 5.609489420380466 7.4075
4.209248330262698 5.61233110701693 8.148249999999999
4.211379595240047 5.615172793653395 8.889000000000001
4.215642125194742 5.620856166926323 10.3705
4.219904655149438 5.626539540199252 11.852
4.224167185104135 5.63222291347218 13.3335
4.228429715058832 5.637906286745109 14.815
4.232692245013528 5.643589660018037 16.2965
4.236954774968224 5.649273033290966 17.778
4.24121730492292 5.654956406563894 19.2595
4.245479834877617 5.660639779836823 20.741
4.249742364832314 5.666323153109752 22.2225
4.25400489478701 5.67200652638268 23.704
4.258267424741707 5.677689899655609 25.1855
2 5 0 5
593
594
595
596
597
2.790536277007912 2.790536277007912 0
1.395268138503956 2.790536277007912 0
2.790536277007912 1.395268138503956 0
4.185804415511868 2.790536277007912 0
2.790536277007912 4.185804415511868 0
2 6 0 5
598
599
600
601
602
2.841686636464269 2.841686636464269 26.667
2.841686636464269 1.420843318232134 26.667
1.420843318232134 2.841686636464269 26.667
4.262529954696403 2.841686636464269 26.667
2.841686636464269 4.262529954696403 26.667
3 1 0 139
603
604
605
606
607
608
609
610
611
612
613
614
615
616
617
618
619
620
621
622
623
624
625
626
627
628
629
630
631
632
633
634
635
636
637
638
639
640
641
642
643
644
645
646
647
648
649
650
651
652
653
654
655
656
657
658
659
660
661
662
663
664
665
666
667
668
669
670
671
672
673
674
675
676
677
678
679
680
681
682
683
684
685
686
687
688
689
690
691
692
693
694
695
696
697
698
699
700
701
702
703
704
705
706
707
708
709
710
711
712
713
714
715
716
717
718
719
720
721
722
723
724
725
726
727
728
729
730
731
732
733
734
735
736
737
738
739
740
741
2.791957120326144 2.791957120326144 0.7407499999999998
2.793377963644376 2.793377963644376 1.4815
2.794798806962608 2.794798806962608 2.22225
2.79621965028084 2.79621965028084 2.962999999999999
2.797640493599072 2.797640493599072 3.703749999999999
2.799061336917304 2.799061336917304 4.444500000000001
2.800482180235536 2.800482180235536 5.185249999999997
2.801903023553769 2.801903023553769 5.925999999999998
2.803323866872001 2.803323866872001 6.66675
2.804744710190233 2.804744710190233 7.407499999999998
2.806165553508465 2.806165553508465 8.148250000000003
2.807586396826697 2.807586396826697 8.889000000000001
2.810428083463162 2.810428083463162 10.37049999999999
2.813269770099626 2.813269770099626 11.85199999999999
2.81611145673609 2.81611145673609 13.3335
2.818953143372554 2.818953143372554 14.81499999999999
2.821794830009019 2.821794830009019 16.29649999999999
2.824636516645483 2.824636516645483 17.778
2.827478203281947 2.827478203281947 19.25950000000001
2.830319889918412 2.830319889918412 20.74099999999999
2.833161576554876 2.833161576554876 22.2225
2.83600326319134 2.83600326319134 23.70400000000001
2.838844949827804 2.838844949827804 25.18549999999999
1.395978560163072 2.791957120326144 0.7407499999999999
2.791957120326144 1.395978560163072 0.7407499999999999
2.791246698667027 2.791246698667027 0.3703749999999999
4.187935680489216 2.791957120326144 0.7407499999999999
2.791957120326144 4.187935680489216 0.7407499999999999
1.396688981822188 2.793377963644376 1.4815
2.793377963644375 1.396688981822188 1.4815
2.79266754198526 2.79266754198526 1.111125
4.190066945466564 2.793377963644376 1.4815
2.793377963644375 4.190066945466564 1.4815
1.397399403481304 2.794798806962608 2.22225
2.794798806962608 1.397399403481304 2.22225
2.794088385303492 2.794088385303492 1.851875
4.192198210443912 2.794798806962608 2.22225
2.794798806962608 4.192198210443912 2.22225
1.39810982514042 2.79621965028084 2.963
2.79621965028084 1.39810982514042 2.963
2.795509228621724 2.795509228621724 2.592625
4.19432947542126 2.79621965028084 2.963
2.79621965028084 4.19432947542126 2.963
1.398820246799536 2.797640493599072 3.703749999999999
2.797640493599072 1.398820246799536 3.703749999999999
2.796930071939956 2.796930071939956 3.333374999999999
4.196460740398608 2.797640493599072 3.703749999999999
2.797640493599072 4.196460740398608 3.703749999999999
1.399530668458652 2.799061336917304 4.444500000000001
2.799061336917304 1.399530668458652 4.444500000000001
2.798350915258188 2.798350915258188 4.074125
4.198592005375956 2.799061336917304 4.444500000000001
2.799061336917304 4.198592005375956 4.444500000000001
1.400241090117768 2.800482180235536 5.185249999999999
2.800482180235536 1.400241090117768 5.185249999999999
2.799771758576421 2.799771758576421 4.814874999999999
4.200723270353304 2.800482180235536 5.185249999999999
2.800482180235536 4.200723270353304 5.185249999999999
1.400951511776884 2.801903023553769 5.925999999999999
2.801903023553769 1.400951511776884 5.925999999999999
2.801192601894653 2.801192601894653 5.555624999999998
4.202854535330653 2.801903023553769 5.925999999999999
2.801903023553769 4.202854535330653 5.925999999999999
1.401661933436 2.803323866872001 6.66675
2.803323866872001 1.401661933436 6.66675
2.802613445212885 2.802613445212885 6.296375
4.204985800308001 2.803323866872001 6.66675
2.803323866872001 4.204985800308001 6.66675
1.402372355095117 2.804744710190233 7.407499999999999
2.804744710190233 1.402372355095117 7.407499999999999
2.804034288531117 2.804034288531117 7.037125
4.20711706528535 2.804744710190233 7.407499999999999
2.804744710190233 4.20711706528535 7.407499999999999
1.403082776754232 2.806165553508465 8.148250000000001
2.806165553508465 1.403082776754232 8.148250000000001
2.805455131849349 2.805455131849349 7.777875000000001
4.209248330262698 2.806165553508465 8.148250000000001
2.806165553508465 4.209248330262698 8.148250000000001
1.403793198413349 2.807586396826697 8.889000000000001
2.807586396826697 1.403793198413349 8.889000000000001
2.806875975167581 2.806875975167581 8.518625000000002
4.211379595240047 2.807586396826697 8.889000000000001
2.807586396826697 4.211379595240047 8.889000000000001
1.405214041731581 2.810428083463162 10.3705
2.810428083463162 1.405214041731581 10.3705
2.809007240144929 2.809007240144929 9.629749999999998
4.215642125194742 2.810428083463162 10.3705
2.810428083463162 4.215642125194742 10.3705
1.406634885049813 2.813269770099626 11.85199999999999
2.813269770099626 1.406634885049813 11.85199999999999
2.811848926781394 2.811848926781394 11.11124999999999
4.219904655149438 2.813269770099626 11.85199999999999
2.813269770099626 4.219904655149438 11.85199999999999
1.408055728368045 2.81611145673609 13.3335
2.81611145673609 1.408055728368045 13.3335
2.814690613417858 2.814690613417858 12.59275
4.224167185104135 2.81611145673609 13.3335
2.81611145673609 4.224167185104135 13.3335
1.409476571686277 2.818953143372554 14.815
2.818953143372554 1.409476571686277 14.815
2.817532300054322 2.817532300054322 14.07425
4.228429715058832 2.818953143372554 14.815
2.818953143372554 4.228429715058832 14.815
1.410897415004509 2.821794830009019 16.29649999999999
2.821794830009019 1.410897415004509 16.29649999999999
2.820373986690786 2.820373986690786 15.55574999999999
4.232692245013528 2.821794830009019 16.29649999999999
2.821794830009019 4.232692245013528 16.29649999999999
1.412318258322741 2.824636516645483 17.778
2.824636516645483 1.412318258322741 17.778
2.823215673327251 2.823215673327251 17.03725
4.236954774968224 2.824636516645483 17.778
2.824636516645483 4.236954774968224 17.778
1.413739101640973 2.827478203281947 19.2595
2.827478203281947 1.413739101640973 19.2595
2.826057359963715 2.826057359963715 18.51875000000001
4.24121730492292 2.827478203281947 19.2595
2.827478203281947 4.24121730492292 19.2595
1.415159944959206 2.830319889918412 20.741
2.830319889918412 1.415159944959206 20.741
2.828899046600179 2.828899046600179 20.00025
4.245479834877617 2.830319889918412 20.741
2.830319889918412 4.245479834877617 20.741
1.416580788277438 2.833161576554876 22.2225
2.833161576554876 1.416580788277438 22.2225
2.831740733236643 2.831740733236643 21.48175
4.249742364832314 2.833161576554876 22.2225
2.833161576554876 4.249742364832314 22.2225
1.41800163159567 2.83600326319134 23.704
2.83600326319134 1.41800163159567 23.704
2.834582419873108 2.834582419873108 22.96325000000001
4.25400489478701 2.83600326319134 23.704
2.83600326319134 4.25400489478701 23.704
1.419422474913902 2.838844949827804 25.1855
2.838844949827804 1.419422474913902 25.1855
2.837424106509572 2.837424106509572 24.44475
4.258267424741707 2.838844949827804 25.1855
2.838844949827804 4.258267424741707 25.1855
2.840265793146036 2.840265793146036 25.92625
$EndNodes
$Elements
8 297 1 297
0 6 15 1
1 6
2 1 16 48
2 2 9 221 106 32 244 245 107
3 106 221 59 4 245 246 82 108
4 9 10 222 221 33 247 248 244
5 221 222 60 59 248 249 83 246
6 10 11 223 222 34 250 251 247
7 222 223 61 60 251 252 84 249
8 11 12 224 223 35 253 254 250
9 223 224 62 61 254 255 85 252
10 12 13 225 224 36 256 257 253
11 224 225 63 62 257 258 86 255
12 13 14 226 225 37 259 260 256
13 225 226 64 63 260 261 87 258
14 14 15 227 226 38 262 263 259
15 226 227 65 64 263 264 88 261
16 15 16 228 227 39 265 266 262
17 227 228 66 65 266 267 89 264
18 16 17 229 228 40 268 269 265
19 228 229 67 66 269 270 90 267
20 17 18 230 229 41 271 272 268
21 229 230 68 67 272 273 91 270
22 18 19 231 230 42 274 275 271
23 230 231 69 68 275 276 92 273
24 19 20 232 231 43 277 278 274
25 231 232 70 69 278 279 93 276
26 20 21 233 232 44 280 281 277
27 232 233 71 70 281 282 94 279
28 21 22 234 233 45 283 284 280
29 233 234 72 71 284 285 95 282
30 22 23 235 234 46 286 287 283
31 234 235 73 72 287 288 96 285
32 23 24 236 235 47 289 290 286
33 235 236 74 73 290 291 97 288
34 24 25 237 236 48 292 293 289
35 236 237 75 74 293 294 98 291
36 25 26 238 237 49 295 296 292
37 237 238 76 75 296 297 99 294
38 26 27 239 238 50 298 299 295
39 238 239 77 76 299 300 100 297
40 27 28 240 239 51 301 302 298
41 239 240 78 77 302 303 101 300
42 28 29 241 240 52 304 305 301
43 240 241 79 78 305 306 102 303
44 29 30 242 241 53 307 308 304
45 241 242 80 79 308 309 103 306
46 30 31 243 242 54 310 311 307
47 242 243 81 80 311 312 104 309
48 31 1 56 243 55 57 313 310
49 243 56 3 81 313 58 105 312
2 2 16 48
50 6 206 314 109 207 337 338 132
51 206 8 159 314 208 182 339 337
52 109 314 315 110 338 340 341 133
53 314 159 160 315 339 183 342 340
54 110 315 316 111 341 343 344 134
55 315 160 161 316 342 184 345 343
56 111 316 317 112 344 346 347 135
57 316 161 162 317 345 185 348 346
58 112 317 318 113 347 349 350 136
59 317 162 163 318 348 186 351 349
60 113 318 319 114 350 352 353 137
61 318 163 164 319 351 187 354 352
62 114 319 320 115 353 355 356 138
63 319 164 165 320 354 188 357 355
64 115 320 321 116 356 358 359 139
65 320 165 166 321 357 189 360 358
66 116 321 322 117 359 361 362 140
67 321 166 167 322 360 190 363 361
68 117 322 323 118 362 364 365 141
69 322 167 168 323 363 191 366 364
70 118 323 324 119 365 367 368 142
71 323 168 169 324 366 192 369 367
72 119 324 325 120 368 370 371 143
73 324 169 170 325 369 193 372 370
74 120 325 326 121 371 373 374 144
75 325 170 171 326 372 194 375 373
76 121 326 327 122 374 376 377 145
77 326 171 172 327 375 195 378 376
78 122 327 328 123 377 379 380 146
79 327 172 173 328 378 196 381 379
80 123 328 329 124 380 382 383 147
81 328 173 174 329 381 197 384 382
82 124 329 330 125 383 385 386 148
83 329 174 175 330 384 198 387 385
84 125 330 331 126 386 388 389 149
85 330 175 176 331 387 199 390 388
86 126 331 332 127 389 391 392 150
87 331 176 177 332 390 200 393 391
88 127 332 333 128 392 394 395 151
89 332 177 178 333 393 201 396 394
90 128 333 334 129 395 397 398 152
91 333 178 179 334 396 202 399 397
92 129 334 335 130 398 400 401 153
93 334 179 180 335 399 203 402 400
94 130 335 336 131 401 403 404 154
95 335 180 181 336 402 204 405 403
96 131 336 156 5 404 406 157 155
97 336 181 7 156 405 205 158 406
2 3 16 48
98 2 209 407 9 210 430 431 32
99 9 407 408 10 431 432 433 33
100 10 408 409 11 433 434 435 34
101 11 409 410 12 435 436 437 35
102 12 410 411 13 437 438 439 36
103 13 411 412 14 439 440 441 37
104 14 412 413 15 441 442 443 38
105 15 413 414 16 443 444 445 39
106 16 414 415 17 445 446 447 40
107 17 415 416 18 447 448 449 41
108 18 416 417 19 449 450 451 42
109 19 417 418 20 451 452 453 43
110 20 418 419 21 453 454 455 44
111 21 419 420 22 455 456 457 45
112 22 420 421 23 457 458 459 46
113 23 421 422 24 459 460 461 47
114 24 422 423 25 461 462 463 48
115 25 423 424 26 463 464 465 49
116 26 424 425 27 465 466 467 50
117 27 425 426 28 467 468 469 51
118 28 426 427 29 469 470 471 52
119 29 427 428 30 471 472 473 53
120 30 428 429 31 473 474 475 54
121 31 429 212 1 475 476 213 55
122 209 6 109 407 211 132 477 430
123 407 109 110 408 477 133 478 432
124 408 110 111 409 478 134 479 434
125 409 111 112 410 479 135 480 436
126 410 112 113 411 480 136 481 438
127 411 113 114 412 481 137 482 440
128 412 114 115 413 482 138 483 442
129 413 115 116 414 483 139 484 444
130 414 116 117 415 484 140 485 446
131 415 117 118 416 485 141 486 448
132 416 118 119 417 486 142 487 450
133 417 119 120 418 487 143 488 452
134 418 120 121 419 488 144 489 454
135 419 121 122 420 489 145 490 456
136 420 122 123 421 490 146 491 458
137 421 123 124 422 491 147 492 460
138 422 124 125 423 492 148 493 462
139 423 125 126 424 493 149 494 464
140 424 126 127 425 494 150 495 466
141 425 127 128 426 495 151 496 468
142 426 128 129 427 496 152 497 470
143 427 129 130 428 497 153 498 472
144 428 130 131 429 498 154 499 474
145 429 131 5 212 499 155 214 476
2 4 16 48
146 4 59 500 215 82 523 524 216
147 59 60 501 500 83 525 526 523
148 60 61 502 501 84 527 528 525
149 61 62 503 502 85 529 530 527
150 62 63 504 503 86 531 532 529
151 63 64 505 504 87 533 534 531
152 64 65 506 505 88 535 536 533
153 65 66 507 506 89 537 538 535
154 66 67 508 507 90 539 540 537
155 67 68 509 508 91 541 542 539
156 68 69 510 509 92 543 544 541
157 69 70 511 510 93 545 546 543
158 70 71 512 511 94 547 548 545
159 71 72 513 512 95 549 550 547
160 72 73 514 513 96 551 552 549
161 73 74 515 514 97 553 554 551
162 74 75 516 515 98 555 556 553
163 75 76 517 516 99 557 558 555
164 76 77 518 517 100 559 560 557
165 77 78 519 518 101 561 562 559
166 78 79 520 519 102 563 564 561
167 79 80 521 520 103 565 566 563
168 80 81 522 521 104 567 568 565
169 81 3 218 522 105 219 569 567
170 215 500 159 8 524 570 182 217
171 500 501 160 159 526 571 183 570
172 501 502 161 160 528 572 184 571
173 502 503 162 161 530 573 185 572
174 503 504 163 162 532 574 186 573
175 504 505 164 163 534 575 187 574
176 505 506 165 164 536 576 188 575
177 506 507 166 165 538 577 189 576
178 507 508 167 166 540 578 190 577
179 508 509 168 167 542 579 191 578
180 509 510 169 168 544 580 192 579
181 510 511 170 169 546 581 193 580
182 511 512 171 170 548 582 194 581
183 512 513 172 171 550 583 195 582
184 513 514 173 172 552 584 196 583
185 514 515 174 173 554 585 197 584
186 515 516 175 174 556 586 198 585
187 516 517 176 175 558 587 199 586
188 517 518 177 176 560 588 200 587
189 518 519 178 177 562 589 201 588
190 519 520 179 178 564 590 202 589
191 520 521 180 179 566 591 203 590
192 521 522 181 180 568 592 204 591
193 522 218 7 181 569 220 205 592
2 5 16 4
194 2 106 593 209 107 594 595 210
195 209 593 206 6 595 596 207 211
196 106 4 215 593 108 216 597 594
197 593 215 8 206 597 217 208 596
2 6 16 4
198 1 212 598 56 213 599 600 57
199 212 5 156 598 214 157 601 599
200 56 598 218 3 600 602 219 58
201 598 156 7 218 601 158 220 602
3 1 17 96
202 221 9 2 106 603 407 209 593 244 245 626 32 431 107 210 594 627 628 430 595
203 603 407 209 593 314 109 6 206 627 628 629 430 477 595 211 596 338 337 132 207
204 59 221 106 4 500 603 593 215 246 82 523 245 626 108 594 216 630 524 628 597
205 500 603 593 215 159 314 206 8 630 524 570 628 629 597 596 217 339 182 337 208
206 222 10 9 221 604 408 407 603 247 248 631 33 433 244 431 626 632 633 432 627
207 604 408 407 603 315 110 109 314 632 633 634 432 478 627 477 629 341 340 133 338
208 60 222 221 59 501 604 603 500 249 83 525 248 631 246 626 523 635 526 633 630
209 501 604 603 500 160 315 314 159 635 526 571 633 634 630 629 570 342 183 340 339
210 223 11 10 222 605 409 408 604 250 251 636 34 435 247 433 631 637 638 434 632
211 605 409 408 604 316 111 110 315 637 638 639 434 479 632 478 634 344 343 134 341
212 61 223 222 60 502 605 604 501 252 84 527 251 636 249 631 525 640 528 638 635
213 502 605 604 501 161 316 315 160 640 528 572 638 639 635 634 571 345 184 343 342
214 224 12 11 223 606 410 409 605 253 254 641 35 437 250 435 636 642 643 436 637
215 606 410 409 605 317 112 111 316 642 643 644 436 480 637 479 639 347 346 135 344
216 62 224 223 61 503 606 605 502 255 85 529 254 641 252 636 527 645 530 643 640
217 503 606 605 502 162 317 316 161 645 530 573 643 644 640 639 572 348 185 346 345
218 225 13 12 224 607 411 410 606 256 257 646 36 439 253 437 641 647 648 438 642
219 607 411 410 606 318 113 112 317 647 648 649 438 481 642 480 644 350 349 136 347
220 63 225 224 62 504 607 606 503 258 86 531 257 646 255 641 529 650 532 648 645
221 504 607 606 503 163 318 317 162 650 532 574 648 649 645 644 573 351 186 349 348
222 226 14 13 225 608 412 411 607 259 260 651 37 441 256 439 646 652 653 440 647
223 608 412 411 607 319 114 113 318 652 653 654 440 482 647 481 649 353 352 137 350
224 64 226 225 63 505 608 607 504 261 87 533 260 651 258 646 531 655 534 653 650
225 505 608 607 504 164 319 318 163 655 534 575 653 654 650 649 574 354 187 352 351
226 227 15 14 226 609 413 412 608 262 263 656 38 443 259 441 651 657 658 442 652
227 609 413 412 608 320 115 114 319 657 658 659 442 483 652 482 654 356 355 138 353
228 65 227 226 64 506 609 608 505 264 88 535 263 656 261 651 533 660 536 658 655
229 506 609 608 505 165 320 319 164 660 536 576 658 659 655 654 575 357 188 355 354
230 228 16 15 227 610 414 413 609 265 266 661 39 445 262 443 656 662 663 444 657
231 610 414 413 609 321 116 115 320 662 663 664 444 484 657 483 659 359 358 139 356
232 66 228 227 65 507 610 609 506 267 89 537 266 661 264 656 535 665 538 663 660
233 507 610 609 506 166 321 320 165 665 538 577 663 664 660 659 576 360 189 358 357
234 229 17 16 228 611 415 414 610 268 269 666 40 447 265 445 661 667 668 446 662
235 611 415 414 610 322 117 116 321 667 668 669 446 485 662 484 664 362 361 140 359
236 67 229 228 66 508 611 610 507 270 90 539 269 666 267 661 537 670 540 668 665
237 508 611 610 507 167 322 321 166 670 540 578 668 669 665 664 577 363 190 361 360
238 230 18 17 229 612 416 415 611 271 272 671 41 449 268 447 666 672 673 448 667
239 612 416 415 611 323 118 117 322 672 673 674 448 486 667 485 669 365 364 141 362
240 68 230 229 67 509 612 611 508 273 91 541 272 671 270 666 539 675 542 673 670
241 509 612 611 508 168 323 322 167 675 542 579 673 674 670 669 578 366 191 364 363
242 231 19 18 230 613 417 416 612 274 275 676 42 451 271 449 671 677 678 450 672
243 613 417 416 612 324 119 118 323 677 678 679 450 487 672 486 674 368 367 142 365
244 69 231 230 68 510 613 612 509 276 92 543 275 676 273 671 541 680 544 678 675
245 510 613 612 509 169 324 323 168 680 544 580 678 679 675 674 579 369 192 367 366
246 232 20 19 231 614 418 417 613 277 278 681 43 453 274 451 676 682 683 452 677
247 614 418 417 613 325 120 119 324 682 683 684 452 488 677 487 679 371 370 143 368
248 70 232 231 69 511 614 613 510 279 93 545 278 681 276 676 543 685 546 683 680
249 511 614 613 510 170 325 324 169 685 546 581 683 684 680 679 580 372 193 370 369
250 233 21 20 232 615 419 418 614 280 281 686 44 455 277 453 681 687 688 454 682
251 615 419 418 614 326 121 120 325 687 688 689 454 489 682 488 684 374 373 144 371
252 71 233 232 70 512 615 614 511 282 94 547 281 686 279 681 545 690 548 688 685
253 512 615 614 511 171 326 325 170 690 548 582 688 689 685 684 581 375 194 373 372
254 234 22 21 233 616 420 419 615 283 284 691 45 457 280 455 686 692 693 456 687
255 616 420 419 615 327 122 121 326 692 693 694 456 490 687 489 689 377 376 145 374
256 72 234 233 71 513 616 615 512 285 95 549 284 691 282 686 547 695 550 693 690
257 513 616 615 512 172 327 326 171 695 550 583 693 694 690 689 582 378 195 376 375
258 235 23 22 234 617 421 420 616 286 287 696 46 459 283 457 691 697 698 458 692
259 617 421 420 616 328 123 122 327 697 698 699 458 491 692 490 694 380 379 146 377
260 73 235 234 72 514 617 616 513 288 96 551 287 696 285 691 549 700 552 698 695
261 514 617 616 513 173 328 327 172 700 552 584 698 699 695 694 583 381 196 379 378
262 236 24 23 235 618 422 421 617 289 290 701 47 461 286 459 696 702 703 460 697
263 618 422 421 617 329 124 123 328 702 703 704 460 492 697 491 699 383 382 147 380
264 74 236 235 73 515 618 617 514 291 97 553 290 701 288 696 551 705 554 703 700
265 515 618 617 514 174 329 328 173 705 554 585 703 704 700 699 584 384 197 382 381
266 237 25 24 236 619 423 422 618 292 293 706 48 463 289 461 701 707 708 462 702
267 619 423 422 618 330 125 124 329 707 708 709 462 493 702 492 704 386 385 148 383
268 75 237 236 74 516 619 618 515 294 98 555 293 706 291 701 553 710 556 708 705
269 516 619 618 515 175 330 329 174 710 556 586 708 709 705 704 585 387 198 385 384
270 238 26 25 237 620 424 423 619 295 296 711 49 465 292 463 706 712 713 464 707
271 620 424 423 619 331 126 125 330 712 713 714 464 494 707 493 709 389 388 149 386
272 76 238 237 75 517 620 619 516 297 99 557 296 711 294 706 555 715 558 713 710
273 517 620 619 516 176 331 330 175 715 558 587 713 714 710 709 586 390 199 388 387
274 239 27 26 238 621 425 424 620 298 299 716 50 467 295 465 711 717 718 466 712
275 621 425 424 620 332 127 126 331 717 718 719 466 495 712 494 714 392 391 150 389
276 77 239 238 76 518 621 620 517 300 100 559 299 716 297 711 557 720 560 718 715
277 518 621 620 517 177 332 331 176 720 560 588 718 719 715 714 587 393 200 391 390
278 240 28 27 239 622 426 425 621 301 302 721 51 469 298 467 716 722 723 468 717
279 622 426 425 621 333 128 127 332 722 723 724 468 496 717 495 719 395 394 151 392
280 78 240 239 77 519 622 621 518 303 101 561 302 721 300 716 559 725 562 723 720
281 519 622 621 518 178 333 332 177 725 562 589 723 724 720 719 588 396 201 394 393
282 241 29 28 240 623 427 426 622 304 305 726 52 471 301 469 721 727 728 470 722
283 623 427 426 622 334 129 128 333 727 728 729 470 497 722 496 724 398 397 152 395
284 79 241 240 78 520 623 622 519 306 102 563 305 726 303 721 561 730 564 728 725
285 520 623 622 519 179 334 333 178 730 564 590 728 729 725 724 589 399 202 397 396
286 242 30 29 241 624 428 427 623 307 308 731 53 473 304 471 726 732 733 472 727
287 624 428 427 623 335 130 129 334 732 733 734 472 498 727 497 729 401 400 153 398
288 80 242 241 79 521 624 623 520 309 103 565 308 731 306 726 563 735 566 733 730
289 521 624 623 520 180 335 334 179 735 566 591 733 734 730 729 590 402 203 400 399
290 243 31 30 242 625 429 428 624 310 311 736 54 475 307 473 731 737 738 474 732
291 625 429 428 624 336 131 130 335 737 738 739 474 499 732 498 734 404 403 154 401
292 81 243 242 80 522 625 624 521 312 104 567 311 736 309 731 565 740 568 738 735
293 522 625 624 521 181 336 335 180 740 568 592 738 739 735 734 591 405 204 403 402
294 56 1 31 243 598 212 429 625 57 313 600 55 213 310 475 736 599 741 476 737
295 598 212 429 625 156 5 131 336 599 741 601 476 214 737 499 739 157 406 155 404
296 3 56 243 81 218 598 625 522 58 105 219 313 600 312 736 567 602 569 741 740
297 218 598 625 522 7 156 336 181 602 569 220 741 601 740 739 592 158 205 406 405
$EndElements
