$MeshFormat
4.1 0 8
$EndMeshFormat
$PhysicalNames
7
0 7 "neck_monitor"
2 2 "symmetry_x"
2 3 "symmetry_y"
2 4 "midplane"
2 5 "loaded_end"
2 6 "outer_surface"
3 1 "solid"
$EndPhysicalNames
$Entities
8 12 6 1
1 0 0 1 0
2 0 0 0 0
3 0 1 1 0
4 0 1 0 0
5 1 0 1 0
6 1 0 0 1 7
7 1 1 1 0
8 1 1 0 0
1 -1e-07 -1e-07 -9.999999994736442e-08 1e-07 1e-07 1.0000001 0 2 2 -1
2 -1e-07 -9.999999994736442e-08 0.9999999000000001 1e-07 1.0000001 1.0000001 0 2 1 -3
3 -1e-07 0.9999999000000001 -9.999999994736442e-08 1e-07 1.0000001 1.0000001 0 2 4 -3
4 -1e-07 -9.999999994736442e-08 -1e-07 1e-07 1.0000001 1e-07 0 2 2 -4
5 0.9999999000000001 -1e-07 -9.999999994736442e-08 1.0000001 1e-07 1.0000001 0 2 6 -5
6 0.9999999000000001 -9.999999994736442e-08 0.9999999000000001 1.0000001 1.0000001 1.0000001 0 2 5 -7
7 0.9999999000000001 0.9999999000000001 -9.999999994736442e-08 1.0000001 1.0000001 1.0000001 0 2 8 -7
8 0.9999999000000001 -9.999999994736442e-08 -1e-07 1.0000001 1.0000001 1e-07 0 2 6 -8
9 -9.999999994736442e-08 -1e-07 -1e-07 1.0000001 1e-07 1e-07 0 2 2 -6
10 -9.999999994736442e-08 -1e-07 0.9999999000000001 1.0000001 1e-07 1.0000001 0 2 1 -5
11 -9.999999994736442e-08 0.9999999000000001 -1e-07 1.0000001 1.0000001 1e-07 0 2 4 -8
12 -9.999999994736442e-08 0.9999999000000001 0.9999999000000001 1.0000001 1.0000001 1.0000001 0 2 3 -7
1 -1e-07 -9.999999994736442e-08 -9.999999994736442e-08 1e-07 1.0000001 1.0000001 1 2 4 -1 4 3 -2
2 0.9999999000000001 -9.999999994736442e-08 -9.999999994736442e-08 1.0000001 1.0000001 1.0000001 1 6 4 -5 8 7 -6
3 -9.999999994736442e-08 -1e-07 -9.999999994736442e-08 1.0000001 1e-07 1.0000001 1 3 4 -9 1 10 -5
4 -9.999999994736442e-08 0.9999999000000001 -9.999999994736442e-08 1.0000001 1.0000001 1.0000001 1 6 4 -11 3 12 -7
5 -9.999999994736442e-08 -9.999999994736442e-08 -1e-07 1.0000001 1.0000001 1e-07 1 4 4 -4 9 8 -11
6 -9.999999994736442e-08 -9.999999994736442e-08 0.9999999000000001 1.0000001 1.0000001 1.0000001 1 5 4 -2 10 6 -12
1 -9.999999994736442e-08 -9.999999994736442e-08 -9.999999994736442e-08 1.0000001 1.0000001 1.0000001 1 1 6 -1 2 -3 4 -5 6
$EndEntities
$Nodes
27 225 1 225
0 1 0 1
1
0 0 26.667
0 2 0 1
2
0 0 0
0 3 0 1
3
0 5.683373272928537 26.667
0 4 0 1
4
0 5.581072554015823 0
0 5 0 1
5
5.683373272928537 0 26.667
0 6 0 1
6
5.581072554015823 0 0
0 7 0 1
7
5.683373272928537 5.683373272928537 26.667
0 8 0 1
8
5.581072554015823 5.581072554015823 0
1 1 0 23
9
10
11
12
13
14
15
16
17
18
19
20
21
22
23
24
25
26
27
28
29
30
31
0 0 0.7407499999999999
0 0 1.4815
0 0 2.22225
0 0 2.963
0 0 3.70375
0 0 4.444500000000001
0 0 5.18525
0 0 5.925999999999999
0 0 6.66675
0 0 7.4075
0 0 8.148249999999999
0 0 8.889000000000001
0 0 10.3705
0 0 11.852
0 0 13.3335
0 0 14.815
0 0 16.2965
0 0 17.778
0 0 19.2595
0 0 20.741
0 0 22.2225
0 0 23.704
0 0 25.1855
1 2 0 1
32
0 2.841686636464269 26.667
1 3 0 23
33
34
35
36
37
38
39
40
41
42
43
44
45
46
47
48
49
50
51
52
53
54
55
0 5.583914240652287 0.7407499999999999
0 5.586755927288752 1.4815
0 5.589597613925216 2.22225
0 5.59243930056168 2.963
0 5.595280987198144 3.70375
0 5.598122673834609 4.444500000000001
0 5.600964360471073 5.18525
0 5.603806047107538 5.925999999999999
0 5.606647733744001 6.66675
0 5.609489420380466 7.4075
0 5.61233110701693 8.148249999999999
0 5.615172793653395 8.889000000000001
0 5.620856166926323 10.3705
0 5.626539540199252 11.852
0 5.63222291347218 13.3335
0 5.637906286745109 14.815
0 5.643589660018037 16.2965
0 5.649273033290966 17.778
0 5.654956406563894 19.2595
0 5.660639779836823 20.741
0 5.666323153109752 22.2225
0 5.67200652638268 23.704
0 5.677689899655609 25.1855
1 4 0 1
56
0 2.790536277007912 0
1 5 0 23
57
58
59
60
61
62
63
64
65
66
67
68
69
70
71
72
73
74
75
76
77
78
79
5.583914240652287 0 0.7407499999999999
5.586755927288752 0 1.4815
5.589597613925216 0 2.22225
5.59243930056168 0 2.963
5.595280987198144 0 3.70375
5.598122673834609 0 4.444500000000001
5.600964360471073 0 5.18525
5.603806047107538 0 5.925999999999999
5.606647733744001 0 6.66675
5.609489420380466 0 7.4075
5.61233110701693 0 8.148249999999999
5.615172793653395 0 8.889000000000001
5.620856166926323 0 10.3705
5.626539540199252 0 11.852
5.63222291347218 0 13.3335
5.637906286745109 0 14.815
5.643589660018037 0 16.2965
5.649273033290966 0 17.778
5.654956406563894 0 19.2595
5.660639779836823 0 20.741
5.666323153109752 0 22.2225
5.67200652638268 0 23.704
5.677689899655609 0 25.1855
1 6 0 1
80
5.683373272928537 2.841686636464269 26.667
1 7 0 23
81
82
83
84
85
86
87
88
89
90
91
92
93
94
95
96
97
98
99
100
101
102
103
5.583914240652287 5.583914240652287 0.7407499999999999
5.586755927288752 5.586755927288752 1.4815
5.589597613925216 5.589597613925216 2.22225
5.59243930056168 5.59243930056168 2.963
5.595280987198144 5.595280987198144 3.70375
5.598122673834609 5.598122673834609 4.444500000000001
5.600964360471073 5.600964360471073 5.18525
5.603806047107538 5.603806047107538 5.925999999999999
5.606647733744001 5.606647733744001 6.66675
5.609489420380466 5.609489420380466 7.4075
5.61233110701693 5.61233110701693 8.148249999999999
5.615172793653395 5.615172793653395 8.889000000000001
5.620856166926323 5.620856166926323 10.3705
5.626539540199252 5.626539540199252 11.852
5.63222291347218 5.63222291347218 13.3335
5.637906286745109 5.637906286745109 14.815
5.643589660018037 5.643589660018037 16.2965
5.649273033290966 5.649273033290966 17.778
5.654956406563894 5.654956406563894 19.2595
5.660639779836823 5.660639779836823 20.741
5.666323153109752 5.666323153109752 22.2225
5.67200652638268 5.67200652638268 23.704
5.677689899655609 5.677689899655609 25.1855
1 8 0 1
104
5.581072554015823 2.790536277007912 0
1 9 0 1
105
2.790536277007912 0 0
1 10 0 1
106
2.841686636464269 0 26.667
1 11 0 1
107
2.790536277007912 5.581072554015823 0
1 12 0 1
108
2.841686636464269 5.683373272928537 26.667
2 1 0 23
109
110
111
112
113
114
115
116
117
118
119
120
121
122
123
124
125
126
127
128
129
130
131
0 2.791957120326144 0.7407499999999999
0 2.793377963644376 1.4815
0 2.794798806962608 2.22225
0 2.79621965028084 2.963
0 2.797640493599072 3.70375
0 2.799061336917304 4.444500000000001
0 2.800482180235536 5.18525
0 2.801903023553769 5.925999999999999
0 2.803323866872001 6.66675
0 2.804744710190233 7.4075
0 2.806165553508465 8.148249999999999
0 2.807586396826697 8.889000000000001
0 2.810428083463162 10.3705
0 2.813269770099626 11.852
0 2.81611145673609 13.3335
0 2.818953143372554 14.815
0 2.821794830009019 16.2965
0 2.824636516645483 17.778
0 2.827478203281947 19.2595
0 2.830319889918412 20.741
0 2.833161576554876 22.2225
0 2.83600326319134 23.704
0 2.838844949827804 25.1855
2 2 0 23
132
133
134
135
136
137
138
139
140
141
142
143
144
145
146
147
148
149
150
151
152
153
154
5.583914240652287 2.791957120326144 0.7407499999999999
5.586755927288752 2.793377963644376 1.4815
5.589597613925216 2.794798806962608 2.22225
5.59243930056168 2.79621965028084 2.963
5.595280987198144 2.797640493599072 3.70375
5.598122673834609 2.799061336917304 4.444500000000001
5.600964360471073 2.800482180235536 5.18525
5.603806047107538 2.801903023553769 5.925999999999999
5.606647733744001 2.803323866872001 6.66675
5.609489420380466 2.804744710190233 7.4075
5.61233110701693 2.806165553508465 8.148249999999999
5.615172793653395 2.807586396826697 8.889000000000001
5.620856166926323 2.810428083463162 10.3705
5.626539540199252 2.813269770099626 11.852
5.63222291347218 2.81611145673609 13.3335
5.637906286745109 2.818953143372554 14.815
5.643589660018037 2.821794830009019 16.2965
5.649273033290966 2.824636516645483 17.778
5.654956406563894 2.827478203281947 19.2595
5.660639779836823 2.830319889918412 20.741
5.666323153109752 2.833161576554876 22.2225
5.67200652638268 2.83600326319134 23.704
5.677689899655609 2.838844949827804 25.1855
2 3 0 23
155
156
157
158
159
160
161
162
163
164
165
166
167
168
169
170
171
172
173
174
175
176
177
2.791957120326144 0 0.7407499999999999
2.793377963644375 0 1.4815
2.794798806962608 0 2.22225
2.79621965028084 0 2.963
2.797640493599072 0 3.70375
2.799061336917304 0 4.444500000000001
2.800482180235536 0 5.18525
2.801903023553769 0 5.925999999999999
2.803323866872001 0 6.66675
2.804744710190233 0 7.4075
2.806165553508465 0 8.148249999999999
2.807586396826697 0 8.889000000000001
2.810428083463162 0 10.3705
2.813269770099626 0 11.852
2.81611145673609 0 13.3335
2.818953143372554 0 14.815
2.821794830009019 0 16.2965
2.824636516645483 0 17.778
2.827478203281947 0 19.2595
2.830319889918412 0 20.741
2.833161576554876 0 22.2225
2.83600326319134 0 23.704
2.838844949827804 0 25.1855
2 4 0 23
178
179
180
181
182
183
184
185
186
187
188
189
190
191
192
193
194
195
196
197
198
199
200
2.791957120326144 5.583914240652287 0.7407499999999999
2.793377963644375 5.586755927288752 1.4815
2.794798806962608 5.589597613925216 2.22225
2.79621965028084 5.59243930056168 2.963
2.797640493599072 5.595280987198144 3.70375
2.799061336917304 5.598122673834609 4.444500000000001
2.800482180235536 5.600964360471073 5.18525
2.801903023553769 5.603806047107538 5.925999999999999
2.803323866872001 5.606647733744001 6.66675
2.804744710190233 5.609489420380466 7.4075
2.806165553508465 5.61233110701693 8.148249999999999
2.807586396826697 5.615172793653395 8.889000000000001
2.810428083463162 5.620856166926323 10.3705
2.813269770099626 5.626539540199252 11.852
2.81611145673609 5.63222291347218 13.3335
2.818953143372554 5.637906286745109 14.815
2.821794830009019 5.643589660018037 16.2965
2.824636516645483 5.649273033290966 17.778
2.827478203281947 5.654956406563894 19.2595
2.830319889918412 5.660639779836823 20.741
2.833161576554876 5.666323153109752 22.2225
2.83600326319134 5.67200652638268 23.704
2.838844949827804 5.677689899655609 25.1855
2 5 0 1
201
2.790536277007912 2.790536277007912 0
2 6 0 1
202
2.841686636464269 2.841686636464269 26.667
3 1 0 23
203
204
205
206
207
208
209
210
211
212
213
214
215
216
217
218
219
220
221
222
223
224
225
2.791957120326144 2.791957120326144 0.7407499999999998
2.793377963644376 2.793377963644376 1.4815
2.794798806962608 2.794798806962608 2.22225
2.79621965028084 2.79621965028084 2.962999999999999
2.797640493599072 2.797640493599072 3.703749999999999
2.799061336917304 2.799061336917304 4.444500000000001
2.800482180235536 2.800482180235536 5.185249999999997
2.801903023553769 2.801903023553769 5.925999999999998
2.803323866872001 2.803323866872001 6.66675
2.804744710190233 2.804744710190233 7.407499999999998
2.806165553508465 2.806165553508465 8.148250000000003
2.807586396826697 2.807586396826697 8.889000000000001
2.810428083463162 2.810428083463162 10.37049999999999
2.813269770099626 2.813269770099626 11.85199999999999
2.81611145673609 2.81611145673609 13.3335
2.818953143372554 2.818953143372554 14.81499999999999
2.821794830009019 2.821794830009019 16.29649999999999
2.824636516645483 2.824636516645483 17.778
2.827478203281947 2.827478203281947 19.25950000000001
2.830319889918412 2.830319889918412 20.74099999999999
2.833161576554876 2.833161576554876 22.2225
2.83600326319134 2.83600326319134 23.70400000000001
2.838844949827804 2.838844949827804 25.18549999999999
$EndNodes
$Elements
8 297 1 297
0 6 15 1
1 6
2 1 3 48
2 2 9 109 56
3 56 109 33 4
4 9 10 110 109
5 109 110 34 33
6 10 11 111 110
7 110 111 35 34
8 11 12 112 111
9 111 112 36 35
10 12 13 113 112
11 112 113 37 36
12 13 14 114 113
13 113 114 38 37
14 14 15 115 114
15 114 115 39 38
16 15 16 116 115
17 115 116 40 39
18 16 17 117 116
19 116 117 41 40
20 17 18 118 117
21 117 118 42 41
22 18 19 119 118
23 118 119 43 42
24 19 20 120 119
25 119 120 44 43
26 20 21 121 120
27 120 121 45 44
28 21 22 122 121
29 121 122 46 45
30 22 23 123 122
31 122 123 47 46
32 23 24 124 123
33 123 124 48 47
34 24 25 125 124
35 124 125 49 48
36 25 26 126 125
37 125 126 50 49
38 26 27 127 126
39 126 127 51 50
40 27 28 128 127
41 127 128 52 51
42 28 29 129 128
43 128 129 53 52
44 29 30 130 129
45 129 130 54 53
46 30 31 131 130
47 130 131 55 54
48 31 1 32 131
49 131 32 3 55
2 2 3 48
50 6 104 132 57
51 104 8 81 132
52 57 132 133 58
53 132 81 82 133
54 58 133 134 59
55 133 82 83 134
56 59 134 135 60
57 134 83 84 135
58 60 135 136 61
59 135 84 85 136
60 61 136 137 62
61 136 85 86 137
62 62 137 138 63
63 137 86 87 138
64 63 138 139 64
65 138 87 88 139
66 64 139 140 65
67 139 88 89 140
68 65 140 141 66
69 140 89 90 141
70 66 141 142 67
71 141 90 91 142
72 67 142 143 68
73 142 91 92 143
74 68 143 144 69
75 143 92 93 144
76 69 144 145 70
77 144 93 94 145
78 70 145 146 71
79 145 94 95 146
80 71 146 147 72
81 146 95 96 147
82 72 147 148 73
83 147 96 97 148
84 73 148 149 74
85 148 97 98 149
86 74 149 150 75
87 149 98 99 150
88 75 150 151 76
89 150 99 100 151
90 76 151 152 77
91 151 100 101 152
92 77 152 153 78
93 152 101 102 153
94 78 153 154 79
95 153 102 103 154
96 79 154 80 5
97 154 103 7 80
2 3 3 48
98 2 105 155 9
99 9 155 156 10
100 10 156 157 11
101 11 157 158 12
102 12 158 159 13
103 13 159 160 14
104 14 160 161 15
105 15 161 162 16
106 16 162 163 17
107 17 163 164 18
108 18 164 165 19
109 19 165 166 20
110 20 166 167 21
111 21 167 168 22
112 22 168 169 23
113 23 169 170 24
114 24 170 171 25
115 25 171 172 26
116 26 172 173 27
117 27 173 174 28
118 28 174 175 29
119 29 175 176 30
120 30 176 177 31
121 31 177 106 1
122 105 6 57 155
123 155 57 58 156
124 156 58 59 157
125 157 59 60 158
126 158 60 61 159
127 159 61 62 160
128 160 62 63 161
129 161 63 64 162
130 162 64 65 163
131 163 65 66 164
132 164 66 67 165
133 165 67 68 166
134 166 68 69 167
135 167 69 70 168
136 168 70 71 169
137 169 71 72 170
138 170 72 73 171
139 171 73 74 172
140 172 74 75 173
141 173 75 76 174
142 174 76 77 175
143 175 77 78 176
144 176 78 79 177
145 177 79 5 106
2 4 3 48
146 4 33 178 107
147 33 34 179 178
148 34 35 180 179
149 35 36 181 180
150 36 37 182 181
151 37 38 183 182
152 38 39 184 183
153 39 40 185 184
154 40 41 186 185
155 41 42 187 186
156 42 43 188 187
157 43 44 189 188
158 44 45 190 189
159 45 46 191 190
160 46 47 192 191
161 47 48 193 192
162 48 49 194 193
163 49 50 195 194
164 50 51 196 195
165 51 52 197 196
166 52 53 198 197
167 53 54 199 198
168 54 55 200 199
169 55 3 108 200
170 107 178 81 8
171 178 179 82 81
172 179 180 83 82
173 180 181 84 83
174 181 182 85 84
175 182 183 86 85
176 183 184 87 86
177 184 185 88 87
178 185 186 89 88
179 186 187 90 89
180 187 188 91 90
181 188 189 92 91
182 189 190 93 92
183 190 191 94 93
184 191 192 95 94
185 192 193 96 95
186 193 194 97 96
187 194 195 98 97
188 195 196 99 98
189 196 197 100 99
190 197 198 101 100
191 198 199 102 101
192 199 200 103 102
193 200 108 7 103
2 5 3 4
194 2 56 201 105
195 105 201 104 6
196 56 4 107 201
197 201 107 8 104
2 6 3 4
198 1 106 202 32
199 106 5 80 202
200 32 202 108 3
201 202 80 7 108
3 1 5 96
202 109 9 2 56 203 155 105 201
203 203 155 105 201 132 57 6 104
204 33 109 56 4 178 203 201 107
205 178 203 201 107 81 132 104 8
206 110 10 9 109 204 156 155 203
207 204 156 155 203 133 58 57 132
208 34 110 109 33 179 204 203 178
209 179 204 203 178 82 133 132 81
210 111 11 10 110 205 157 156 204
211 205 157 156 204 134 59 58 133
212 35 111 110 34 180 205 204 179
213 180 205 204 179 83 134 133 82
214 112 12 11 111 206 158 157 205
215 206 158 157 205 135 60 59 134
216 36 112 111 35 181 206 205 180
217 181 206 205 180 84 135 134 83
218 113 13 12 112 207 159 158 206
219 207 159 158 206 136 61 60 135
220 37 113 112 36 182 207 206 181
221 182 207 206 181 85 136 135 84
222 114 14 13 113 208 160 159 207
223 208 160 159 207 137 62 61 136
224 38 114 113 37 183 208 207 182
225 183 208 207 182 86 137 136 85
226 115 15 14 114 209 161 160 208
227 209 161 160 208 138 63 62 137
228 39 115 114 38 184 209 208 183
229 184 209 208 183 87 138 137 86
230 116 16 15 115 210 162 161 209
231 210 162 161 209 139 64 63 138
232 40 116 115 39 185 210 209 184
233 185 210 209 184 88 139 138 87
234 117 17 16 116 211 163 162 210
235 211 163 162 210 140 65 64 139
236 41 117 116 40 186 211 210 185
237 186 211 210 185 89 140 139 88
238 118 18 17 117 212 164 163 211
239 212 164 163 211 141 66 65 140
240 42 118 117 41 187 212 211 186
241 187 212 211 186 90 141 140 89
242 119 19 18 118 213 165 164 212
243 213 165 164 212 142 67 66 141
244 43 119 118 42 188 213 212 187
245 188 213 212 187 91 142 141 90
246 120 20 19 119 214 166 165 213
247 214 166 165 213 143 68 67 142
248 44 120 119 43 189 214 213 188
249 189 214 213 188 92 143 142 91
250 121 21 20 120 215 167 166 214
251 215 167 166 214 144 69 68 143
252 45 121 120 44 190 215 214 189
253 190 215 214 189 93 144 143 92
254 122 22 21 121 216 168 167 215
255 216 168 167 215 145 70 69 144
256 46 122 121 45 191 216 215 190
257 191 216 215 190 94 145 144 93
258 123 23 22 122 217 169 168 216
259 217 169 168 216 146 71 70 145
260 47 123 122 46 192 217 216 191
261 192 217 216 191 95 146 145 94
262 124 24 23 123 218 170 169 217
263 218 170 169 217 147 72 71 146
264 48 124 123 47 193 218 217 192
265 193 218 217 192 96 147 146 95
266 125 25 24 124 219 171 170 218
267 219 171 170 218 148 73 72 147
268 49 125 124 48 194 219 218 193
269 194 219 218 193 97 148 147 96
270 126 26 25 125 220 172 171 219
271 220 172 171 219 149 74 73 148
272 50 126 125 49 195 220 219 194
273 195 220 219 194 98 149 148 97
274 127 27 26 126 221 173 172 220
275 221 173 172 220 150 75 74 149
276 51 127 126 50 196 221 220 195
277 196 221 220 195 99 150 149 98
278 128 28 27 127 222 174 173 221
279 222 174 173 221 151 76 75 150
280 52 128 127 51 197 222 221 196
281 197 222 221 196 100 151 150 99
282 129 29 28 128 223 175 174 222
283 223 175 174 222 152 77 76 151
284 53 129 128 52 198 223 222 197
285 198 223 222 197 101 152 151 100
286 130 30 29 129 224 176 175 223
287 224 176 175 223 153 78 77 152
288 54 130 129 53 199 224 223 198
289 199 224 223 198 102 153 152 101
290 131 31 30 130 225 177 176 224
291 225 177 176 224 154 79 78 153
292 55 131 130 54 200 225 224 199
293 200 225 224 199 103 154 153 102
294 32 1 31 131 202 106 177 225
295 202 106 177 225 80 5 79 154
296 3 32 131 55 108 202 225 200
297 108 202 225 200 7 80 154 103
$EndElements
