$MeshFormat
4.1 0 8
$EndMeshFormat
$PhysicalNames
8
0 8 "anchor"
2 2 "xmin"
2 3 "xmax"
2 4 "ymin"
2 5 "ymax"
2 6 "zmin"
2 7 "zmax"
3 1 "solid"
$EndPhysicalNames
$Entities
8 12 6 1
1 0 0 1 0 
2 0 0 0 1 8 
3 0 1 1 0 
4 0 1 0 0 
5 1 0 1 0 
6 1 0 0 0 
7 1 1 1 0 
8 1 1 0 0 
1 -1e-07 -1e-07 -9.999999994736442e-08 1e-07 1e-07 1.0000001 0 2 2 -1 
2 -1e-07 -9.999999994736442e-08 0.9999999000000001 1e-07 1.0000001 1.0000001 0 2 1 -3 
3 -1e-07 0.9999999000000001 -9.999999994736442e-08 1e-07 1.0000001 1.0000001 0 2 4 -3 
4 -1e-07 -9.999999994736442e-08 -1e-07 1e-07 1.0000001 1e-07 0 2 2 -4 
5 0.9999999000000001 -1e-07 -9.999999994736442e-08 1.0000001 1e-07 1.0000001 0 2 6 -5 
6 0.9999999000000001 -9.999999994736442e-08 0.9999999000000001 1.0000001 1.0000001 1.0000001 0 2 5 -7 
7 0.9999999000000001 0.9999999000000001 -9.999999994736442e-08 1.0000001 1.0000001 1.0000001 0 2 8 -7 
8 0.9999999000000001 -9.999999994736442e-08 -1e-07 1.0000001 1.0000001 1e-07 0 2 6 -8 
9 -9.999999994736442e-08 -1e-07 -1e-07 1.0000001 1e-07 1e-07 0 2 2 -6 
10 -9.999999994736442e-08 -1e-07 0.9999999000000001 1.0000001 1e-07 1.0000001 0 2 1 -5 
11 -9.999999994736442e-08 0.9999999000000001 -1e-07 1.0000001 1.0000001 1e-07 0 2 4 -8 
12 -9.999999994736442e-08 0.9999999000000001 0.9999999000000001 1.0000001 1.0000001 1.0000001 0 2 3 -7 
1 -1e-07 -9.999999994736442e-08 -9.999999994736442e-08 1e-07 1.0000001 1.0000001 1 2 4 -1 4 3 -2 
2 0.9999999000000001 -9.999999994736442e-08 -9.999999994736442e-08 1.0000001 1.0000001 1.0000001 1 3 4 -5 8 7 -6 
3 -9.999999994736442e-08 -1e-07 -9.999999994736442e-08 1.0000001 1e-07 1.0000001 1 4 4 -9 1 10 -5 
4 -9.999999994736442e-08 0.9999999000000001 -9.999999994736442e-08 1.0000001 1.0000001 1.0000001 1 5 4 -11 3 12 -7 
5 -9.999999994736442e-08 -9.999999994736442e-08 -1e-07 1.0000001 1.0000001 1e-07 1 6 4 -4 9 8 -11 
6 -9.999999994736442e-08 -9.999999994736442e-08 0.9999999000000001 1.0000001 1.0000001 1.0000001 1 7 4 -2 10 6 -12 
1 -9.999999994736442e-08 -9.999999994736442e-08 -9.999999994736442e-08 1.0000001 1.0000001 1.0000001 1 1 6 -1 2 -3 4 -5 6 
$EndEntities
$Nodes
27 729 1 729
0 1 0 1
1
0 0 1
0 2 0 1
2
0 0 0
0 3 0 1
3
0 1 1
0 4 0 1
4
0 1 0
0 5 0 1
5
1 0 1
0 6 0 1
6
1 0 0
0 7 0 1
7
1 1 1
0 8 0 1
8
1 1 0
1 1 0 7
9
10
11
12
13
14
15
0 0 0.125
0 0 0.25
0 0 0.375
0 0 0.5
0 0 0.625
0 0 0.75
0 0 0.875
1 2 0 7
16
17
18
19
20
21
22
0 0.125 1
0 0.25 1
0 0.375 1
0 0.5 1
0 0.625 1
0 0.75 1
0 0.875 1
1 3 0 7
23
24
25
26
27
28
29
0 1 0.125
0 1 0.25
0 1 0.375
0 1 0.5
0 1 0.625
0 1 0.75
0 1 0.875
1 4 0 7
30
31
32
33
34
35
36
0 0.125 0
0 0.25 0
0 0.375 0
0 0.5 0
0 0.625 0
0 0.75 0
0 0.875 0
1 5 0 7
37
38
39
40
41
42
43
1 0 0.125
1 0 0.25
1 0 0.375
1 0 0.5
1 0 0.625
1 0 0.75
1 0 0.875
1 6 0 7
44
45
46
47
48
49
50
1 0.125 1
1 0.25 1
1 0.375 1
1 0.5 1
1 0.625 1
1 0.75 1
1 0.875 1
1 7 0 7
51
52
53
54
55
56
57
1 1 0.125
1 1 0.25
1 1 0.375
1 1 0.5
1 1 0.625
1 1 0.75
1 1 0.875
1 8 0 7
58
59
60
61
62
63
64
1 0.125 0
1 0.25 0
1 0.375 0
1 0.5 0
1 0.625 0
1 0.75 0
1 0.875 0
1 9 0 7
65
66
67
68
69
70
71
0.125 0 0
0.25 0 0
0.375 0 0
0.5 0 0
0.625 0 0
0.75 0 0
0.875 0 0
1 10 0 7
72
73
74
75
76
77
78
0.125 0 1
0.25 0 1
0.375 0 1
0.5 0 1
0.625 0 1
0.75 0 1
0.875 0 1
1 11 0 7
79
80
81
82
83
84
85
0.125 1 0
0.25 1 0
0.375 1 0
0.5 1 0
0.625 1 0
0.75 1 0
0.875 1 0
1 12 0 7
86
87
88
89
90
91
92
0.125 1 1
0.25 1 1
0.375 1 1
0.5 1 1
0.625 1 1
0.75 1 1
0.875 1 1
2 1 0 49
93
94
95
96
97
98
99
100
101
102
103
104
105
106
107
108
109
110
111
112
113
114
115
116
117
118
119
120
121
122
123
124
125
126
127
128
129
130
131
132
133
134
135
136
137
138
139
140
141
0 0.125 0.125
0 0.25 0.125
0 0.375 0.125
0 0.5 0.125
0 0.625 0.125
0 0.75 0.125
0 0.875 0.125
0 0.125 0.25
0 0.25 0.25
0 0.375 0.25
0 0.5 0.25
0 0.625 0.25
0 0.75 0.25
0 0.875 0.25
0 0.125 0.375
0 0.25 0.375
0 0.375 0.375
0 0.5 0.375
0 0.625 0.375
0 0.75 0.375
0 0.875 0.375
0 0.125 0.5
0 0.25 0.5
0 0.375 0.5
0 0.5 0.5
0 0.625 0.5
0 0.75 0.5
0 0.875 0.5
0 0.125 0.625
0 0.25 0.625
0 0.375 0.625
0 0.5 0.625
0 0.625 0.625
0 0.75 0.625
0 0.875 0.625
0 0.125 0.75
0 0.25 0.75
0 0.375 0.75
0 0.5 0.75
0 0.625 0.75
0 0.75 0.75
0 0.875 0.75
0 0.125 0.875
0 0.25 0.875
0 0.375 0.875
0 0.5 0.875
0 0.625 0.875
0 0.75 0.875
0 0.875 0.875
2 2 0 49
142
143
144
145
146
147
148
149
150
151
152
153
154
155
156
157
158
159
160
161
162
163
164
165
166
167
168
169
170
171
172
173
174
175
176
177
178
179
180
181
182
183
184
185
186
187
188
189
190
1 0.125 0.125
1 0.25 0.125
1 0.375 0.125
1 0.5 0.125
1 0.625 0.125
1 0.75 0.125
1 0.875 0.125
1 0.125 0.25
1 0.25 0.25
1 0.375 0.25
1 0.5 0.25
1 0.625 0.25
1 0.75 0.25
1 0.875 0.25
1 0.125 0.375
1 0.25 0.375
1 0.375 0.375
1 0.5 0.375
1 0.625 0.375
1 0.75 0.375
1 0.875 0.375
1 0.125 0.5
1 0.25 0.5
1 0.375 0.5
1 0.5 0.5
1 0.625 0.5
1 0.75 0.5
1 0.875 0.5
1 0.125 0.625
1 0.25 0.625
1 0.375 0.625
1 0.5 0.625
1 0.625 0.625
1 0.75 0.625
1 0.875 0.625
1 0.125 0.75
1 0.25 0.75
1 0.375 0.75
1 0.5 0.75
1 0.625 0.75
1 0.75 0.75
1 0.875 0.75
1 0.125 0.875
1 0.25 0.875
1 0.375 0.875
1 0.5 0.875
1 0.625 0.875
1 0.75 0.875
1 0.875 0.875
2 3 0 49
191
192
193
194
195
196
197
198
199
200
201
202
203
204
205
206
207
208
209
210
211
212
213
214
215
216
217
218
219
220
221
222
223
224
225
226
227
228
229
230
231
232
233
234
235
236
237
238
239
0.125 0 0.125
0.125 0 0.25
0.125 0 0.375
0.125 0 0.5
0.125 0 0.625
0.125 0 0.75
0.125 0 0.875
0.25 0 0.125
0.25 0 0.25
0.25 0 0.375
0.25 0 0.5
0.25 0 0.625
0.25 0 0.75
0.25 0 0.875
0.375 0 0.125
0.375 0 0.25
0.375 0 0.375
0.375 0 0.5
0.375 0 0.625
0.375 0 0.75
0.375 0 0.875
0.5 0 0.125
0.5 0 0.25
0.5 0 0.375
0.5 0 0.5
0.5 0 0.625
0.5 0 0.75
0.5 0 0.875
0.625 0 0.125
0.625 0 0.25
0.625 0 0.375
0.625 0 0.5
0.625 0 0.625
0.625 0 0.75
0.625 0 0.875
0.75 0 0.125
0.75 0 0.25
0.75 0 0.375
0.75 0 0.5
0.75 0 0.625
0.75 0 0.75
0.75 0 0.875
0.875 0 0.125
0.875 0 0.25
0.875 0 0.375
0.875 0 0.5
0.875 0 0.625
0.875 0 0.75
0.875 0 0.875
2 4 0 49
240
241
242
243
244
245
246
247
248
249
250
251
252
253
254
255
256
257
258
259
260
261
262
263
264
265
266
267
268
269
270
271
272
273
274
275
276
277
278
279
280
281
282
283
284
285
286
287
288
0.125 1 0.125
0.125 1 0.25
0.125 1 0.375
0.125 1 0.5
0.125 1 0.625
0.125 1 0.75
0.125 1 0.875
0.25 1 0.125
0.25 1 0.25
0.25 1 0.375
0.25 1 0.5
0.25 1 0.625
0.25 1 0.75
0.25 1 0.875
0.375 1 0.125
0.375 1 0.25
0.375 1 0.375
0.375 1 0.5
0.375 1 0.625
0.375 1 0.75
0.375 1 0.875
0.5 1 0.125
0.5 1 0.25
0.5 1 0.375
0.5 1 0.5
0.5 1 0.625
0.5 1 0.75
0.5 1 0.875
0.625 1 0.125
0.625 1 0.25
0.625 1 0.375
0.625 1 0.5
0.625 1 0.625
0.625 1 0.75
0.625 1 0.875
0.75 1 0.125
0.75 1 0.25
0.75 1 0.375
0.75 1 0.5
0.75 1 0.625
0.75 1 0.75
0.75 1 0.875
0.875 1 0.125
0.875 1 0.25
0.875 1 0.375
0.875 1 0.5
0.875 1 0.625
0.875 1 0.75
0.875 1 0.875
2 5 0 49
289
290
291
292
293
294
295
296
297
298
299
300
301
302
303
304
305
306
307
308
309
310
311
312
313
314
315
316
317
318
319
320
321
322
323
324
325
326
327
328
329
330
331
332
333
334
335
336
337
0.125 0.125 0
0.25 0.125 0
0.375 0.125 0
0.5 0.125 0
0.625 0.125 0
0.75 0.125 0
0.875 0.125 0
0.125 0.25 0
0.25 0.25 0
0.375 0.25 0
0.5 0.25 0
0.625 0.25 0
0.75 0.25 0
0.875 0.25 0
0.125 0.375 0
0.25 0.375 0
0.375 0.375 0
0.5 0.375 0
0.625 0.375 0
0.75 0.375 0
0.875 0.375 0
0.125 0.5 0
0.25 0.5 0
0.375 0.5 0
0.5 0.5 0
0.625 0.5 0
0.75 0.5 0
0.875 0.5 0
0.125 0.625 0
0.25 0.625 0
0.375 0.625 0
0.5 0.625 0
0.625 0.625 0
0.75 0.625 0
0.875 0.625 0
0.125 0.75 0
0.25 0.75 0
0.375 0.75 0
0.5 0.75 0
0.625 0.75 0
0.75 0.75 0
0.875 0.75 0
0.125 0.875 0
0.25 0.875 0
0.375 0.875 0
0.5 0.875 0
0.625 0.875 0
0.75 0.875 0
0.875 0.875 0
2 6 0 49
338
339
340
341
342
343
344
345
346
347
348
349
350
351
352
353
354
355
356
357
358
359
360
361
362
363
364
365
366
367
368
369
370
371
372
373
374
375
376
377
378
379
380
381
382
383
384
385
386
0.125 0.125 1
0.25 0.125 1
0.375 0.125 1
0.5 0.125 1
0.625 0.125 1
0.75 0.125 1
0.875 0.125 1
0.125 0.25 1
0.25 0.25 1
0.375 0.25 1
0.5 0.25 1
0.625 0.25 1
0.75 0.25 1
0.875 0.25 1
0.125 0.375 1
0.25 0.375 1
0.375 0.375 1
0.5 0.375 1
0.625 0.375 1
0.75 0.375 1
0.875 0.375 1
0.125 0.5 1
0.25 0.5 1
0.375 0.5 1
0.5 0.5 1
0.625 0.5 1
0.75 0.5 1
0.875 0.5 1
0.125 0.625 1
0.25 0.625 1
0.375 0.625 1
0.5 0.625 1
0.625 0.625 1
0.75 0.625 1
0.875 0.625 1
0.125 0.75 1
0.25 0.75 1
0.375 0.75 1
0.5 0.75 1
0.625 0.75 1
0.75 0.75 1
0.875 0.75 1
0.125 0.875 1
0.25 0.875 1
0.375 0.875 1
0.5 0.875 1
0.625 0.875 1
0.75 0.875 1
0.875 0.875 1
3 1 0 343
387
388
389
390
391
392
393
394
395
396
397
398
399
400
401
402
403
404
405
406
407
408
409
410
411
412
413
414
415
416
417
418
419
420
421
422
423
424
425
426
427
428
429
430
431
432
433
434
435
436
437
438
439
440
441
442
443
444
445
446
447
448
449
450
451
452
453
454
455
456
457
458
459
460
461
462
463
464
465
466
467
468
469
470
471
472
473
474
475
476
477
478
479
480
481
482
483
484
485
486
487
488
489
490
491
492
493
494
495
496
497
498
499
500
501
502
503
504
505
506
507
508
509
510
511
512
513
514
515
516
517
518
519
520
521
522
523
524
525
526
527
528
529
530
531
532
533
534
535
536
537
538
539
540
541
542
543
544
545
546
547
548
549
550
551
552
553
554
555
556
557
558
559
560
561
562
563
564
565
566
567
568
569
570
571
572
573
574
575
576
577
578
579
580
581
582
583
584
585
586
587
588
589
590
591
592
593
594
595
596
597
598
599
600
601
602
603
604
605
606
607
608
609
610
611
612
613
614
615
616
617
618
619
620
621
622
623
624
625
626
627
628
629
630
631
632
633
634
635
636
637
638
639
640
641
642
643
644
645
646
647
648
649
650
651
652
653
654
655
656
657
658
659
660
661
662
663
664
665
666
667
668
669
670
671
672
673
674
675
676
677
678
679
680
681
682
683
684
685
686
687
688
689
690
691
692
693
694
695
696
697
698
699
700
701
702
703
704
705
706
707
708
709
710
711
712
713
714
715
716
717
718
719
720
721
722
723
724
725
726
727
728
729
0.125 0.125 0.125
0.25 0.125 0.125
0.375 0.125 0.125
0.5 0.125 0.125
0.625 0.125 0.125
0.75 0.125 0.125
0.875 0.125 0.125
0.125 0.25 0.125
0.25 0.25 0.125
0.375 0.25 0.125
0.5 0.25 0.125
0.625 0.25 0.125
0.75 0.25 0.125
0.875 0.25 0.125
0.125 0.375 0.125
0.25 0.375 0.125
0.375 0.375 0.125
0.5 0.375 0.125
0.625 0.375 0.125
0.75 0.375 0.125
0.875 0.375 0.125
0.125 0.5 0.125
0.25 0.5 0.125
0.375 0.5 0.125
0.5 0.5 0.125
0.625 0.5 0.125
0.75 0.5 0.125
0.875 0.5 0.125
0.125 0.625 0.125
0.25 0.625 0.125
0.375 0.625 0.125
0.5 0.625 0.125
0.625 0.625 0.125
0.75 0.625 0.125
0.875 0.625 0.125
0.125 0.75 0.125
0.25 0.75 0.125
0.375 0.75 0.125
0.5 0.75 0.125
0.625 0.75 0.125
0.75 0.75 0.125
0.875 0.75 0.125
0.125 0.875 0.125
0.25 0.875 0.125
0.375 0.875 0.125
0.5 0.875 0.125
0.625 0.875 0.125
0.75 0.875 0.125
0.875 0.875 0.125
0.125 0.125 0.25
0.25 0.125 0.25
0.375 0.125 0.25
0.5 0.125 0.25
0.625 0.125 0.25
0.75 0.125 0.25
0.875 0.125 0.25
0.125 0.25 0.25
0.25 0.25 0.25
0.375 0.25 0.25
0.5 0.25 0.25
0.625 0.25 0.25
0.75 0.25 0.25
0.875 0.25 0.25
0.125 0.375 0.25
0.25 0.375 0.25
0.375 0.375 0.25
0.5 0.375 0.25
0.625 0.375 0.25
0.75 0.375 0.25
0.875 0.375 0.25
0.125 0.5 0.25
0.25 0.5 0.25
0.375 0.5 0.25
0.5 0.5 0.25
0.625 0.5 0.25
0.75 0.5 0.25
0.875 0.5 0.25
0.125 0.625 0.25
0.25 0.625 0.25
0.375 0.625 0.25
0.5 0.625 0.25
0.625 0.625 0.25
0.75 0.625 0.25
0.875 0.625 0.25
0.125 0.75 0.25
0.25 0.75 0.25
0.375 0.75 0.25
0.5 0.75 0.25
0.625 0.75 0.25
0.75 0.75 0.25
0.875 0.75 0.25
0.125 0.875 0.25
0.25 0.875 0.25
0.375 0.875 0.25
0.5 0.875 0.25
0.625 0.875 0.25
0.75 0.875 0.25
0.875 0.875 0.25
0.125 0.125 0.375
0.25 0.125 0.375
0.375 0.125 0.375
0.5 0.125 0.375
0.625 0.125 0.375
0.75 0.125 0.375
0.875 0.125 0.375
0.125 0.25 0.375
0.25 0.25 0.375
0.375 0.25 0.375
0.5 0.25 0.375
0.625 0.25 0.375
0.75 0.25 0.375
0.875 0.25 0.375
0.125 0.375 0.375
0.25 0.375 0.375
0.375 0.375 0.375
0.5 0.375 0.375
0.625 0.375 0.375
0.75 0.375 0.375
0.875 0.375 0.375
0.125 0.5 0.375
0.25 0.5 0.375
0.375 0.5 0.375
0.5 0.5 0.375
0.625 0.5 0.375
0.75 0.5 0.375
0.875 0.5 0.375
0.125 0.625 0.375
0.25 0.625 0.375
0.375 0.625 0.375
0.5 0.625 0.375
0.625 0.625 0.375
0.75 0.625 0.375
0.875 0.625 0.375
0.125 0.75 0.375
0.25 0.75 0.375
0.375 0.75 0.375
0.5 0.75 0.375
0.625 0.75 0.375
0.75 0.75 0.375
0.875 0.75 0.375
0.125 0.875 0.375
0.25 0.875 0.375
0.375 0.875 0.375
0.5 0.875 0.375
0.625 0.875 0.375
0.75 0.875 0.375
0.875 0.875 0.375
0.125 0.125 0.5
0.25 0.125 0.5
0.375 0.125 0.5
0.5 0.125 0.5
0.625 0.125 0.5
0.75 0.125 0.5
0.875 0.125 0.5
0.125 0.25 0.5
0.25 0.25 0.5
0.375 0.25 0.5
0.5 0.25 0.5
0.625 0.25 0.5
0.75 0.25 0.5
0.875 0.25 0.5
0.125 0.375 0.5
0.25 0.375 0.5
0.375 0.375 0.5
0.5 0.375 0.5
0.625 0.375 0.5
0.75 0.375 0.5
0.875 0.375 0.5
0.125 0.5 0.5
0.25 0.5 0.5
0.375 0.5 0.5
0.5 0.5 0.5
0.625 0.5 0.5
0.75 0.5 0.5
0.875 0.5 0.5
0.125 0.625 0.5
0.25 0.625 0.5
0.375 0.625 0.5
0.5 0.625 0.5
0.625 0.625 0.5
0.75 0.625 0.5
0.875 0.625 0.5
0.125 0.75 0.5
0.25 0.75 0.5
0.375 0.75 0.5
0.5 0.75 0.5
0.625 0.75 0.5
0.75 0.75 0.5
0.875 0.75 0.5
0.125 0.875 0.5
0.25 0.875 0.5
0.375 0.875 0.5
0.5 0.875 0.5
0.625 0.875 0.5
0.75 0.875 0.5
0.875 0.875 0.5
0.125 0.125 0.625
0.25 0.125 0.625
0.375 0.125 0.625
0.5 0.125 0.625
0.625 0.125 0.625
0.75 0.125 0.625
0.875 0.125 0.625
0.125 0.25 0.625
0.25 0.25 0.625
0.375 0.25 0.625
0.5 0.25 0.625
0.625 0.25 0.625
0.75 0.25 0.625
0.875 0.25 0.625
0.125 0.375 0.625
0.25 0.375 0.625
0.375 0.375 0.625
0.5 0.375 0.625
0.625 0.375 0.625
0.75 0.375 0.625
0.875 0.375 0.625
0.125 0.5 0.625
0.25 0.5 0.625
0.375 0.5 0.625
0.5 0.5 0.625
0.625 0.5 0.625
0.75 0.5 0.625
0.875 0.5 0.625
0.125 0.625 0.625
0.25 0.625 0.625
0.375 0.625 0.625
0.5 0.625 0.625
0.625 0.625 0.625
0.75 0.625 0.625
0.875 0.625 0.625
0.125 0.75 0.625
0.25 0.75 0.625
0.375 0.75 0.625
0.5 0.75 0.625
0.625 0.75 0.625
0.75 0.75 0.625
0.875 0.75 0.625
0.125 0.875 0.625
0.25 0.875 0.625
0.375 0.875 0.625
0.5 0.875 0.625
0.625 0.875 0.625
0.75 0.875 0.625
0.875 0.875 0.625
0.125 0.125 0.75
0.25 0.125 0.75
0.375 0.125 0.75
0.5 0.125 0.75
0.625 0.125 0.75
0.75 0.125 0.75
0.875 0.125 0.75
0.125 0.25 0.75
0.25 0.25 0.75
0.375 0.25 0.75
0.5 0.25 0.75
0.625 0.25 0.75
0.75 0.25 0.75
0.875 0.25 0.75
0.125 0.375 0.75
0.25 0.375 0.75
0.375 0.375 0.75
0.5 0.375 0.75
0.625 0.375 0.75
0.75 0.375 0.75
0.875 0.375 0.75
0.125 0.5 0.75
0.25 0.5 0.75
0.375 0.5 0.75
0.5 0.5 0.75
0.625 0.5 0.75
0.75 0.5 0.75
0.875 0.5 0.75
0.125 0.625 0.75
0.25 0.625 0.75
0.375 0.625 0.75
0.5 0.625 0.75
0.625 0.625 0.75
0.75 0.625 0.75
0.875 0.625 0.75
0.125 0.75 0.75
0.25 0.75 0.75
0.375 0.75 0.75
0.5 0.75 0.75
0.625 0.75 0.75
0.75 0.75 0.75
0.875 0.75 0.75
0.125 0.875 0.75
0.25 0.875 0.75
0.375 0.875 0.75
0.5 0.875 0.75
0.625 0.875 0.75
0.75 0.875 0.75
0.875 0.875 0.75
0.125 0.125 0.875
0.25 0.125 0.875
0.375 0.125 0.875
0.5 0.125 0.875
0.625 0.125 0.875
0.75 0.125 0.875
0.875 0.125 0.875
0.125 0.25 0.875
0.25 0.25 0.875
0.375 0.25 0.875
0.5 0.25 0.875
0.625 0.25 0.875
0.75 0.25 0.875
0.875 0.25 0.875
0.125 0.375 0.875
0.25 0.375 0.875
0.375 0.375 0.875
0.5 0.375 0.875
0.625 0.375 0.875
0.75 0.375 0.875
0.875 0.375 0.875
0.125 0.5 0.875
0.25 0.5 0.875
0.375 0.5 0.875
0.5 0.5 0.875
0.625 0.5 0.875
0.75 0.5 0.875
0.875 0.5 0.875
0.125 0.625 0.875
0.25 0.625 0.875
0.375 0.625 0.875
0.5 0.625 0.875
0.625 0.625 0.875
0.75 0.625 0.875
0.875 0.625 0.875
0.125 0.75 0.875
0.25 0.75 0.875
0.375 0.75 0.875
0.5 0.75 0.875
0.625 0.75 0.875
0.75 0.75 0.875
0.875 0.75 0.875
0.125 0.875 0.875
0.25 0.875 0.875
0.375 0.875 0.875
0.5 0.875 0.875
0.625 0.875 0.875
0.75 0.875 0.875
0.875 0.875 0.875
$EndNodes
$Elements
8 897 1 897
0 2 15 1
1 2 
2 1 3 64
2 2 9 93 30 
3 30 93 94 31 
4 31 94 95 32 
5 32 95 96 33 
6 33 96 97 34 
7 34 97 98 35 
8 35 98 99 36 
9 36 99 23 4 
10 9 10 100 93 
11 93 100 101 94 
12 94 101 102 95 
13 95 102 103 96 
14 96 103 104 97 
15 97 104 105 98 
16 98 105 106 99 
17 99 106 24 23 
18 10 11 107 100 
19 100 107 108 101 
20 101 108 109 102 
21 102 109 110 103 
22 103 110 111 104 
23 104 111 112 105 
24 105 112 113 106 
25 106 113 25 24 
26 11 12 114 107 
27 107 114 115 108 
28 108 115 116 109 
29 109 116 117 110 
30 110 117 118 111 
31 111 118 119 112 
32 112 119 120 113 
33 113 120 26 25 
34 12 13 121 114 
35 114 121 122 115 
36 115 122 123 116 
37 116 123 124 117 
38 117 124 125 118 
39 118 125 126 119 
40 119 126 127 120 
41 120 127 27 26 
42 13 14 128 121 
43 121 128 129 122 
44 122 129 130 123 
45 123 130 131 124 
46 124 131 132 125 
47 125 132 133 126 
48 126 133 134 127 
49 127 134 28 27 
50 14 15 135 128 
51 128 135 136 129 
52 129 136 137 130 
53 130 137 138 131 
54 131 138 139 132 
55 132 139 140 133 
56 133 140 141 134 
57 134 141 29 28 
58 15 1 16 135 
59 135 16 17 136 
60 136 17 18 137 
61 137 18 19 138 
62 138 19 20 139 
63 139 20 21 140 
64 140 21 22 141 
65 141 22 3 29 
2 2 3 64
66 6 58 142 37 
67 58 59 143 142 
68 59 60 144 143 
69 60 61 145 144 
70 61 62 146 145 
71 62 63 147 146 
72 63 64 148 147 
73 64 8 51 148 
74 37 142 149 38 
75 142 143 150 149 
76 143 144 151 150 
77 144 145 152 151 
78 145 146 153 152 
79 146 147 154 153 
80 147 148 155 154 
81 148 51 52 155 
82 38 149 156 39 
83 149 150 157 156 
84 150 151 158 157 
85 151 152 159 158 
86 152 153 160 159 
87 153 154 161 160 
88 154 155 162 161 
89 155 52 53 162 
90 39 156 163 40 
91 156 157 164 163 
92 157 158 165 164 
93 158 159 166 165 
94 159 160 167 166 
95 160 161 168 167 
96 161 162 169 168 
97 162 53 54 169 
98 40 163 170 41 
99 163 164 171 170 
100 164 165 172 171 
101 165 166 173 172 
102 166 167 174 173 
103 167 168 175 174 
104 168 169 176 175 
105 169 54 55 176 
106 41 170 177 42 
107 170 171 178 177 
108 171 172 179 178 
109 172 173 180 179 
110 173 174 181 180 
111 174 175 182 181 
112 175 176 183 182 
113 176 55 56 183 
114 42 177 184 43 
115 177 178 185 184 
116 178 179 186 185 
117 179 180 187 186 
118 180 181 188 187 
119 181 182 189 188 
120 182 183 190 189 
121 183 56 57 190 
122 43 184 44 5 
123 184 185 45 44 
124 185 186 46 45 
125 186 187 47 46 
126 187 188 48 47 
127 188 189 49 48 
128 189 190 50 49 
129 190 57 7 50 
2 3 3 64
130 2 65 191 9 
131 9 191 192 10 
132 10 192 193 11 
133 11 193 194 12 
134 12 194 195 13 
135 13 195 196 14 
136 14 196 197 15 
137 15 197 72 1 
138 65 66 198 191 
139 191 198 199 192 
140 192 199 200 193 
141 193 200 201 194 
142 194 201 202 195 
143 195 202 203 196 
144 196 203 204 197 
145 197 204 73 72 
146 66 67 205 198 
147 198 205 206 199 
148 199 206 207 200 
149 200 207 208 201 
150 201 208 209 202 
151 202 209 210 203 
152 203 210 211 204 
153 204 211 74 73 
154 67 68 212 205 
155 205 212 213 206 
156 206 213 214 207 
157 207 214 215 208 
158 208 215 216 209 
159 209 216 217 210 
160 210 217 218 211 
161 211 218 75 74 
162 68 69 219 212 
163 212 219 220 213 
164 213 220 221 214 
165 214 221 222 215 
166 215 222 223 216 
167 216 223 224 217 
168 217 224 225 218 
169 218 225 76 75 
170 69 70 226 219 
171 219 226 227 220 
172 220 227 228 221 
173 221 228 229 222 
174 222 229 230 223 
175 223 230 231 224 
176 224 231 232 225 
177 225 232 77 76 
178 70 71 233 226 
179 226 233 234 227 
180 227 234 235 228 
181 228 235 236 229 
182 229 236 237 230 
183 230 237 238 231 
184 231 238 239 232 
185 232 239 78 77 
186 71 6 37 233 
187 233 37 38 234 
188 234 38 39 235 
189 235 39 40 236 
190 236 40 41 237 
191 237 41 42 238 
192 238 42 43 239 
193 239 43 5 78 
2 4 3 64
194 4 23 240 79 
195 23 24 241 240 
196 24 25 242 241 
197 25 26 243 242 
198 26 27 244 243 
199 27 28 245 244 
200 28 29 246 245 
201 29 3 86 246 
202 79 240 247 80 
203 240 241 248 247 
204 241 242 249 248 
205 242 243 250 249 
206 243 244 251 250 
207 244 245 252 251 
208 245 246 253 252 
209 246 86 87 253 
210 80 247 254 81 
211 247 248 255 254 
212 248 249 256 255 
213 249 250 257 256 
214 250 251 258 257 
215 251 252 259 258 
216 252 253 260 259 
217 253 87 88 260 
218 81 254 261 82 
219 254 255 262 261 
220 255 256 263 262 
221 256 257 264 263 
222 257 258 265 264 
223 258 259 266 265 
224 259 260 267 266 
225 260 88 89 267 
226 82 261 268 83 
227 261 262 269 268 
228 262 263 270 269 
229 263 264 271 270 
230 264 265 272 271 
231 265 266 273 272 
232 266 267 274 273 
233 267 89 90 274 
234 83 268 275 84 
235 268 269 276 275 
236 269 270 277 276 
237 270 271 278 277 
238 271 272 279 278 
239 272 273 280 279 
240 273 274 281 280 
241 274 90 91 281 
242 84 275 282 85 
243 275 276 283 282 
244 276 277 284 283 
245 277 278 285 284 
246 278 279 286 285 
247 279 280 287 286 
248 280 281 288 287 
249 281 91 92 288 
250 85 282 51 8 
251 282 283 52 51 
252 283 284 53 52 
253 284 285 54 53 
254 285 286 55 54 
255 286 287 56 55 
256 287 288 57 56 
257 288 92 7 57 
2 5 3 64
258 2 30 289 65 
259 65 289 290 66 
260 66 290 291 67 
261 67 291 292 68 
262 68 292 293 69 
263 69 293 294 70 
264 70 294 295 71 
265 71 295 58 6 
266 30 31 296 289 
267 289 296 297 290 
268 290 297 298 291 
269 291 298 299 292 
270 292 299 300 293 
271 293 300 301 294 
272 294 301 302 295 
273 295 302 59 58 
274 31 32 303 296 
275 296 303 304 297 
276 297 304 305 298 
277 298 305 306 299 
278 299 306 307 300 
279 300 307 308 301 
280 301 308 309 302 
281 302 309 60 59 
282 32 33 310 303 
283 303 310 311 304 
284 304 311 312 305 
285 305 312 313 306 
286 306 313 314 307 
287 307 314 315 308 
288 308 315 316 309 
289 309 316 61 60 
290 33 34 317 310 
291 310 317 318 311 
292 311 318 319 312 
293 312 319 320 313 
294 313 320 321 314 
295 314 321 322 315 
296 315 322 323 316 
297 316 323 62 61 
298 34 35 324 317 
299 317 324 325 318 
300 318 325 326 319 
301 319 326 327 320 
302 320 327 328 321 
303 321 328 329 322 
304 322 329 330 323 
305 323 330 63 62 
306 35 36 331 324 
307 324 331 332 325 
308 325 332 333 326 
309 326 333 334 327 
310 327 334 335 328 
311 328 335 336 329 
312 329 336 337 330 
313 330 337 64 63 
314 36 4 79 331 
315 331 79 80 332 
316 332 80 81 333 
317 333 81 82 334 
318 334 82 83 335 
319 335 83 84 336 
320 336 84 85 337 
321 337 85 8 64 
2 6 3 64
322 1 72 338 16 
323 72 73 339 338 
324 73 74 340 339 
325 74 75 341 340 
326 75 76 342 341 
327 76 77 343 342 
328 77 78 344 343 
329 78 5 44 344 
330 16 338 345 17 
331 338 339 346 345 
332 339 340 347 346 
333 340 341 348 347 
334 341 342 349 348 
335 342 343 350 349 
336 343 344 351 350 
337 344 44 45 351 
338 17 345 352 18 
339 345 346 353 352 
340 346 347 354 353 
341 347 348 355 354 
342 348 349 356 355 
343 349 350 357 356 
344 350 351 358 357 
345 351 45 46 358 
346 18 352 359 19 
347 352 353 360 359 
348 353 354 361 360 
349 354 355 362 361 
350 355 356 363 362 
351 356 357 364 363 
352 357 358 365 364 
353 358 46 47 365 
354 19 359 366 20 
355 359 360 367 366 
356 360 361 368 367 
357 361 362 369 368 
358 362 363 370 369 
359 363 364 371 370 
360 364 365 372 371 
361 365 47 48 372 
362 20 366 373 21 
363 366 367 374 373 
364 367 368 375 374 
365 368 369 376 375 
366 369 370 377 376 
367 370 371 378 377 
368 371 372 379 378 
369 372 48 49 379 
370 21 373 380 22 
371 373 374 381 380 
372 374 375 382 381 
373 375 376 383 382 
374 376 377 384 383 
375 377 378 385 384 
376 378 379 386 385 
377 379 49 50 386 
378 22 380 86 3 
379 380 381 87 86 
380 381 382 88 87 
381 382 383 89 88 
382 383 384 90 89 
383 384 385 91 90 
384 385 386 92 91 
385 386 50 7 92 
3 1 5 512
386 93 9 2 30 387 191 65 289 
387 387 191 65 289 388 198 66 290 
388 388 198 66 290 389 205 67 291 
389 389 205 67 291 390 212 68 292 
390 390 212 68 292 391 219 69 293 
391 391 219 69 293 392 226 70 294 
392 392 226 70 294 393 233 71 295 
393 393 233 71 295 142 37 6 58 
394 94 93 30 31 394 387 289 296 
395 394 387 289 296 395 388 290 297 
396 395 388 290 297 396 389 291 298 
397 396 389 291 298 397 390 292 299 
398 397 390 292 299 398 391 293 300 
399 398 391 293 300 399 392 294 301 
400 399 392 294 301 400 393 295 302 
401 400 393 295 302 143 142 58 59 
402 95 94 31 32 401 394 296 303 
403 401 394 296 303 402 395 297 304 
404 402 395 297 304 403 396 298 305 
405 403 396 298 305 404 397 299 306 
406 404 397 299 306 405 398 300 307 
407 405 398 300 307 406 399 301 308 
408 406 399 301 308 407 400 302 309 
409 407 400 302 309 144 143 59 60 
410 96 95 32 33 408 401 303 310 
411 408 401 303 310 409 402 304 311 
412 409 402 304 311 410 403 305 312 
413 410 403 305 312 411 404 306 313 
414 411 404 306 313 412 405 307 314 
415 412 405 307 314 413 406 308 315 
416 413 406 308 315 414 407 309 316 
417 414 407 309 316 145 144 60 61 
418 97 96 33 34 415 408 310 317 
419 415 408 310 317 416 409 311 318 
420 416 409 311 318 417 410 312 319 
421 417 410 312 319 418 411 313 320 
422 418 411 313 320 419 412 314 321 
423 419 412 314 321 420 413 315 322 
424 420 413 315 322 421 414 316 323 
425 421 414 316 323 146 145 61 62 
426 98 97 34 35 422 415 317 324 
427 422 415 317 324 423 416 318 325 
428 423 416 318 325 424 417 319 326 
429 424 417 319 326 425 418 320 327 
430 425 418 320 327 426 419 321 328 
431 426 419 321 328 427 420 322 329 
432 427 420 322 329 428 421 323 330 
433 428 421 323 330 147 146 62 63 
434 99 98 35 36 429 422 324 331 
435 429 422 324 331 430 423 325 332 
436 430 423 325 332 431 424 326 333 
437 431 424 326 333 432 425 327 334 
438 432 425 327 334 433 426 328 335 
439 433 426 328 335 434 427 329 336 
440 434 427 329 336 435 428 330 337 
441 435 428 330 337 148 147 63 64 
442 23 99 36 4 240 429 331 79 
443 240 429 331 79 247 430 332 80 
444 247 430 332 80 254 431 333 81 
445 254 431 333 81 261 432 334 82 
446 261 432 334 82 268 433 335 83 
447 268 433 335 83 275 434 336 84 
448 275 434 336 84 282 435 337 85 
449 282 435 337 85 51 148 64 8 
450 100 10 9 93 436 192 191 387 
451 436 192 191 387 437 199 198 388 
452 437 199 198 388 438 206 205 389 
453 438 206 205 389 439 213 212 390 
454 439 213 212 390 440 220 219 391 
455 440 220 219 391 441 227 226 392 
456 441 227 226 392 442 234 233 393 
457 442 234 233 393 149 38 37 142 
458 101 100 93 94 443 436 387 394 
459 443 436 387 394 444 437 388 395 
460 444 437 388 395 445 438 389 396 
461 445 438 389 396 446 439 390 397 
462 446 439 390 397 447 440 391 398 
463 447 440 391 398 448 441 392 399 
464 448 441 392 399 449 442 393 400 
465 449 442 393 400 150 149 142 143 
466 102 101 94 95 450 443 394 401 
467 450 443 394 401 451 444 395 402 
468 451 444 395 402 452 445 396 403 
469 452 445 396 403 453 446 397 404 
470 453 446 397 404 454 447 398 405 
471 454 447 398 405 455 448 399 406 
472 455 448 399 406 456 449 400 407 
473 456 449 400 407 151 150 143 144 
474 103 102 95 96 457 450 401 408 
475 457 450 401 408 458 451 402 409 
476 458 451 402 409 459 452 403 410 
477 459 452 403 410 460 453 404 411 
478 460 453 404 411 461 454 405 412 
479 461 454 405 412 462 455 406 413 
480 462 455 406 413 463 456 407 414 
481 463 456 407 414 152 151 144 145 
482 104 103 96 97 464 457 408 415 
483 464 457 408 415 465 458 409 416 
484 465 458 409 416 466 459 410 417 
485 466 459 410 417 467 460 411 418 
486 467 460 411 418 468 461 412 419 
487 468 461 412 419 469 462 413 420 
488 469 462 413 420 470 463 414 421 
489 470 463 414 421 153 152 145 146 
490 105 104 97 98 471 464 415 422 
491 471 464 415 422 472 465 416 423 
492 472 465 416 423 473 466 417 424 
493 473 466 417 424 474 467 418 425 
494 474 467 418 425 475 468 419 426 
495 475 468 419 426 476 469 420 427 
496 476 469 420 427 477 470 421 428 
497 477 470 421 428 154 153 146 147 
498 106 105 98 99 478 471 422 429 
499 478 471 422 429 479 472 423 430 
500 479 472 423 430 480 473 424 431 
501 480 473 424 431 481 474 425 432 
502 481 474 425 432 482 475 426 433 
503 482 475 426 433 483 476 427 434 
504 483 476 427 434 484 477 428 435 
505 484 477 428 435 155 154 147 148 
506 24 106 99 23 241 478 429 240 
507 241 478 429 240 248 479 430 247 
508 248 479 430 247 255 480 431 254 
509 255 480 431 254 262 481 432 261 
510 262 481 432 261 269 482 433 268 
511 269 482 433 268 276 483 434 275 
512 276 483 434 275 283 484 435 282 
513 283 484 435 282 52 155 148 51 
514 107 11 10 100 485 193 192 436 
515 485 193 192 436 486 200 199 437 
516 486 200 199 437 487 207 206 438 
517 487 207 206 438 488 214 213 439 
518 488 214 213 439 489 221 220 440 
519 489 221 220 440 490 228 227 441 
520 490 228 227 441 491 235 234 442 
521 491 235 234 442 156 39 38 149 
522 108 107 100 101 492 485 436 443 
523 492 485 436 443 493 486 437 444 
524 493 486 437 444 494 487 438 445 
525 494 487 438 445 495 488 439 446 
526 495 488 439 446 496 489 440 447 
527 496 489 440 447 497 490 441 448 
528 497 490 441 448 498 491 442 449 
529 498 491 442 449 157 156 149 150 
530 109 108 101 102 499 492 443 450 
531 499 492 443 450 500 493 444 451 
532 500 493 444 451 501 494 445 452 
533 501 494 445 452 502 495 446 453 
534 502 495 446 453 503 496 447 454 
535 503 496 447 454 504 497 448 455 
536 504 497 448 455 505 498 449 456 
537 505 498 449 456 158 157 150 151 
538 110 109 102 103 506 499 450 457 
539 506 499 450 457 507 500 451 458 
540 507 500 451 458 508 501 452 459 
541 508 501 452 459 509 502 453 460 
542 509 502 453 460 510 503 454 461 
543 510 503 454 461 511 504 455 462 
544 511 504 455 462 512 505 456 463 
545 512 505 456 463 159 158 151 152 
546 111 110 103 104 513 506 457 464 
547 513 506 457 464 514 507 458 465 
548 514 507 458 465 515 508 459 466 
549 515 508 459 466 516 509 460 467 
550 516 509 460 467 517 510 461 468 
551 517 510 461 468 518 511 462 469 
552 518 511 462 469 519 512 463 470 
553 519 512 463 470 160 159 152 153 
554 112 111 104 105 520 513 464 471 
555 520 513 464 471 521 514 465 472 
556 521 514 465 472 522 515 466 473 
557 522 515 466 473 523 516 467 474 
558 523 516 467 474 524 517 468 475 
559 524 517 468 475 525 518 469 476 
560 525 518 469 476 526 519 470 477 
561 526 519 470 477 161 160 153 154 
562 113 112 105 106 527 520 471 478 
563 527 520 471 478 528 521 472 479 
564 528 521 472 479 529 522 473 480 
565 529 522 473 480 530 523 474 481 
566 530 523 474 481 531 524 475 482 
567 531 524 475 482 532 525 476 483 
568 532 525 476 483 533 526 477 484 
569 533 526 477 484 162 161 154 155 
570 25 113 106 24 242 527 478 241 
571 242 527 478 241 249 528 479 248 
572 249 528 479 248 256 529 480 255 
573 256 529 480 255 263 530 481 262 
574 263 530 481 262 270 531 482 269 
575 270 531 482 269 277 532 483 276 
576 277 532 483 276 284 533 484 283 
577 284 533 484 283 53 162 155 52 
578 114 12 11 107 534 194 193 485 
579 534 194 193 485 535 201 200 486 
580 535 201 200 486 536 208 207 487 
581 536 208 207 487 537 215 214 488 
582 537 215 214 488 538 222 221 489 
583 538 222 221 489 539 229 228 490 
584 539 229 228 490 540 236 235 491 
585 540 236 235 491 163 40 39 156 
586 115 114 107 108 541 534 485 492 
587 541 534 485 492 542 535 486 493 
588 542 535 486 493 543 536 487 494 
589 543 536 487 494 544 537 488 495 
590 544 537 488 495 545 538 489 496 
591 545 538 489 496 546 539 490 497 
592 546 539 490 497 547 540 491 498 
593 547 540 491 498 164 163 156 157 
594 116 115 108 109 548 541 492 499 
595 548 541 492 499 549 542 493 500 
596 549 542 493 500 550 543 494 501 
597 550 543 494 501 551 544 495 502 
598 551 544 495 502 552 545 496 503 
599 552 545 496 503 553 546 497 504 
600 553 546 497 504 554 547 498 505 
601 554 547 498 505 165 164 157 158 
602 117 116 109 110 555 548 499 506 
603 555 548 499 506 556 549 500 507 
604 556 549 500 507 557 550 501 508 
605 557 550 501 508 558 551 502 509 
606 558 551 502 509 559 552 503 510 
607 559 552 503 510 560 553 504 511 
608 560 553 504 511 561 554 505 512 
609 561 554 505 512 166 165 158 159 
610 118 117 110 111 562 555 506 513 
611 562 555 506 513 563 556 507 514 
612 563 556 507 514 564 557 508 515 
613 564 557 508 515 565 558 509 516 
614 565 558 509 516 566 559 510 517 
615 566 559 510 517 567 560 511 518 
616 567 560 511 518 568 561 512 519 
617 568 561 512 519 167 166 159 160 
618 119 118 111 112 569 562 513 520 
619 569 562 513 520 570 563 514 521 
620 570 563 514 521 571 564 515 522 
621 571 564 515 522 572 565 516 523 
622 572 565 516 523 573 566 517 524 
623 573 566 517 524 574 567 518 525 
624 574 567 518 525 575 568 519 526 
625 575 568 519 526 168 167 160 161 
626 120 119 112 113 576 569 520 527 
627 576 569 520 527 577 570 521 528 
628 577 570 521 528 578 571 522 529 
629 578 571 522 529 579 572 523 530 
630 579 572 523 530 580 573 524 531 
631 580 573 524 531 581 574 525 532 
632 581 574 525 532 582 575 526 533 
633 582 575 526 533 169 168 161 162 
634 26 120 113 25 243 576 527 242 
635 243 576 527 242 250 577 528 249 
636 250 577 528 249 257 578 529 256 
637 257 578 529 256 264 579 530 263 
638 264 579 530 263 271 580 531 270 
639 271 580 531 270 278 581 532 277 
640 278 581 532 277 285 582 533 284 
641 285 582 533 284 54 169 162 53 
642 121 13 12 114 583 195 194 534 
643 583 195 194 534 584 202 201 535 
644 584 202 201 535 585 209 208 536 
645 585 209 208 536 586 216 215 537 
646 586 216 215 537 587 223 222 538 
647 587 223 222 538 588 230 229 539 
648 588 230 229 539 589 237 236 540 
649 589 237 236 540 170 41 40 163 
650 122 121 114 115 590 583 534 541 
651 590 583 534 541 591 584 535 542 
652 591 584 535 542 592 585 536 543 
653 592 585 536 543 593 586 537 544 
654 593 586 537 544 594 587 538 545 
655 594 587 538 545 595 588 539 546 
656 595 588 539 546 596 589 540 547 
657 596 589 540 547 171 170 163 164 
658 123 122 115 116 597 590 541 548 
659 597 590 541 548 598 591 542 549 
660 598 591 542 549 599 592 543 550 
661 599 592 543 550 600 593 544 551 
662 600 593 544 551 601 594 545 552 
663 601 594 545 552 602 595 546 553 
664 602 595 546 553 603 596 547 554 
665 603 596 547 554 172 171 164 165 
666 124 123 116 117 604 597 548 555 
667 604 597 548 555 605 598 549 556 
668 605 598 549 556 606 599 550 557 
669 606 599 550 557 607 600 551 558 
670 607 600 551 558 608 601 552 559 
671 608 601 552 559 609 602 553 560 
672 609 602 553 560 610 603 554 561 
673 610 603 554 561 173 172 165 166 
674 125 124 117 118 611 604 555 562 
675 611 604 555 562 612 605 556 563 
676 612 605 556 563 613 606 557 564 
677 613 606 557 564 614 607 558 565 
678 614 607 558 565 615 608 559 566 
679 615 608 559 566 616 609 560 567 
680 616 609 560 567 617 610 561 568 
681 617 610 561 568 174 173 166 167 
682 126 125 118 119 618 611 562 569 
683 618 611 562 569 619 612 563 570 
684 619 612 563 570 620 613 564 571 
685 620 613 564 571 621 614 565 572 
686 621 614 565 572 622 615 566 573 
687 622 615 566 573 623 616 567 574 
688 623 616 567 574 624 617 568 575 
689 624 617 568 575 175 174 167 168 
690 127 126 119 120 625 618 569 576 
691 625 618 569 576 626 619 570 577 
692 626 619 570 577 627 620 571 578 
693 627 620 571 578 628 621 572 579 
694 628 621 572 579 629 622 573 580 
695 629 622 573 580 630 623 574 581 
696 630 623 574 581 631 624 575 582 
697 631 624 575 582 176 175 168 169 
698 27 127 120 26 244 625 576 243 
699 244 625 576 243 251 626 577 250 
700 251 626 577 250 258 627 578 257 
701 258 627 578 257 265 628 579 264 
702 265 628 579 264 272 629 580 271 
703 272 629 580 271 279 630 581 278 
704 279 630 581 278 286 631 582 285 
705 286 631 582 285 55 176 169 54 
706 128 14 13 121 632 196 195 583 
707 632 196 195 583 633 203 202 584 
708 633 203 202 584 634 210 209 585 
709 634 210 209 585 635 217 216 586 
710 635 217 216 586 636 224 223 587 
711 636 224 223 587 637 231 230 588 
712 637 231 230 588 638 238 237 589 
713 638 238 237 589 177 42 41 170 
714 129 128 121 122 639 632 583 590 
715 639 632 583 590 640 633 584 591 
716 640 633 584 591 641 634 585 592 
717 641 634 585 592 642 635 586 593 
718 642 635 586 593 643 636 587 594 
719 643 636 587 594 644 637 588 595 
720 644 637 588 595 645 638 589 596 
721 645 638 589 596 178 177 170 171 
722 130 129 122 123 646 639 590 597 
723 646 639 590 597 647 640 591 598 
724 647 640 591 598 648 641 592 599 
725 648 641 592 599 649 642 593 600 
726 649 642 593 600 650 643 594 601 
727 650 643 594 601 651 644 595 602 
728 651 644 595 602 652 645 596 603 
729 652 645 596 603 179 178 171 172 
730 131 130 123 124 653 646 597 604 
731 653 646 597 604 654 647 598 605 
732 654 647 598 605 655 648 599 606 
733 655 648 599 606 656 649 600 607 
734 656 649 600 607 657 650 601 608 
735 657 650 601 608 658 651 602 609 
736 658 651 602 609 659 652 603 610 
737 659 652 603 610 180 179 172 173 
738 132 131 124 125 660 653 604 611 
739 660 653 604 611 661 654 605 612 
740 661 654 605 612 662 655 606 613 
741 662 655 606 613 663 656 607 614 
742 663 656 607 614 664 657 608 615 
743 664 657 608 615 665 658 609 616 
744 665 658 609 616 666 659 610 617 
745 666 659 610 617 181 180 173 174 
746 133 132 125 126 667 660 611 618 
747 667 660 611 618 668 661 612 619 
748 668 661 612 619 669 662 613 620 
749 669 662 613 620 670 663 614 621 
750 670 663 614 621 671 664 615 622 
751 671 664 615 622 672 665 616 623 
752 672 665 616 623 673 666 617 624 
753 673 666 617 624 182 181 174 175 
754 134 133 126 127 674 667 618 625 
755 674 667 618 625 675 668 619 626 
756 675 668 619 626 676 669 620 627 
757 676 669 620 627 677 670 621 628 
758 677 670 621 628 678 671 622 629 
759 678 671 622 629 679 672 623 630 
760 679 672 623 630 680 673 624 631 
761 680 673 624 631 183 182 175 176 
762 28 134 127 27 245 674 625 244 
763 245 674 625 244 252 675 626 251 
764 252 675 626 251 259 676 627 258 
765 259 676 627 258 266 677 628 265 
766 266 677 628 265 273 678 629 272 
767 273 678 629 272 280 679 630 279 
768 280 679 630 279 287 680 631 286 
769 287 680 631 286 56 183 176 55 
770 135 15 14 128 681 197 196 632 
771 681 197 196 632 682 204 203 633 
772 682 204 203 633 683 211 210 634 
773 683 211 210 634 684 218 217 635 
774 684 218 217 635 685 225 224 636 
775 685 225 224 636 686 232 231 637 
776 686 232 231 637 687 239 238 638 
777 687 239 238 638 184 43 42 177 
778 136 135 128 129 688 681 632 639 
779 688 681 632 639 689 682 633 640 
780 689 682 633 640 690 683 634 641 
781 690 683 634 641 691 684 635 642 
782 691 684 635 642 692 685 636 643 
783 692 685 636 643 693 686 637 644 
784 693 686 637 644 694 687 638 645 
785 694 687 638 645 185 184 177 178 
786 137 136 129 130 695 688 639 646 
787 695 688 639 646 696 689 640 647 
788 696 689 640 647 697 690 641 648 
789 697 690 641 648 698 691 642 649 
790 698 691 642 649 699 692 643 650 
791 699 692 643 650 700 693 644 651 
792 700 693 644 651 701 694 645 652 
793 701 694 645 652 186 185 178 179 
794 138 137 130 131 702 695 646 653 
795 702 695 646 653 703 696 647 654 
796 703 696 647 654 704 697 648 655 
797 704 697 648 655 705 698 649 656 
798 705 698 649 656 706 699 650 657 
799 706 699 650 657 707 700 651 658 
800 707 700 651 658 708 701 652 659 
801 708 701 652 659 187 186 179 180 
802 139 138 131 132 709 702 653 660 
803 709 702 653 660 710 703 654 661 
804 710 703 654 661 711 704 655 662 
805 711 704 655 662 712 705 656 663 
806 712 705 656 663 713 706 657 664 
807 713 706 657 664 714 707 658 665 
808 714 707 658 665 715 708 659 666 
809 715 708 659 666 188 187 180 181 
810 140 139 132 133 716 709 660 667 
811 716 709 660 667 717 710 661 668 
812 717 710 661 668 718 711 662 669 
813 718 711 662 669 719 712 663 670 
814 719 712 663 670 720 713 664 671 
815 720 713 664 671 721 714 665 672 
816 721 714 665 672 722 715 666 673 
817 722 715 666 673 189 188 181 182 
818 141 140 133 134 723 716 667 674 
819 723 716 667 674 724 717 668 675 
820 724 717 668 675 725 718 669 676 
821 725 718 669 676 726 719 670 677 
822 726 719 670 677 727 720 671 678 
823 727 720 671 678 728 721 672 679 
824 728 721 672 679 729 722 673 680 
825 729 722 673 680 190 189 182 183 
826 29 141 134 28 246 723 674 245 
827 246 723 674 245 253 724 675 252 
828 253 724 675 252 260 725 676 259 
829 260 725 676 259 267 726 677 266 
830 267 726 677 266 274 727 678 273 
831 274 727 678 273 281 728 679 280 
832 281 728 679 280 288 729 680 287 
833 288 729 680 287 57 190 183 56 
834 16 1 15 135 338 72 197 681 
835 338 72 197 681 339 73 204 682 
836 339 73 204 682 340 74 211 683 
837 340 74 211 683 341 75 218 684 
838 341 75 218 684 342 76 225 685 
839 342 76 225 685 343 77 232 686 
840 343 77 232 686 344 78 239 687 
841 344 78 239 687 44 5 43 184 
842 17 16 135 136 345 338 681 688 
843 345 338 681 688 346 339 682 689 
844 346 339 682 689 347 340 683 690 
845 347 340 683 690 348 341 684 691 
846 348 341 684 691 349 342 685 692 
847 349 342 685 692 350 343 686 693 
848 350 343 686 693 351 344 687 694 
849 351 344 687 694 45 44 184 185 
850 18 17 136 137 352 345 688 695 
851 352 345 688 695 353 346 689 696 
852 353 346 689 696 354 347 690 697 
853 354 347 690 697 355 348 691 698 
854 355 348 691 698 356 349 692 699 
855 356 349 692 699 357 350 693 700 
856 357 350 693 700 358 351 694 701 
857 358 351 694 701 46 45 185 186 
858 19 18 137 138 359 352 695 702 
859 359 352 695 702 360 353 696 703 
860 360 353 696 703 361 354 697 704 
861 361 354 697 704 362 355 698 705 
862 362 355 698 705 363 356 699 706 
863 363 356 699 706 364 357 700 707 
864 364 357 700 707 365 358 701 708 
865 365 358 701 708 47 46 186 187 
866 20 19 138 139 366 359 702 709 
867 366 359 702 709 367 360 703 710 
868 367 360 703 710 368 361 704 711 
869 368 361 704 711 369 362 705 712 
870 369 362 705 712 370 363 706 713 
871 370 363 706 713 371 364 707 714 
872 371 364 707 714 372 365 708 715 
873 372 365 708 715 48 47 187 188 
874 21 20 139 140 373 366 709 716 
875 373 366 709 716 374 367 710 717 
876 374 367 710 717 375 368 711 718 
877 375 368 711 718 376 369 712 719 
878 376 369 712 719 377 370 713 720 
879 377 370 713 720 378 371 714 721 
880 378 371 714 721 379 372 715 722 
881 379 372 715 722 49 48 188 189 
882 22 21 140 141 380 373 716 723 
883 380 373 716 723 381 374 717 724 
884 381 374 717 724 382 375 718 725 
885 382 375 718 725 383 376 719 726 
886 383 376 719 726 384 377 720 727 
887 384 377 720 727 385 378 721 728 
888 385 378 721 728 386 379 722 729 
889 386 379 722 729 50 49 189 190 
890 3 22 141 29 86 380 723 246 
891 86 380 723 246 87 381 724 253 
892 87 381 724 253 88 382 725 260 
893 88 382 725 260 89 383 726 267 
894 89 383 726 267 90 384 727 274 
895 90 384 727 274 91 385 728 281 
896 91 385 728 281 92 386 729 288 
897 92 386 729 288 7 50 190 57 
$EndElements
$Periodic
19
0 1 2
16 1 0 0 0 0 1 0 0 0 0 1 1 0 0 0 1
1
1 2
0 3 4
16 1 0 0 0 0 1 0 0 0 0 1 1 0 0 0 1
1
3 4
0 4 2
16 1 0 0 0 0 1 0 1 0 0 1 0 0 0 0 1
1
4 2
0 5 6
16 1 0 0 0 0 1 0 0 0 0 1 1 0 0 0 1
1
5 6
0 6 2
16 1 0 0 1 0 1 0 0 0 0 1 0 0 0 0 1
1
6 2
0 7 8
16 1 0 0 0 0 1 0 0 0 0 1 1 0 0 0 1
1
7 8
0 8 6
16 1 0 0 0 0 1 0 1 0 0 1 0 0 0 0 1
1
8 6
1 2 4
16 1 0 0 0 0 1 0 0 0 0 1 1 0 0 0 1
9
1 2
3 4
16 30
17 31
18 32
19 33
20 34
21 35
22 36
1 3 1
16 1 0 0 0 0 1 0 1 0 0 1 0 0 0 0 1
9
3 1
4 2
23 9
24 10
25 11
26 12
27 13
28 14
29 15
1 5 1
16 1 0 0 1 0 1 0 0 0 0 1 0 0 0 0 1
9
5 1
6 2
37 9
38 10
39 11
40 12
41 13
42 14
43 15
1 6 8
16 1 0 0 0 0 1 0 0 0 0 1 1 0 0 0 1
9
5 6
7 8
44 58
45 59
46 60
47 61
48 62
49 63
50 64
1 7 5
16 1 0 0 0 0 1 0 1 0 0 1 0 0 0 0 1
9
7 5
8 6
51 37
52 38
53 39
54 40
55 41
56 42
57 43
1 8 4
16 1 0 0 1 0 1 0 0 0 0 1 0 0 0 0 1
9
6 2
8 4
58 30
59 31
60 32
61 33
62 34
63 35
64 36
1 10 9
16 1 0 0 0 0 1 0 0 0 0 1 1 0 0 0 1
9
1 2
5 6
72 65
73 66
74 67
75 68
76 69
77 70
78 71
1 11 9
16 1 0 0 0 0 1 0 1 0 0 1 0 0 0 0 1
9
4 2
8 6
79 65
80 66
81 67
82 68
83 69
84 70
85 71
1 12 11
16 1 0 0 0 0 1 0 0 0 0 1 1 0 0 0 1
9
3 4
7 8
86 79
87 80
88 81
89 82
90 83
91 84
92 85
2 2 1
16 1 0 0 1 0 1 0 0 0 0 1 0 0 0 0 1
81
5 1
6 2
7 3
8 4
37 9
38 10
39 11
40 12
41 13
42 14
43 15
44 16
45 17
46 18
47 19
48 20
49 21
50 22
51 23
52 24
53 25
54 26
55 27
56 28
57 29
58 30
59 31
60 32
61 33
62 34
63 35
64 36
142 93
143 94
144 95
145 96
146 97
147 98
148 99
149 100
150 101
151 102
152 103
153 104
154 105
155 106
156 107
157 108
158 109
159 110
160 111
161 112
162 113
163 114
164 115
165 116
166 117
167 118
168 119
169 120
170 121
171 122
172 123
173 124
174 125
175 126
176 127
177 128
178 129
179 130
180 131
181 132
182 133
183 134
184 135
185 136
186 137
187 138
188 139
189 140
190 141
2 4 3
16 1 0 0 0 0 1 0 1 0 0 1 0 0 0 0 1
81
3 1
4 2
7 5
8 6
23 9
24 10
25 11
26 12
27 13
28 14
29 15
51 37
52 38
53 39
54 40
55 41
56 42
57 43
79 65
80 66
81 67
82 68
83 69
84 70
85 71
86 72
87 73
88 74
89 75
90 76
91 77
92 78
240 191
241 192
242 193
243 194
244 195
245 196
246 197
247 198
248 199
249 200
250 201
251 202
252 203
253 204
254 205
255 206
256 207
257 208
258 209
259 210
260 211
261 212
262 213
263 214
264 215
265 216
266 217
267 218
268 219
269 220
270 221
271 222
272 223
273 224
274 225
275 226
276 227
277 228
278 229
279 230
280 231
281 232
282 233
283 234
284 235
285 236
286 237
287 238
288 239
2 6 5
16 1 0 0 0 0 1 0 0 0 0 1 1 0 0 0 1
81
1 2
3 4
5 6
7 8
16 30
17 31
18 32
19 33
20 34
21 35
22 36
44 58
45 59
46 60
47 61
48 62
49 63
50 64
72 65
73 66
74 67
75 68
76 69
77 70
78 71
86 79
87 80
88 81
89 82
90 83
91 84
92 85
338 289
339 290
340 291
341 292
342 293
343 294
344 295
345 296
346 297
347 298
348 299
349 300
350 301
351 302
352 303
353 304
354 305
355 306
356 307
357 308
358 309
359 310
360 311
361 312
362 313
363 314
364 315
365 316
366 317
367 318
368 319
369 320
370 321
371 322
372 323
373 324
374 325
375 326
376 327
377 328
378 329
379 330
380 331
381 332
382 333
383 334
384 335
385 336
386 337
$EndPeriodic
